<svg width="67" height="90" viewBox="0 0 67 90" fill="none" xmlns="http://www.w3.org/2000/svg">
<path fill-rule="evenodd" clip-rule="evenodd" d="M44.4032 40.186C44.7864 40.186 45.097 39.8768 45.097 39.4953C45.097 39.1139 44.7864 38.8046 44.4032 38.8046C44.0201 38.8046 43.7094 39.1139 43.7094 39.4953C43.7094 39.8768 44.0201 40.186 44.4032 40.186Z" fill="#261F1F"/>
<path fill-rule="evenodd" clip-rule="evenodd" d="M22.4371 67.0228C22.3828 67.0228 22.3308 67.0445 22.2929 67.0831C22.2549 67.1217 22.2341 67.1739 22.2352 67.2279C22.2341 67.2815 22.255 67.3333 22.2931 67.3713C22.3312 67.4092 22.3832 67.43 22.4371 67.4288C22.4913 67.43 22.5438 67.4093 22.5825 67.3715C22.6213 67.3337 22.6431 67.2819 22.6431 67.2279C22.6431 67.1146 22.5509 67.0228 22.4371 67.0228Z" fill="#261F1F"/>
<path fill-rule="evenodd" clip-rule="evenodd" d="M31.036 67.4288C31.1475 67.4288 31.2378 67.3389 31.2378 67.2279C31.2378 67.1123 31.1437 67.0186 31.0276 67.0186C30.9115 67.0186 30.8174 67.1123 30.8174 67.2279C30.8173 67.2819 30.8392 67.3337 30.8779 67.3715C30.9167 67.4093 30.9691 67.43 31.0234 67.4288" fill="#261F1F"/>
<path d="M10.3355 60.9153L12.0175 61.8698C11.985 62.0901 11.9696 62.3126 11.9712 62.5353C11.9712 64.7372 13.2327 66.4284 15.7556 66.9474C15.9574 66.9893 16.0878 67.027 16.1761 67.0563L15.7556 71.1377V71.1795C15.8532 72.0622 16.6023 72.7303 17.4943 72.7303C18.3862 72.7303 19.1353 72.0622 19.233 71.1795V71.1377L18.8125 66.8847H18.7074V66.5916C18.6998 66.1496 18.5097 65.7302 18.1818 65.4321C18.566 65.4433 18.9463 65.3523 19.2834 65.1684C19.7767 64.8513 20.137 64.3662 20.2968 63.8037L20.4187 63.3349L21.6003 62.6567V62.9498C21.5945 63.6091 21.8533 64.2435 22.3193 64.7121V65.8674C21.7697 66.0036 21.2635 66.2757 20.8476 66.6586L20.5239 66.9474L20.6206 67.5084L20.6668 67.6926C20.8434 68.2158 21.676 68.6512 22.5044 68.6512C22.7668 68.6498 23.0281 68.616 23.2823 68.5507C23.4566 68.7793 23.61 69.0231 23.7406 69.2791C23.902 69.5839 24.122 69.8541 24.3881 70.0744C23.9766 70.5071 23.7698 71.0938 23.8196 71.6876C23.8693 72.2814 24.171 72.8259 24.6488 73.1847C24.4215 73.5103 24.2997 73.8974 24.2998 74.294C24.2882 74.9359 24.5792 75.5463 25.0861 75.9433C25.0099 76.1222 24.9686 76.314 24.9642 76.5084C24.9707 77.0533 25.2478 77.5596 25.7042 77.8605C25.7042 78.4384 26.1749 78.907 26.7555 78.907C27.336 78.907 27.8067 78.4384 27.8067 77.8605C28.2608 77.5571 28.5384 77.0527 28.5509 76.5084C28.5459 76.3145 28.506 76.1231 28.4332 75.9433C28.9391 75.5459 29.2286 74.9354 29.2153 74.294C29.2176 73.8971 29.0956 73.5093 28.8663 73.1847C29.3448 72.8265 29.6472 72.2824 29.6978 71.6885C29.7484 71.0947 29.5423 70.5076 29.1312 70.0744C29.3914 69.8527 29.6057 69.5825 29.7619 69.2791C29.8925 69.0231 30.0459 68.7793 30.2203 68.5507C30.4731 68.6152 30.7329 68.6489 30.994 68.6512C31.8349 68.6512 32.6759 68.2326 32.8357 67.6926C32.8357 67.6549 32.8819 67.5084 32.8819 67.5084L32.9786 66.96L32.6591 66.6586C32.304 66.3413 31.8896 66.0967 31.4397 65.9386V64.8837C32.0387 64.4205 32.3857 63.7049 32.3773 62.9498V62.2088H29.8544C29.0918 61.3849 28.0176 60.9161 26.8921 60.9161C25.7666 60.9161 24.6925 61.3849 23.9298 62.2088H22.374L24.6194 60.9153C24.7152 60.8606 24.7489 60.7393 24.6951 60.6433C24.6384 60.5474 24.5153 60.5139 24.4176 60.5679L20.2127 62.9916L19.8679 62.8995C19.9967 62.6364 20.0792 62.3532 20.1118 62.0623L20.1538 61.5726L23.2108 59.0233C23.2714 58.9787 23.3021 58.9042 23.2903 58.83C23.2784 58.7559 23.226 58.6945 23.1545 58.6709C23.0829 58.6472 23.0041 58.6653 22.9501 58.7177L19.8721 61.2879H19.7292C19.7617 61.1951 19.787 61.0999 19.8048 61.0033L20.8308 59.7935L20.4818 59.467L20.2716 59.2828L21.634 57.667C21.7038 57.5823 21.6925 57.4575 21.6087 57.3865C21.5223 57.3165 21.3956 57.3277 21.3228 57.4116L19.9562 59.0233C19.0215 58.3795 17.9098 58.0388 16.7731 58.0479C16.0154 58.0427 15.2654 58.1997 14.574 58.5084L13.6363 57.3949C13.5643 57.3093 13.4363 57.2981 13.3504 57.3698C13.2645 57.4414 13.2532 57.5689 13.3252 57.6544L14.204 58.6967C13.7815 58.937 13.3998 59.2422 13.0729 59.6009L11.9964 58.7009C11.91 58.631 11.7833 58.6421 11.7105 58.726C11.6759 58.7663 11.659 58.8188 11.6638 58.8716C11.6685 58.9244 11.6945 58.973 11.7357 59.0065L12.8164 59.9149C12.4683 60.3778 12.218 60.9061 12.0805 61.4679L10.5373 60.5805C10.4417 60.5316 10.3243 60.5659 10.2704 60.6586C10.2166 60.7513 10.2452 60.8697 10.3355 60.9279V60.9153ZM24.447 68.94C24.2558 68.5473 24.0094 68.1837 23.7154 67.86C23.4462 67.5963 23.0972 67.8851 22.4959 67.8851C22.088 67.9085 21.6897 67.756 21.4027 67.4665L21.3648 67.2614C21.7429 66.9033 22.2293 66.6796 22.7482 66.6251C23.4378 66.6251 24.3587 66.9726 25.1702 68.5926C25.3507 68.8899 25.6196 69.1239 25.9397 69.2623C25.6518 69.3861 25.371 69.5259 25.0987 69.6809C24.8296 69.4915 24.6103 69.2402 24.4596 68.9484L24.447 68.94ZM24.8801 66.7967H25.3342C25.3342 67.0186 25.3889 67.634 25.3889 67.634C25.2432 67.3412 25.073 67.0611 24.8801 66.7967ZM27.5081 75.6419C27.2708 75.7476 27.051 75.8887 26.8564 76.0605C26.7515 76.1818 26.7519 76.3614 26.8575 76.4822C26.963 76.603 27.1416 76.6284 27.2769 76.5419C27.4021 76.4312 27.544 76.3408 27.6973 76.274C27.7278 76.3615 27.7434 76.4534 27.7436 76.546C27.7206 76.9545 27.4263 77.2972 27.0246 77.3833V77.8019C27.0246 77.9498 26.9041 78.0698 26.7555 78.0698C26.6061 78.0698 26.4844 77.9505 26.4821 77.8019V77.3833C26.0805 77.2972 25.7861 76.9545 25.7631 76.546C25.7658 76.3651 25.815 76.1878 25.9061 76.0312C26.2299 75.5288 26.5915 75.307 27.3105 74.8214C27.3355 74.808 27.3594 74.7926 27.382 74.7754C27.382 74.7754 27.4072 74.7753 27.4156 74.7419C27.5224 74.6475 27.5823 74.5114 27.5796 74.3693C27.5624 74.2125 27.4781 74.0706 27.3483 73.98L27.5292 73.8879C27.7268 73.7916 27.916 73.6995 28.0926 73.5991C28.2796 73.8125 28.3827 74.0861 28.3827 74.3693C28.3722 74.9559 28.0092 75.4789 27.4619 75.6963L27.5081 75.6419ZM27.5628 73.1512L27.2432 73.3144C26.8855 73.4714 26.5422 73.6591 26.2172 73.8754L26.15 73.9256L26.1205 73.9465C25.9736 74.0394 25.8764 74.1931 25.8556 74.3651C25.861 74.5832 25.9919 74.7787 26.192 74.8674C25.9871 75.0102 25.7956 75.1714 25.6201 75.3488C25.2604 75.1298 25.0529 74.7296 25.0819 74.3107C25.088 73.8882 25.2996 73.4949 25.6496 73.2558H25.6748C26.0514 72.9965 26.4479 72.7669 26.8606 72.5693L27.26 72.3558C27.7268 72.113 28.101 71.887 28.101 71.5647C28.101 71.2423 27.8824 71.0288 27.546 70.8405C27.8319 70.7191 28.1136 70.5935 28.3869 70.4553C28.723 70.7263 28.9178 71.1341 28.9168 71.5647C28.9168 72.2972 28.2566 72.7493 27.609 73.0967L27.5628 73.1512ZM26.4065 71.5061C26.4065 71.3095 26.5665 71.1502 26.7639 71.1502C26.9613 71.1502 27.1213 71.3095 27.1213 71.5061C27.1213 71.7026 26.9613 71.8619 26.7639 71.8619C26.5665 71.8619 26.4065 71.7026 26.4065 71.5061ZM32.1251 67.2405L32.0914 67.4456C31.8012 67.7355 31.4002 67.8878 30.9897 67.8642C30.3927 67.8642 30.0437 67.5754 29.7745 67.8391C29.4819 68.1638 29.2357 68.5273 29.0429 68.9191C28.8496 69.2795 28.5581 69.5784 28.2019 69.7814C27.8204 69.9865 27.4273 70.1696 27.0246 70.3298C26.7555 70.4428 26.4864 70.5558 26.2299 70.6772C25.7463 70.9033 25.3889 71.146 25.3889 71.5479C25.3889 71.8284 25.6664 72.0461 26.0532 72.2595C25.7951 72.397 25.5477 72.5538 25.3132 72.7284C24.8896 72.4788 24.6173 72.0369 24.5858 71.5479C24.6029 70.9752 24.9338 70.4578 25.4478 70.2C25.8485 69.9851 26.2629 69.7963 26.6882 69.6349C27.0693 69.4959 27.4367 69.3221 27.7856 69.1158C28.0044 68.9887 28.1846 68.805 28.3071 68.5842C29.1228 66.9642 30.0394 66.6 30.7248 66.6167C31.2456 66.6694 31.7338 66.8933 32.1124 67.253L32.1251 67.2405ZM26.0701 66.7716H27.3904L27.3315 68.6512C27.046 68.8023 26.751 68.9351 26.4485 69.0488L26.1878 69.1535L26.0701 66.7716ZM28.0716 67.6088C28.0716 67.6088 28.1473 66.9809 28.1557 66.7716H28.6098C28.4095 67.0368 28.2296 67.3167 28.0716 67.6088ZM22.2352 62.8493H24.653C24.8853 62.8493 25.0735 63.0367 25.0735 63.2679V63.8498H25.6496V63.2679C25.6379 62.8604 25.373 62.5031 24.9852 62.3721L24.8044 62.3051L24.9642 62.1963C26.1404 61.3776 27.7112 61.4012 28.8621 62.2549L28.9924 62.3512L28.8453 62.4265C28.5294 62.5888 28.3278 62.9099 28.3197 63.2637V63.8456H28.8621V63.2637C28.8621 63.0325 29.0503 62.8451 29.2826 62.8451H31.7004V62.9456C31.6995 63.1489 31.6669 63.3509 31.6037 63.5442H29.9638V63.8121H31.5111C31.2887 64.306 30.7933 64.6216 30.2497 64.6158H29.6106C29.6106 64.7372 29.6106 65.0344 29.6106 65.1558H30.2455H30.5104H30.7585V66.1061H22.9963V65.1558H23.4631H23.7154H24.3503C24.3503 65.026 24.3503 64.7372 24.3503 64.6158H23.7154C23.1714 64.6227 22.6755 64.3067 22.4539 63.8121H23.9676V63.5442H22.332C22.2707 63.3504 22.2381 63.1487 22.2352 62.9456V62.8493ZM18.4761 71.1628C18.3797 71.6227 17.9725 71.9522 17.5006 71.9522C17.0287 71.9522 16.6215 71.6227 16.5251 71.1628L16.8867 67.6256H18.1145L18.4761 71.1628ZM18.9218 64.5865C18.5069 64.7847 18.0359 64.8335 17.5889 64.7246C17.7171 64.2756 18.0018 63.8868 18.392 63.6279C18.8062 63.4273 19.2781 63.3784 19.7249 63.4898C19.5957 63.9383 19.3112 64.3268 18.9218 64.5865ZM18.1902 62.2298C18.5655 61.9604 19.0236 61.8301 19.4853 61.8614C19.4339 62.3174 19.2259 62.7418 18.8966 63.0628C18.5218 63.3297 18.0654 63.4585 17.6057 63.427C17.6562 62.9728 17.8627 62.5499 18.1902 62.2298ZM18.0346 60.8149C18.3333 60.512 18.7289 60.3224 19.1531 60.2791C19.2143 60.7006 19.0925 61.1281 18.818 61.4548C18.5436 61.7815 18.1426 61.9765 17.715 61.9912C17.6853 61.5726 17.8027 61.1567 18.0472 60.8149H18.0346ZM16.7858 58.7972C17.9612 58.7851 19.0985 59.2123 19.973 59.9944L19.8217 60.1744C19.1841 59.8035 18.4576 59.6112 17.7192 59.6177C15.7135 59.6177 14.389 60.9698 14.389 62.64C14.3542 64.0739 15.3758 65.3185 16.7942 65.5702C17.7571 65.7963 17.9337 66.3195 17.9337 66.5958V66.8888H17.0927C17.0465 66.5707 16.7563 66.374 15.9322 66.2065C13.8802 65.7879 12.7365 64.44 12.7365 62.5395C12.7365 60.4758 14.389 58.8014 16.7984 58.8014L16.7858 58.7972ZM16.7984 62.234C17.128 62.5531 17.336 62.9763 17.3871 63.4312C16.926 63.4626 16.4683 63.3339 16.092 63.067C15.7646 62.7445 15.557 62.3209 15.5033 61.8656C15.9649 61.8343 16.423 61.9646 16.7984 62.234ZM15.8018 60.2791C16.222 60.3235 16.6133 60.5131 16.9077 60.8149C17.1548 61.1558 17.2752 61.5716 17.2483 61.9912C16.827 61.9463 16.4345 61.7568 16.1382 61.4554C15.8935 61.1134 15.7747 60.698 15.8018 60.2791ZM16.5671 63.6279C16.9494 63.8848 17.2291 64.267 17.3576 64.7079C16.9092 64.8167 16.4369 64.7679 16.0205 64.5698C15.6419 64.3091 15.3632 63.9284 15.23 63.4898C15.6782 63.3785 16.1514 63.4274 16.5671 63.6279Z" fill="#261F1F"/>
<path d="M53.2502 65.5535L51.85 62.4558C52.5469 62.3775 53.09 61.818 53.1448 61.1219C53.1995 60.4258 52.7504 59.789 52.0742 59.6037C51.398 59.4185 50.6849 59.7369 50.3741 60.3628C48.5282 60.434 47.0397 60.1828 45.959 59.5967C46.0008 59.4524 46.0234 59.3032 46.0263 59.153C46.0263 58.1728 45.2281 57.3781 44.2435 57.3781C43.2588 57.3781 42.4606 58.1728 42.4606 59.153C42.4645 59.3028 42.4856 59.4517 42.5237 59.5967C41.443 60.1828 39.9629 60.434 38.117 60.3628C37.8063 59.7383 37.0948 59.4203 36.4195 59.6042C35.7443 59.7881 35.2945 60.4224 35.3464 61.1174C35.3984 61.8124 35.9375 62.3734 36.6327 62.4558L35.2367 65.5535H34.5891V66.2819C34.5914 67.6865 35.7347 68.8247 37.1457 68.827C37.6417 68.8234 38.1262 68.6781 38.5417 68.4084L37.049 70.6521V70.6772L36.8681 71.7823L41.6701 72.7409C41.6112 72.9879 42.0906 73.2935 42.3807 73.373C42.6322 73.434 42.8964 73.4164 43.1376 73.3228L43.2721 75.1856V75.1353C43.3062 75.6572 43.7413 76.063 44.2666 76.063C44.7918 76.063 45.2269 75.6572 45.261 75.1353L45.3493 73.8335L48.0867 74.7126L50.4456 68.94V68.6051C50.7388 68.7205 51.0512 68.7801 51.3665 68.7809C52.7791 68.7809 53.9249 67.6421 53.9272 66.2358V65.5535H53.2502ZM52.6195 65.5535H50.0377L51.2992 62.7153L52.6195 65.5535ZM49.2556 67.7553C49.0318 67.7377 48.8096 67.7028 48.5913 67.6507C48.1756 67.5391 47.7866 67.3455 47.4475 67.0814C47.0975 66.8077 46.6956 66.607 46.266 66.4912C46.1278 66.4608 45.987 66.444 45.8455 66.4409L46.1272 62.4684H50.803L49.4112 65.5535H48.7763V66.2819C48.7774 66.8115 48.9466 67.3272 49.2598 67.7553H49.2556ZM37.1457 62.7321L38.4071 65.5702H35.8674L37.1457 62.7321ZM39.0589 65.5702L37.6671 62.4851H42.3344L42.5951 66.1019C41.9572 66.1401 41.3237 65.9743 40.7871 65.6288L40.5053 65.4237L40.3119 65.7167L39.6475 66.713C39.6749 66.5751 39.6904 66.435 39.6938 66.2944V65.5535L39.0589 65.5702ZM37.1457 68.1195C36.6587 68.1173 36.1926 67.9223 35.8503 67.5776C35.5079 67.2328 35.3174 66.7666 35.3208 66.2819H38.979C38.9767 67.2882 38.1565 68.1028 37.1457 68.1028V68.1195ZM42.612 72.3433C42.4648 71.8978 42.1232 71.5424 41.6827 71.3763C41.2236 71.277 40.7496 71.267 40.2867 71.347C39.7194 71.4297 39.142 71.4155 38.5795 71.3051C38.2969 71.2289 38.0265 71.1134 37.7764 70.9619C38.0749 70.5056 40.4254 66.7758 40.7198 66.3572C41.006 66.5003 41.308 66.6099 41.6196 66.6837C41.9575 66.759 42.3044 66.7857 42.6498 66.7633L43.0367 72.1214C42.8822 72.1709 42.7393 72.2506 42.6162 72.3558L42.612 72.3433ZM44.5168 75.1898C44.5168 75.3354 44.3982 75.4535 44.2519 75.4535C44.1056 75.4535 43.987 75.3354 43.987 75.1898L43.0198 61.7567H36.8093C36.5096 61.7567 36.2395 61.5768 36.1252 61.301C36.0109 61.0251 36.075 60.7079 36.2875 60.4976C36.5 60.2872 36.819 60.2252 37.0954 60.3405C37.3718 60.4559 37.551 60.7258 37.5493 61.0242C37.5514 61.0409 37.5514 61.0577 37.5493 61.0744C38.8907 61.1665 41.6028 61.2419 43.4698 59.873C43.2923 59.678 43.1935 59.4246 43.1922 59.1614C43.1909 58.6903 43.5046 58.276 43.9599 58.1475C44.4151 58.0191 44.9006 58.2079 45.1477 58.6096C45.3948 59.0114 45.3432 59.5277 45.0213 59.873C46.8925 61.2419 49.613 61.1665 50.9502 61.0744C50.9502 61.0744 50.9502 61.0409 50.9502 61.0242C50.9485 60.7258 51.1277 60.4559 51.4041 60.3405C51.6805 60.2252 51.9995 60.2872 52.212 60.4976C52.4246 60.7079 52.4887 61.0251 52.3744 61.301C52.2601 61.5768 51.9899 61.7567 51.6902 61.7567H45.4671L44.5168 75.1898ZM47.4602 73.5698C47.2319 73.5849 47.0026 73.5679 46.779 73.5195C46.4594 73.44 45.9843 73.013 45.425 72.7493L45.8455 67.1149C45.9474 67.1181 46.0487 67.1307 46.1482 67.1526C46.4966 67.2527 46.8221 67.419 47.107 67.6423C47.5122 67.9555 47.9771 68.1834 48.4735 68.3121C48.8662 68.4104 49.2652 68.4817 49.6677 68.5256C49.3902 69.254 47.4644 73.5698 47.4644 73.5698H47.4602ZM51.3707 68.1279C50.3598 68.1279 49.5397 67.3133 49.5374 66.307H53.204C53.2017 67.3133 52.3815 68.1279 51.3707 68.1279Z" fill="#261F1F"/>
<path d="M13.4976 46.4316C13.4976 49.2154 15.6504 50.4837 17.4754 51.1367C17.5216 51.4108 17.686 51.6509 17.9253 51.794C17.8155 51.8769 17.7251 51.9826 17.6604 52.1037C17.5262 52.3343 17.4914 52.609 17.5637 52.8656C17.628 53.0849 17.766 53.2755 17.9547 53.4056C17.488 53.7237 16.8026 54.1967 16.8026 54.9628V55.5405H22.5716V54.9628C22.5716 54.067 21.6255 53.6107 21.2009 53.2507C21.121 53.1837 21.0158 53.0916 20.9486 53.0247V52.966C20.9486 52.966 21.9367 52.7274 21.9367 51.9321C21.9286 51.5806 21.7438 51.2567 21.4447 51.0698C21.5545 50.989 21.6461 50.8863 21.7138 50.7684C21.8445 50.535 21.8778 50.2599 21.8064 50.0023C21.7636 49.8483 21.6875 49.7054 21.5835 49.5837C21.7601 49.4833 21.9451 49.3786 22.0797 49.2823C22.8912 48.7005 24.0097 47.9051 24.0097 46.4023V44.8326H22.2142L22.3067 44.3302C22.5101 44.2163 22.7348 44.145 22.9669 44.1209C23.2192 44.1209 23.4757 44.3344 23.7406 44.3344C24.0055 44.3344 24.0728 44.1963 24.0728 44.1293C24.0728 44.0623 23.9256 44.0414 23.77 44.0414C23.5514 44.0414 23.2991 43.7233 22.929 43.7233C22.7323 43.7393 22.5379 43.7757 22.3488 43.8321C22.0506 43.547 21.7331 43.2826 21.3985 43.0409H24.8759V55.5405H28.614V43.0409H32.5035V39.3195H28.6224V34.8656H24.8843V39.3195H20.999V42.8442C20.7036 42.7186 20.3899 42.6408 20.0697 42.614C19.6721 42.6203 19.2756 42.6581 18.884 42.727C18.3089 42.626 17.727 42.5687 17.1432 42.5553C15.0644 42.6304 13.4361 44.3617 13.4976 46.4316ZM21.7643 40.0814H25.6496V35.6274H27.8571V40.0814H31.734V42.2791H27.8571V54.9544H25.6496V42.2791H21.7643V40.0814ZM21.7643 54.854V54.9502H17.6099V54.8372C17.6099 54.4186 18.6233 53.9079 19.048 53.4767L20.1454 53.1754C20.1791 53.6484 21.7643 54.3098 21.7643 54.8498V54.854ZM18.3542 50.5591L20.7425 49.8935C20.9299 49.8947 21.0938 50.0193 21.1445 50.1988C21.1952 50.3784 21.1204 50.5697 20.9612 50.6679L18.5686 51.3335C18.382 51.3304 18.2198 51.2053 18.1702 51.0262C18.1206 50.8471 18.1955 50.6569 18.3542 50.5591ZM21.0243 52.3256L18.6359 52.987C18.4222 53.0395 18.204 52.919 18.1355 52.7107C18.0853 52.4993 18.2058 52.2848 18.413 52.2167L20.8056 51.5512C20.9929 51.5524 21.1569 51.6769 21.2076 51.8565C21.2583 52.036 21.1835 52.2273 21.0243 52.3256ZM23.2066 45.6279V46.4274C23.2066 47.52 22.3656 48.1019 21.6171 48.6544C21.3102 48.8721 20.671 49.2907 20.671 49.2907L19.0984 49.7093C18.8419 49.2907 18.2196 48.9977 17.7318 48.646C16.9876 48.1144 16.1424 47.5116 16.1424 46.4191V45.6279H23.2066ZM17.1306 43.3507C17.6743 43.3366 18.2174 43.3958 18.7452 43.5265C19.1791 43.456 19.6176 43.4168 20.0571 43.4093C20.772 43.4093 21.5036 44.1293 21.5036 44.1293L21.4405 44.5144C21.4405 44.5144 21.0957 44.933 20.095 44.933C19.5021 44.933 19.0059 44.5479 18.6023 44.4181C18.1214 44.2789 17.6229 44.2098 17.1221 44.213C16.5627 44.2432 16.0385 44.4944 15.6658 44.911C15.2932 45.3275 15.103 45.8749 15.1375 46.4316C15.1375 47.6874 15.8649 48.307 16.6049 48.8554C17.4459 49.4916 18.0472 49.7512 18.2869 49.9521L18.1734 49.9856C17.9617 50.0464 17.7757 50.1743 17.6435 50.3498C16.092 49.7721 14.2797 48.7298 14.2797 46.4316C14.2409 45.648 14.5195 44.8816 15.053 44.3041C15.5864 43.7265 16.3303 43.3861 17.1179 43.3591L17.1306 43.3507Z" fill="#261F1F"/>
<path d="M54.0786 46.8837C54.0786 44.9916 52.7372 43.7191 50.7441 43.7191H48.2212L46.9598 40.567C47.1021 40.2363 47.1751 39.8802 47.1742 39.5205C47.1718 38.4072 46.4966 37.4049 45.4629 36.9802C44.4292 36.5556 43.2404 36.7921 42.4501 37.5796C41.6598 38.3672 41.4233 39.5509 41.8509 40.5795L40.6147 43.7191H38.0665C36.0734 43.7191 34.7321 44.9749 34.7321 46.8837C34.739 48.3917 35.9714 49.6093 37.4862 49.6047C37.7846 49.6062 38.0804 49.5493 38.3567 49.4372L37.2298 52.3005L36.2542 54.7702C36.0103 55.4023 36.4266 55.5781 36.4266 55.5781L36.9943 55.8712C37.3433 56.0553 37.6292 55.8084 37.81 55.4902L38.4534 54.3684V54.653H50.3573V54.3558L51.0091 55.4902C51.1899 55.8084 51.4758 56.0553 51.8248 55.8712L52.3882 55.5781C52.3882 55.5781 52.8087 55.4023 52.5648 54.7702L51.5893 52.3005L50.4582 49.4205C50.7258 49.5269 51.0111 49.5823 51.2992 49.5837C52.8131 49.5861 54.0441 48.3699 54.0534 46.8628L54.0786 46.8837ZM44.3822 37.5488C45.1787 37.5301 45.9072 37.9933 46.2252 38.7206C46.5431 39.4478 46.387 40.2943 45.8305 40.8618C45.2739 41.4293 44.4276 41.6048 43.6897 41.3057C42.9518 41.0067 42.4692 40.2927 42.469 39.4995C42.469 38.4238 43.3437 37.5511 44.4243 37.5488H44.3822ZM37.4862 48.78C36.4261 48.7847 35.5597 47.939 35.5436 46.8837C35.5436 45.427 36.5065 44.5228 38.0665 44.5228H40.2951L39.5256 46.4651C39.2542 45.7677 38.5693 45.3177 37.8184 45.3433C37.4344 45.325 37.0595 45.4634 36.7802 45.7264C36.5009 45.9895 36.3413 46.3545 36.3383 46.7372C36.3239 47.0745 36.4522 47.4023 36.6919 47.641C36.9317 47.8797 37.261 48.0074 37.5998 47.993C37.7792 47.9409 37.9025 47.7772 37.9025 47.5912C37.9025 47.4051 37.7792 47.2414 37.5998 47.1893C37.4735 47.2027 37.3479 47.1584 37.2581 47.069C37.1682 46.9796 37.1238 46.8546 37.1372 46.7288C37.1434 46.5594 37.2196 46.3999 37.3477 46.2882C37.4759 46.1765 37.6447 46.1223 37.8142 46.1386C38.487 46.1386 38.8907 46.5991 38.8907 47.3693C38.9038 47.7425 38.7603 48.1043 38.4947 48.3679C38.2291 48.6315 37.8653 48.7733 37.4905 48.7591L37.4862 48.78ZM37.1667 55.08L36.9648 54.9753C36.9648 54.9753 40.6946 45.5065 42.3555 41.3037C42.6088 41.5907 42.9196 41.8217 43.2679 41.9819L43.9869 43.2377L37.1667 55.08ZM44.1215 44.4809H44.706L46.081 46.8712H42.7465L44.1215 44.4809ZM40.6315 53.8995H39.2607V52.9242L40.6273 50.5507L40.6315 53.8995ZM47.3214 53.8995H45.959V48.8763C45.959 48.6382 45.7651 48.4451 45.5259 48.4451C45.2867 48.4451 45.0928 48.6382 45.0928 48.8763V53.8995H43.7305V48.8763C43.7305 48.6358 43.5347 48.4409 43.2931 48.4409C43.0516 48.4409 42.8558 48.6358 42.8558 48.8763V53.8995H41.4893V49.0688L42.2798 47.6916H46.5393L47.3172 49.0479L47.3214 53.8995ZM49.55 53.8995H48.1876V50.5507L49.55 52.9242V53.8995ZM51.8416 54.9753L51.644 55.08L44.2434 42.2372C44.2981 42.2372 44.3486 42.2372 44.4032 42.2372C45.1876 42.2347 45.9339 41.8998 46.4552 41.3163C48.1119 45.5233 51.8458 54.9795 51.8374 54.9795L51.8416 54.9753ZM49.9242 47.3735C49.9242 46.6033 50.3447 46.1428 50.9964 46.1428C51.1663 46.1253 51.3358 46.1789 51.4642 46.2909C51.5927 46.4029 51.6685 46.5631 51.6734 46.733C51.6866 46.858 51.6427 46.9822 51.5539 47.0714C51.4651 47.1607 51.3407 47.2055 51.2151 47.1935C51.0357 47.2456 50.9123 47.4093 50.9123 47.5953C50.9123 47.7814 51.0357 47.9451 51.2151 47.9972C51.5539 48.0116 51.8832 47.8839 52.123 47.6452C52.3627 47.4065 52.491 47.0787 52.4765 46.7414C52.4736 46.3579 52.3135 45.9922 52.0332 45.729C51.753 45.4659 51.377 45.328 50.9922 45.3474C50.2519 45.3288 49.5793 45.7741 49.3103 46.4609L48.5324 44.4935H50.7568C52.3126 44.4935 53.2797 45.3977 53.2797 46.8544C53.2727 47.9186 52.4018 48.7763 51.3328 48.7716C50.958 48.7858 50.5942 48.6441 50.3286 48.3805C50.0629 48.1168 49.9195 47.755 49.9326 47.3819L49.9242 47.3735Z" fill="#261F1F"/>
<path fill-rule="evenodd" clip-rule="evenodd" d="M20.2043 44.2549C20.3172 44.2527 20.4081 44.1621 20.4103 44.0498C20.4103 43.9365 20.3181 43.8447 20.2043 43.8447C20.15 43.8446 20.0981 43.8664 20.0601 43.905C20.0221 43.9436 20.0013 43.9958 20.0025 44.0498C20.0024 44.1614 20.0922 44.2526 20.2043 44.2549Z" fill="#261F1F"/>
<path d="M43.6506 20.5326C43.6903 20.8318 43.8277 21.1098 44.0416 21.3237C44.2919 21.4808 44.5639 21.6006 44.8489 21.6795C44.8489 21.5498 44.8195 21.4284 44.8195 21.2986C44.8195 19.846 46.2239 18.9544 46.2239 18.9544C46.2589 18.8746 46.2871 18.792 46.308 18.7074L46.1398 17.7488C46.1398 17.6149 46.1398 17.5605 45.9548 17.5981L45.1138 17.7614C44.6273 18.3383 44.0788 18.8605 43.4782 19.3186C43.6137 19.7067 43.6639 20.1193 43.6253 20.5284L43.6506 20.5326ZM44.1509 19.4819C44.6096 19.1184 45.032 18.7119 45.4124 18.2679L45.5133 18.2344L45.6899 18.2009V18.2679C45.7151 18.3893 45.7362 18.5149 45.7488 18.6153V18.653L45.7151 18.6781C45.0363 19.1504 44.5511 19.8504 44.3486 20.6498L44.3023 20.8633L44.214 20.6623L44.1888 20.5995C44.1888 20.5535 44.1678 20.2605 44.1678 20.2605C44.1678 20.2605 44.1678 20.1767 44.1678 20.1349C44.1661 19.9391 44.1436 19.744 44.1005 19.553V19.5112L44.1509 19.4819Z" fill="#261F1F"/>
<path fill-rule="evenodd" clip-rule="evenodd" d="M46.6738 17.054C46.7472 17.5331 46.7782 18.0178 46.7664 18.5023C47.0216 18.2881 47.1941 17.9921 47.2541 17.6651C47.2392 17.2162 47.1772 16.77 47.0691 16.334C47.0271 16.267 46.5267 15.6474 46.2786 15.6474C46.1651 15.6474 46.0137 15.8065 45.9212 16.066C45.7862 16.3209 45.6374 16.5682 45.4755 16.807V16.8865C45.8413 16.8865 46.6066 16.8865 46.6738 17.0581" fill="#261F1F"/>
<path fill-rule="evenodd" clip-rule="evenodd" d="M15.1669 23.5549L15.8144 24.346C16.1619 24.0694 16.5287 23.8176 16.9119 23.5926C16.9073 23.541 16.9073 23.4892 16.9119 23.4377C16.9109 23.3121 16.9323 23.1874 16.975 23.0693C17.0702 22.797 17.2741 22.5759 17.5384 22.4581C17.6774 22.3914 17.8298 22.3571 17.9841 22.3577C18.3067 22.3531 18.6147 22.491 18.8251 22.7344C19.2083 22.6016 19.6003 22.4953 19.9983 22.4163L19.7628 21.4158C18.0725 21.7304 16.4899 22.4664 15.1627 23.5549" fill="#261F1F"/>
<path fill-rule="evenodd" clip-rule="evenodd" d="M13.6195 21.5833L14.246 22.3995C14.7504 21.9926 15.2893 21.6298 15.8565 21.3153C15.8497 21.2724 15.8497 21.2286 15.8565 21.1856C15.8565 20.7668 16.0988 20.3855 16.4788 20.206C16.6148 20.1378 16.7639 20.0992 16.9161 20.093C17.2209 20.0942 17.511 20.2234 17.715 20.4488C18.2899 20.2409 18.8805 20.0785 19.4811 19.9633C19.4474 19.8377 19.254 18.9586 19.254 18.9586C17.1838 19.3399 15.245 20.2387 13.6195 21.5707" fill="#261F1F"/>
<path fill-rule="evenodd" clip-rule="evenodd" d="M14.7969 19.0381C14.7928 19.0034 14.7928 18.9683 14.7969 18.9335C14.7997 18.5144 15.0431 18.1338 15.4234 17.954C15.8418 17.7585 16.3389 17.8531 16.6554 18.1884C17.3908 17.9058 18.149 17.686 18.9218 17.5312C18.8167 17.1126 18.7494 16.8698 18.7074 16.7358C18.6386 16.7347 18.5698 16.7375 18.5013 16.7442C18.1543 16.7577 17.8101 16.8111 17.4754 16.9033L17.3156 16.9451C16.973 17.0493 16.6182 17.1084 16.2602 17.1209C15.768 17.1441 15.2917 16.944 14.9651 16.5767C14.8095 16.4009 14.759 16.3842 14.7464 16.3842C14.7082 16.393 14.6714 16.4071 14.6371 16.426C14.5278 16.4805 14.5278 16.4805 14.5278 16.5684C14.5228 16.6353 14.5228 16.7024 14.5278 16.7693C14.5409 16.851 14.5479 16.9335 14.5488 17.0163C14.5488 17.9456 13.7078 18.5233 13.2873 18.7995L13.1528 18.8958C12.8042 19.1181 12.4992 19.4018 12.2529 19.733C12.3286 19.8544 12.4716 20.0595 12.7281 20.4112C13.3712 19.8985 14.0594 19.4446 14.7843 19.0549" fill="#261F1F"/>
<path d="M37.5241 19.6744L38.7855 20.0177C38.9832 19.2551 39.4392 18.5838 40.0764 18.1172C39.6221 17.6013 39.2007 17.0574 38.815 16.4888C38.2641 16.7233 37.6923 16.9074 37.4442 17.0079C37.5708 17.5895 37.6315 18.1835 37.625 18.7786C37.6266 19.0801 37.5927 19.3808 37.5241 19.6744ZM38.651 17.0498C38.9201 17.4349 39.1934 17.7781 39.4331 18.0628C39.0037 18.4397 38.6781 18.9195 38.487 19.4567L38.0665 19.3395C38.0915 19.1536 38.1042 18.9662 38.1044 18.7786C38.1014 18.2875 38.0578 17.7975 37.974 17.3135C38.2053 17.234 38.4323 17.146 38.672 17.0498" fill="#261F1F"/>
<path d="M26.7891 18.0963C27.4267 18.5644 27.8826 19.2371 28.08 20.0009C28.3323 19.934 28.8957 19.7833 29.3415 19.6577C29.2729 19.364 29.239 19.0634 29.2405 18.7619C29.2411 18.1664 29.3059 17.5728 29.434 16.9912C29.1901 16.9074 28.6182 16.7065 28.0674 16.4721C27.6843 17.0413 27.2629 17.5839 26.8059 18.0963M28.9294 17.2967C28.8458 17.7808 28.8022 18.2708 28.799 18.7619C28.7991 18.9481 28.8117 19.1341 28.8369 19.3186L28.4164 19.44C28.2204 18.9042 27.8939 18.4252 27.4661 18.046C27.7058 17.7614 27.9749 17.4181 28.2524 17.033C28.4879 17.1293 28.7149 17.2172 28.9462 17.2967" fill="#261F1F"/>
<path d="M27.4745 23.1907C28.6382 22.9951 29.7698 22.643 30.8384 22.1442C30.345 21.673 29.9368 21.1207 29.6316 20.5116C29.4129 20.5828 28.9924 20.6958 28.1935 20.9051C28.2174 21.7321 27.9645 22.5435 27.4745 23.2116M28.635 21.2651L29.3961 21.06C29.5862 21.3974 29.8087 21.7156 30.0605 22.0102C29.5145 22.2306 28.9522 22.4084 28.3785 22.5419C28.5368 22.1406 28.6291 21.7165 28.6518 21.286" fill="#261F1F"/>
<path d="M32.3437 22.2321C32.6937 22.4719 33.0573 22.6914 33.4328 22.8893C33.8131 22.6977 34.1786 22.478 34.526 22.2321C34.0867 21.8845 33.716 21.4587 33.4328 20.9763C33.1516 21.4589 32.7823 21.8848 32.3437 22.2321ZM33.4328 21.7674C33.5379 21.8972 33.6514 22.027 33.7734 22.1526C33.643 22.2321 33.5253 22.2991 33.4328 22.3493C33.3361 22.2991 33.2183 22.2321 33.0922 22.1526C33.2125 22.0303 33.3261 21.9017 33.4328 21.7674Z" fill="#261F1F"/>
<path d="M27.7268 15.3167C28.086 14.7492 28.3117 14.1081 28.387 13.4414C28.387 13.1233 28.1178 12.5372 27.6763 12.5372C27.2348 12.5372 26.7891 13.1819 26.7891 13.8684C26.8349 14.4782 27.1879 15.0233 27.7268 15.3167ZM27.6763 12.9977C27.8151 12.9977 27.9286 13.3284 27.9286 13.4414C27.8973 13.8516 27.7768 14.2501 27.5754 14.6093C27.3668 14.4192 27.2491 14.1499 27.2516 13.8684C27.2516 13.4205 27.5039 12.9977 27.6721 12.9977" fill="#261F1F"/>
<path d="M39.3911 23.1907C38.9055 22.5209 38.6571 21.7097 38.6846 20.8842C37.8857 20.6749 37.4652 20.5619 37.2508 20.4907C36.9488 21.1058 36.5435 21.665 36.0524 22.1442C37.1211 22.6426 38.2527 22.9946 39.4163 23.1907M37.4947 21.0391L38.2557 21.2442C38.2805 21.6744 38.3727 22.0981 38.5291 22.5C37.9556 22.3659 37.3933 22.1882 36.8471 21.9684C37.0999 21.6745 37.3224 21.3562 37.5115 21.0181" fill="#261F1F"/>
<path d="M31.1159 19.1637C31.1637 19.1497 31.2101 19.1315 31.2547 19.1093V19.0633C31.2502 18.8625 31.3896 18.6868 31.5868 18.6447C31.6244 18.638 31.6628 18.638 31.7004 18.6447C31.8984 18.6507 32.0691 18.785 32.1209 18.9753C32.1924 19.4599 31.8773 19.9176 31.3976 20.026L30.523 20.2814C30.8059 20.8123 31.1835 21.2875 31.6373 21.6837C32.4993 21.0558 32.9366 20.3191 32.9366 19.4944C32.9366 18.3265 31.6751 17.7865 30.2791 17.3009C30.1893 17.7912 30.1442 18.2886 30.1446 18.787C30.1427 19.0083 30.1682 19.229 30.2203 19.4442L31.1159 19.1637ZM32.5455 19.4316C32.5455 19.4316 32.6296 20.1935 31.6793 21.0265C31.5297 20.8672 31.3893 20.6995 31.2589 20.5242C32.4236 20.2186 32.5498 19.4316 32.5498 19.4316H32.5455ZM30.6702 17.9037C31.2 18.0753 31.734 18.293 31.734 18.293C31.3737 18.2727 31.0324 18.4555 30.851 18.766L30.6281 18.8288C30.6281 18.8037 30.6281 18.7828 30.6281 18.7619C30.6306 18.4821 30.6475 18.2027 30.6786 17.9247L30.6702 17.9037Z" fill="#261F1F"/>
<path d="M40.0806 13.8684C40.0806 13.1819 39.6602 12.5372 39.1892 12.5372C38.7183 12.5372 38.4786 13.1233 38.4786 13.4414C38.5538 14.1081 38.7795 14.7492 39.1388 15.3167C39.6787 15.0238 40.0332 14.4788 40.0806 13.8684ZM39.1892 12.9977C39.3616 12.9977 39.6097 13.4163 39.6097 13.8684C39.6123 14.1499 39.4946 14.4192 39.2859 14.6093C39.0851 14.2501 38.966 13.8514 38.9369 13.4414C38.9369 13.3284 39.0504 12.9977 39.185 12.9977" fill="#261F1F"/>
<path d="M35.2409 21.6586C35.6935 21.2613 36.0709 20.7863 36.3551 20.2563L35.4679 20.0009C34.9928 19.887 34.6831 19.4317 34.7531 18.9502C34.806 18.7606 34.9761 18.6269 35.1736 18.6195C35.2126 18.6131 35.2523 18.6131 35.2913 18.6195C35.4886 18.6617 35.628 18.8373 35.6235 19.0381C35.6235 19.0381 35.6235 19.0716 35.6235 19.0842C35.6666 19.1064 35.7116 19.1247 35.7581 19.1386L36.6537 19.394C36.7038 19.1784 36.7292 18.958 36.7294 18.7367C36.7259 18.2463 36.6766 17.7572 36.5822 17.2758C35.1778 17.7614 33.9247 18.3014 33.9247 19.4693C33.9247 20.3065 34.3452 21.0307 35.2282 21.6586M36.1996 17.8912C36.2307 18.1692 36.2475 18.4486 36.25 18.7284C36.2521 18.7507 36.2521 18.7731 36.25 18.7953L36.0314 18.7326C35.8496 18.4218 35.5091 18.2378 35.1484 18.2553C35.1484 18.2553 35.6824 18.0419 36.208 17.8702M34.3284 19.3981C34.3284 19.3981 34.4798 20.2186 35.6235 20.5116C35.4965 20.6883 35.356 20.8548 35.203 21.0098C34.2527 20.1726 34.3368 19.4191 34.3368 19.4191" fill="#261F1F"/>
<path fill-rule="evenodd" clip-rule="evenodd" d="M50.5928 22.7595L50.7694 21.353L52.1822 21.1102L50.8787 20.4907L51.0679 19.0842L50.0756 20.1181L48.7847 19.5279L48.7889 19.5363L49.4617 20.7544L48.4651 21.7884L49.8948 21.5163L50.5928 22.7595Z" fill="#261F1F"/>
<path d="M46.123 20.5493C46.0147 20.7872 45.9601 21.0458 45.9632 21.307C45.9672 21.8866 46.2443 22.4306 46.7117 22.7763L47.3592 23.2451C47.765 23.488 48.1285 23.7948 48.4357 24.1535L48.5324 24.2874H48.8183C49.258 24.3158 49.692 24.4017 50.1092 24.5428L50.8493 24.7312C51.0027 24.764 51.1591 24.7808 51.316 24.7814C51.7599 24.785 52.1896 24.6255 52.5228 24.3335C52.7167 24.1738 52.8732 23.9738 52.9811 23.7474C53.113 23.4442 53.172 23.1146 53.1535 22.7847V22.2572C53.1486 21.9564 53.1768 21.656 53.2376 21.3614C53.2376 21.2986 53.2671 21.2358 53.2839 21.1688L53.3554 20.9888C53.5907 20.592 53.9451 20.2787 54.3687 20.093L54.5495 19.9465L54.4402 19.2014L54.2216 19.1637C53.9527 19.1148 53.6913 19.0318 53.4437 18.9167C53.2208 18.8121 52.3924 18.2888 52.3924 17.6065C52.3886 17.5605 52.3886 17.5143 52.3924 17.4684C52.4072 17.3925 52.4157 17.3154 52.4177 17.2381C52.4289 17.0159 52.2894 16.8137 52.0771 16.7442C51.9946 16.6984 51.9024 16.6726 51.808 16.6688C51.6062 16.6921 51.4257 16.8043 51.316 16.9744C51.1142 17.1967 50.8217 17.3154 50.5213 17.2967C50.2354 17.2816 49.9527 17.2296 49.6803 17.1419C49.3883 17.0383 49.1187 16.8806 48.8856 16.6772L48.7132 16.5265L48.5198 16.6521L48.2212 16.8279L48.032 16.9367L48.0741 17.146C48.124 17.3759 48.1521 17.61 48.1582 17.8451C48.1649 18.068 48.1218 18.2896 48.032 18.494L47.9353 18.674C47.9055 18.723 47.8733 18.7705 47.8386 18.8163C47.5872 19.1327 47.2945 19.4143 46.9682 19.6535C46.6185 19.8845 46.33 20.1961 46.1272 20.5619M48.3852 18.9586C48.8562 18.2763 48.6291 17.2005 48.6291 17.2005H48.6543C48.9081 17.3978 49.192 17.5533 49.4953 17.6609C49.83 17.769 50.1781 17.831 50.5297 17.8451C50.9883 17.855 51.4264 17.6562 51.7197 17.3051C51.7577 17.2595 51.8 17.2174 51.8458 17.1795C51.8661 17.2421 51.8661 17.3095 51.8458 17.3721C51.84 17.4445 51.84 17.5173 51.8458 17.5898C51.8458 18.5484 52.8298 19.2098 53.2082 19.3856C53.4479 19.4969 53.6988 19.5825 53.9567 19.6409V19.6744C53.4591 19.9108 53.0626 20.3159 52.8382 20.8172C52.3294 21.847 52.733 23.04 52.4765 23.513C52.2522 23.9521 51.7982 24.2275 51.3034 24.2247C51.1833 24.2243 51.0635 24.2117 50.946 24.187L50.2312 24.0028C49.7707 23.8477 49.2911 23.7562 48.8057 23.7307H48.7763C48.4438 23.3684 48.0633 23.0529 47.6452 22.793L47.0102 22.3367C46.6696 22.0688 46.2029 21.4284 46.5898 20.767C46.9766 20.1056 47.7167 19.8712 48.3642 18.9377" fill="#261F1F"/>
<path fill-rule="evenodd" clip-rule="evenodd" d="M24.6194 22.0521C25.0147 22.0521 24.9642 21.6335 25.1156 21.4619C25.267 21.2902 25.7001 21.3698 25.7001 20.9637C25.7001 20.5577 25.2796 20.6079 25.1156 20.4656C24.9516 20.3233 25.0399 19.8753 24.6194 19.8753C24.3629 19.8753 24.2242 20.0763 24.2242 20.3693V21.5581C24.2242 21.8428 24.3587 22.0521 24.6194 22.0521Z" fill="#261F1F"/>
<path fill-rule="evenodd" clip-rule="evenodd" d="M11.5003 26.2591C11.2774 26.0749 11.0335 26.0456 10.8695 26.2591C10.6172 26.5647 10.9873 26.8033 11.0041 27.0167C11.0209 27.2302 10.7055 27.5233 11.0041 27.7828C11.3026 28.0423 11.576 27.6572 11.7736 27.6279C11.9712 27.5986 12.274 27.946 12.5431 27.6279C12.7071 27.427 12.6398 27.2093 12.4127 27.0084L11.5003 26.2591Z" fill="#261F1F"/>
<path d="M60.9073 37.7079C61.9295 37.4626 62.6505 36.5529 62.6523 35.506C62.6523 34.8279 62.3748 33.8526 61.0671 33.0405C60.9012 32.9367 60.7284 32.8444 60.5499 32.7642C61.4244 32.5248 62.0237 31.7246 62.0047 30.8219C61.9977 30.3831 61.7306 29.99 61.324 29.8203C60.9175 29.6506 60.4486 29.7365 60.1294 30.0391C59.9532 30.2184 59.8422 30.4512 59.814 30.7005C59.3656 30.8246 58.8993 30.8728 58.4348 30.8428C58.0742 30.8387 57.7161 30.7837 57.371 30.6795C57.7564 30.4342 58.1181 30.154 58.4516 29.8423C58.6871 29.6163 59.3263 29.4237 59.608 28.9633C60.2162 28.019 60.6545 26.9764 60.9031 25.8823C61.0313 25.3575 61.0963 24.8192 61.0965 24.2791C61.0932 23.9139 61.058 23.5498 60.9914 23.1907L60.9283 22.6967C60.8947 22.3033 60.7979 21.2651 59.8897 20.9637C59.8897 20.9637 58.3087 18.6028 58.2624 18.5233C58.2162 18.4437 58.1321 18.427 58.0732 18.494L57.3962 19.2767C57.1647 19.2829 56.9364 19.3326 56.7234 19.4233C56.6808 19.3621 56.6299 19.3072 56.5721 19.26C56.5234 19.2163 56.4698 19.1783 56.4123 19.147L56.1348 17.347L55.9329 17.3805L54.9658 17.5437C54.7759 17.5101 54.5918 17.4495 54.4192 17.3637C54.3073 17.2991 54.2053 17.2187 54.1164 17.1251C54.1297 17.0378 54.1367 16.9497 54.1375 16.8614C54.1577 15.9822 53.6237 15.1843 52.8009 14.8641C51.9782 14.544 51.0422 14.77 50.4582 15.4298C50.3262 15.4086 50.1956 15.3792 50.0672 15.3419C49.9094 15.2916 49.7655 15.2056 49.6467 15.0907L49.037 14.0358L47.5737 14.9065C46.6991 14.1949 46.3122 13.9521 45.7572 14.1656C45.5325 14.2677 45.3362 14.4229 45.1853 14.6177C45.2449 14.5036 45.2779 14.3778 45.282 14.2493C45.2865 13.9714 45.1794 13.7033 44.9843 13.5044C44.7893 13.3055 44.5226 13.1924 44.2434 13.1902L44.0206 13.0688C43.8944 12.7674 43.5496 11.9344 43.516 11.8591C43.4928 11.8208 43.4546 11.7941 43.4106 11.7853C43.3666 11.7766 43.3209 11.7866 43.2847 11.813L41.5481 13.1986C41.3695 12.2154 40.6322 11.4257 39.6602 11.1767V9.52326H38.8192V9.4814C38.8192 7.22512 37.2802 5.58837 35.1652 5.58837C35.0495 5.59277 34.9343 5.60536 34.8204 5.62605V4.14H36.435V1.62837H34.833V0H32.2218V1.62837H30.6071V4.14H32.2218V5.64279C32.0551 5.6126 31.8865 5.59441 31.7172 5.58837C29.5643 5.58837 28.0632 7.18744 28.0632 9.52326H27.075V11.1977C26.0455 11.5432 25.3256 12.4712 25.2501 13.5502L24.4806 12.9098L23.0216 11.6791L22.866 11.5493L19.8511 15.1242C19.4384 14.8724 18.9598 14.7485 18.4761 14.7684C17.7403 14.8249 17.0113 14.9482 16.298 15.1367C15.6761 14.4071 14.6325 14.1976 13.7751 14.6302C12.9889 14.9501 12.4857 15.7233 12.5136 16.5684C12.5142 16.6707 12.5226 16.7729 12.5389 16.874C12.4305 16.9778 12.3154 17.0743 12.1941 17.1628L12.0175 17.2884C10.9326 18.0628 10.3439 18.8372 10.2556 19.5823H5.56722V23.8856H8.83018C7.88988 24.6602 7.35452 25.8186 7.37531 27.0335C7.37531 29.3944 9.33056 30.5414 9.55762 30.6712C9.2053 30.7824 8.83817 30.8402 8.46857 30.8428C8.00412 30.8702 7.53829 30.8221 7.08938 30.7005C7.03988 30.1063 6.52427 29.6593 5.92629 29.6922C5.32831 29.7251 4.86528 30.2259 4.88183 30.8219C4.8831 31.7087 5.45899 32.4934 6.30727 32.7642C6.15169 32.8395 4.20485 33.6809 4.20485 35.4935C4.18411 36.5557 4.92 37.4846 5.96247 37.7121C-2.25668 49.5075 -1.95179 65.2203 6.71882 76.6909C15.3894 88.1614 30.4713 92.804 44.1322 88.2078C57.7932 83.6115 66.9539 70.8124 66.8571 56.4572C66.8255 49.7501 64.7461 43.2111 60.8947 37.7079H60.9073ZM58.8343 27.3349C58.7431 28.2724 58.2744 29.1332 57.535 29.7209C56.968 30.1947 56.2702 30.4866 55.5335 30.5581C56.3981 31.1125 57.3948 31.4288 58.4222 31.4749C60.2261 31.4749 60.4574 31.1065 60.4574 30.7884C60.4597 30.5449 60.6585 30.3488 60.9031 30.3488C61.1492 30.3488 61.3488 30.5475 61.3488 30.7926C61.3488 32.3581 59.301 32.3581 58.4054 32.3581H58.069L58.6072 32.6302L59.8687 33.1954C60.1532 33.309 60.4264 33.4491 60.6844 33.614C61.5254 34.1288 61.9459 34.7651 61.9459 35.4977C61.9722 36.3106 61.3625 37.0053 60.5499 37.0884C60.1709 37.0885 59.8093 36.9306 59.5528 36.653C59.2962 36.3753 59.1683 36.0033 59.2001 35.6274C59.2001 35.3824 59.3997 35.1837 59.6458 35.1837C59.892 35.1837 60.0915 35.3824 60.0915 35.6274C60.0915 36.0879 60.3606 36.2093 60.512 36.2093C60.8612 36.152 61.1101 35.8409 61.0881 35.4893C61.0881 35.0707 60.8232 34.7107 60.2471 34.3549C60.0274 34.221 59.795 34.1088 59.5533 34.02L58.2288 33.4423L56.6856 32.6512H56.652C55.7491 32.0861 54.8978 31.4432 54.108 30.7298L53.7716 30.466L53.8557 30.3991C53.8557 30.3991 54.4444 30.6042 54.6126 30.3991C54.7808 30.194 54.6631 29.6623 54.6631 29.6623L54.8775 29.7042H54.991H55.1803C55.8276 29.6806 56.4518 29.4584 56.9673 29.0679C57.5276 28.631 57.8845 27.9854 57.9555 27.2805C57.9596 27.201 57.9596 27.1213 57.9555 27.0419C57.9687 26.4757 57.7845 25.9224 57.4341 25.4763C57.3233 25.3642 57.2588 25.2148 57.2533 25.0577C57.2511 24.957 57.2854 24.8589 57.35 24.7814C57.4269 24.701 57.5328 24.6543 57.6443 24.6516C57.8309 24.6686 58.0017 24.7628 58.1153 24.9112C58.6062 25.4986 58.8728 26.24 58.8679 27.0042C58.8743 27.1143 58.8743 27.2247 58.8679 27.3349H58.8343ZM58.8679 35.0665C58.4096 34.5349 58.2372 34.3423 57.7494 33.84L59.1749 34.4512C59.4398 34.5558 59.5365 34.6646 59.5029 34.6646C59.2335 34.6876 58.9943 34.8453 58.8679 35.0833V35.0665ZM42.0065 13.7344L42.469 13.814L42.3471 13.454L42.7171 13.6381L42.7591 13.186L43.0451 13.4707L43.1544 13.0521L43.4319 13.7135C43.6181 13.7554 43.7931 13.8368 43.9449 13.9521C44.0416 13.9521 44.4243 13.9814 44.4831 14.1823C44.584 14.5298 43.8398 14.6595 43.844 14.7433C43.8482 14.827 44.0416 14.94 44.2098 15.0614C44.5464 15.3154 44.8451 15.6156 45.097 15.953C45.1811 15.8526 45.4166 15.5679 45.4923 15.5009C45.568 15.434 45.9464 14.9735 46.0684 14.9274C46.3291 14.827 46.6276 15.2163 46.8252 15.346C47.0652 15.5122 47.2767 15.7158 47.4517 15.9488L48.7763 15.1493C49.1025 15.8059 49.7688 16.2272 50.5045 16.2419C50.6645 16.2598 50.8251 16.213 50.9502 16.1121C51.3273 15.6044 52.0115 15.4316 52.5861 15.6988C53.1607 15.966 53.4666 16.5993 53.3175 17.213C53.2671 17.5353 53.8515 17.9874 54.0912 18.1047C54.3944 18.2643 54.7322 18.3476 55.0751 18.3474L55.4956 18.2805L55.811 20.2647C54.2384 21.1019 54.1627 21.1019 54.1627 22.726C54.21 23.2954 54.1266 23.868 53.9188 24.4005C53.7557 24.7221 53.5282 25.007 53.2502 25.2377C53.2208 25.2628 53.1872 25.2795 53.1535 25.3047C53.1199 25.3298 53.1535 25.4302 53.1199 25.4847L53.5404 26.2256C53.8753 25.9771 54.1852 25.6967 54.4654 25.3884C54.4848 25.0409 54.4778 24.6925 54.4444 24.346C54.4444 24.346 54.6462 23.986 54.6462 22.747C54.6462 21.6167 54.7177 21.4033 55.1172 21.1312C55.4164 20.9111 55.7328 20.7151 56.0633 20.5451C55.975 20.9637 55.3527 21.194 55.3527 21.4074C55.3486 21.5692 55.4201 21.7238 55.5461 21.826L55.6596 21.7256C55.7709 21.6369 55.9132 21.5962 56.0549 21.6126C56.2449 21.4324 56.4802 21.3066 56.7361 21.2484C56.9693 21.2557 57.1984 21.3113 57.4088 21.4116L57.5182 21.2651C57.4144 21.1245 57.3427 20.9631 57.3079 20.7921C57.3079 20.6079 57.1481 20.4363 56.8117 20.5493L56.9169 20.3316C57.013 20.1765 57.1954 20.0966 57.3752 20.1307C57.5114 20.0838 57.6595 20.0838 57.7957 20.1307L58.1783 19.6786L58.2456 20.0595H58.5021L58.46 20.3777L58.7502 20.4195L58.6829 20.6665L58.9604 20.8214L58.4306 20.9972C58.4536 21.3749 58.2786 21.7376 57.9681 21.9558C58.0009 22.0163 58.0182 22.0838 58.0185 22.1526C58.0144 22.4819 57.7825 22.7648 57.4593 22.8349L57.3962 23.3163C57.5124 23.3944 57.6445 23.4459 57.7831 23.467C58.8385 23.4209 58.7418 21.713 59.4188 21.7298C60.0957 21.7465 60.121 22.3535 60.1672 22.8181C60.2387 23.6344 60.5078 24.2121 60.1672 25.7484C59.9765 26.5866 59.6589 27.3912 59.2253 28.1344C59.2915 27.9074 59.3366 27.6748 59.3599 27.4395V27.067C59.3842 26.183 59.0854 25.3202 58.5189 24.6391C58.3223 24.3911 58.0284 24.2387 57.7116 24.2205C57.4834 24.2203 57.2649 24.3125 57.1063 24.4759C56.9477 24.6393 56.8626 24.8599 56.8706 25.087C56.8771 25.36 56.985 25.621 57.1734 25.8195C57.4497 26.1801 57.5976 26.6219 57.5938 27.0753V27.2721C57.5021 27.8119 57.2055 28.2959 56.7655 28.6242C56.7655 28.5823 56.7655 28.5405 56.7655 28.5153C56.8366 28.2302 56.928 27.9504 57.0388 27.6781C57.0727 27.5069 57.0938 27.3334 57.1019 27.1591C57.149 26.9012 57.2222 26.6487 57.3205 26.4056C57.1061 26.5228 56.6562 27.0502 56.345 27.0628H56.1222C56.1222 27.2177 56.1222 27.6488 56.1222 27.7535C56.1222 27.8581 55.8615 29.1098 55.8615 29.1223H55.8362L55.4157 29.2019C55.4157 29.2019 55.1172 28.9549 55.0751 28.9298L55.298 27.7535L54.9406 28.5405C54.9406 28.5405 54.8313 28.3521 54.7219 28.193C54.6771 28.1251 54.5967 28.0892 54.5159 28.1009L53.8894 29.2019C54.0653 29.4081 54.1983 29.6472 54.2804 29.9051L54.1417 29.9595C54.1122 29.9051 53.9062 29.5702 53.6623 29.5828C53.5151 29.5828 53.2418 29.8758 53.2124 29.9344L53.082 29.8674C53.1255 29.7293 53.1863 29.5971 53.2629 29.474C53.1754 29.4489 53.0847 29.4376 52.9937 29.4405C52.8121 29.4745 52.6374 29.5382 52.4765 29.6288L52.4303 29.4991C52.5843 29.3524 52.7742 29.2485 52.9811 29.1977C52.9474 29.1468 52.8942 29.112 52.834 29.1014H52.527V28.9884C52.6202 28.9335 52.7229 28.8966 52.8298 28.8795C53.1241 28.8795 53.2502 29.0553 53.5656 29.0512L54.1711 27.8791C54.1501 27.4019 54.3855 27.3642 54.3687 27.0167C54.3687 26.8828 54.3982 26.7656 54.3687 26.7698C54.3393 26.774 53.6623 27 53.5025 27.0084C53.3427 27.0167 53.3932 26.5898 53.3764 26.4851L52.9769 25.807C52.733 25.9111 52.4622 25.936 52.2032 25.8781L52.1402 25.786C51.7002 25.8867 51.243 25.8867 50.803 25.786L49.7728 25.514C49.5244 25.439 49.2716 25.3789 49.016 25.334C48.7127 25.4618 48.4295 25.6324 48.175 25.8405C48.0792 25.9267 47.9437 25.954 47.8218 25.9116C47.7026 25.8525 47.6336 25.7251 47.6494 25.5935C47.6829 25.2883 47.6366 24.9797 47.5148 24.6977C47.3116 24.519 47.0967 24.354 46.8715 24.2037L46.0095 23.5884L45.9506 23.5507C45.5174 23.2192 45.1855 22.7742 44.9919 22.2656H44.933L44.7606 22.0814L44.1972 22.0019C43.9353 21.7017 43.6111 21.4618 43.2469 21.2986L43.1039 21.127C43.127 20.9648 43.117 20.7996 43.0745 20.6414C43.0292 20.5184 42.9391 20.4168 42.8222 20.3567C42.7339 20.4698 42.49 20.8005 42.2966 21.0935C42.1041 21.3548 41.8795 21.591 41.628 21.7967C41.7134 22.2112 41.7724 22.6307 41.8046 23.0526C41.8827 23.1379 41.9544 23.2288 42.0191 23.3247C42.1032 23.446 42.4101 23.7726 42.4396 23.8688C42.4574 23.9063 42.4585 23.9496 42.4424 23.9879C42.4264 24.0262 42.3948 24.056 42.3555 24.0698C42.1899 24.0924 42.0223 24.0454 41.8929 23.94L41.7626 23.8563L41.6869 23.6177L41.401 23.3414C41.3713 22.9719 41.3066 22.6061 41.2075 22.2488C41.1442 22.0822 41.0668 21.9212 40.9763 21.7674L41.0141 21.6209C41.1991 21.3781 41.6028 20.7837 41.4977 20.5158C41.4333 20.398 41.3444 20.2953 41.237 20.2144C41.1167 20.112 41.0144 19.9903 40.9342 19.8544C40.8217 19.9066 40.6929 19.9117 40.5767 19.8684C40.4604 19.8251 40.3665 19.7371 40.3161 19.6242C40.2866 19.5402 40.2866 19.4487 40.3161 19.3647C40.3708 19.1972 40.5474 19.1553 40.5222 19.3647C40.5137 19.4004 40.5137 19.4377 40.5222 19.4735C40.56 19.5781 40.7366 19.5363 40.8459 19.4986C40.8296 19.233 40.891 18.9684 41.0225 18.7367C41.1964 18.4644 41.4291 18.2342 41.7037 18.0628C41.8579 17.8926 42.0221 17.7319 42.1957 17.5814C42.3467 17.4307 42.5083 17.2908 42.6792 17.1628C43.0515 16.8966 43.3637 16.5558 43.5959 16.1623L43.5034 15.7019C43.1865 15.4644 42.942 15.1442 42.797 14.7767C42.7793 14.7205 42.7652 14.6632 42.7549 14.6051C42.5237 14.58 41.8761 14.4293 41.7878 14.1363L42.4017 14.0526L42.0065 13.7344ZM50.5423 26.7656C50.1471 26.2549 51.0932 26.0288 51.2487 26.2214C51.7239 26.8367 52.2831 27.5484 52.9054 28.2474L53.1073 28.4819H52.7961C52.6135 28.4996 52.437 28.5567 52.2789 28.6493L52.1738 28.7037L52.0645 28.6367C51.48 27.967 50.9502 27.2888 50.5423 26.7656ZM51.48 28.666C50.2409 27.8699 48.95 27.1567 47.6157 26.5312C47.9612 26.6065 48.3221 26.5167 48.5913 26.2884C48.7185 26.1735 48.8598 26.0751 49.0117 25.9953C49.1421 26.0247 49.2851 26.0581 49.4322 26.0958C49.6467 26.3219 49.9957 26.7698 50.248 27.1005C50.597 27.5442 51.0217 28.0842 51.5094 28.666H51.48ZM52.0981 26.5312C52.2862 26.56 52.4777 26.56 52.6658 26.5312L52.7625 26.6986C52.7349 26.9779 52.8265 27.2558 53.0148 27.4647L53.5193 27.6488C53.5193 27.6488 53.41 27.8037 53.3007 27.9502C52.8508 27.4437 52.4597 26.954 52.0981 26.5144V26.5312ZM42.8895 24.2163C42.9266 24.1332 42.9466 24.0435 42.9484 23.9526C42.9476 23.8736 42.9319 23.7955 42.9021 23.7223V23.5256C42.9021 23.5256 44.7606 23.5005 45.2652 23.5047C45.7698 23.5088 45.9296 24.3419 45.446 24.3419L42.8096 24.4005L42.8895 24.2163ZM42.5867 23.0526L42.4059 22.8265C42.3765 22.5335 42.3429 22.2656 42.3008 22.0144C42.3152 21.9257 42.3152 21.8352 42.3008 21.7465C42.469 21.5372 42.6708 21.2986 42.6708 21.2986V21.5581L42.9021 21.8344L43.0745 21.8679C43.1365 21.8939 43.1957 21.9262 43.2511 21.9642L43.9029 22.5502L44.4453 22.6381L44.4747 22.6633C44.5394 22.7934 44.6124 22.9192 44.6934 23.04C44.0753 23.0609 43.3394 23.0735 42.5531 23.04L42.5867 23.0526ZM45.3283 24.8149C45.7488 24.8149 46.3206 24.7772 46.6276 24.7898C46.7495 24.8777 46.8631 24.9614 46.964 25.0451C46.9953 25.2487 47.0051 25.4549 46.9934 25.6605C47.0043 25.9771 47.1731 26.2676 47.4433 26.4349C46.113 25.82 44.7434 25.2928 43.3436 24.8567C44.0963 24.8567 44.7775 24.8567 45.3283 24.8149ZM40.6399 22.5042C40.2436 22.0923 40.0248 21.5424 40.0302 20.9721C40.0323 20.7555 40.0634 20.5401 40.1227 20.3316C40.2792 20.438 40.4631 20.4976 40.6525 20.5033L40.8712 20.7209C40.7537 20.9536 40.6128 21.1738 40.4507 21.3781L40.3413 21.8805C40.4653 22.0815 40.5682 22.2947 40.6483 22.5167L40.6399 22.5042ZM42.2924 15.1535C42.4504 15.4904 42.6749 15.7922 42.9526 16.0409V16.066C42.6447 16.3926 42.3146 16.6975 41.9644 16.9786C41.647 16.9913 41.3329 17.0476 41.0309 17.146C40.8333 16.9158 40.5516 16.5726 40.2572 16.1749C40.7921 15.7986 41.1962 15.2661 41.4136 14.6512C41.6502 14.892 41.953 15.058 42.284 15.1284L42.2924 15.1535ZM31.7172 6.40465C32.1524 6.40001 32.5832 6.49151 32.9786 6.67256V3.3907H31.3598V2.37767H32.9786V0.749302H34.0845V2.37767H35.695V3.3907H34.0845V6.60977C34.4323 6.47203 34.8035 6.40239 35.1778 6.40465C36.8597 6.40465 38.0119 7.66047 38.0119 9.4814C38.0119 9.4814 38.0119 9.5107 38.0119 9.52326H36.9522C36.9102 8.51023 36.3005 7.45953 35.0054 7.45953C34.3655 7.48719 33.7811 7.82906 33.4454 8.37209C33.1252 7.81301 32.5318 7.46429 31.8854 7.45535C30.4978 7.45535 29.9764 8.50186 29.9385 9.51907H28.8831V9.47721C28.8831 7.63535 30.0184 6.40047 31.7172 6.40047V6.40465ZM27.6805 10.1219H39.0631V10.9967H27.6805V10.1219ZM33.4454 15.2707C32.1335 15.2707 30.3969 13.546 29.4802 11.6037H30.6407C31.3766 13.0019 32.5498 14.2326 33.4454 14.2326C34.341 14.2326 35.5184 13.0186 36.2542 11.6205H37.4232C36.5065 13.5628 34.7699 15.2874 33.4538 15.2874L33.4454 15.2707ZM37.6965 15.4884L37.482 15.5679C37.2888 15.0836 37.048 14.6195 36.763 14.1823C36.8934 14.0274 37.0237 13.8684 37.1457 13.7051C37.2179 14.3281 37.4046 14.9326 37.6965 15.4884ZM35.4048 15.4298C35.5486 15.6638 35.6738 15.9088 35.7791 16.1623C34.9104 16.434 34.1103 16.8879 33.4328 17.4935C32.7531 16.8899 31.9538 16.4349 31.0865 16.1581C31.1957 15.9016 31.3221 15.6527 31.4649 15.413C32.0341 15.8534 32.7254 16.1091 33.4454 16.1456C34.1565 16.1113 34.8402 15.8615 35.4048 15.4298ZM30.1151 14.174C29.823 14.617 29.5765 15.0882 29.3793 15.5805L29.1691 15.5009C29.4653 14.9362 29.6535 14.3216 29.7241 13.6884C29.8502 13.8558 29.9806 14.0149 30.1151 14.174ZM27.6763 11.6623C28.5888 11.6623 29.2784 12.6084 29.2784 13.454C29.2082 14.2576 28.952 15.0342 28.5299 15.7228C28.8915 15.8735 29.27 16.0158 29.6526 16.1414C29.8814 15.4836 30.1936 14.8576 30.5819 14.2786L30.6786 14.1321L30.8005 14.2577C30.9435 14.4042 31.0865 14.5465 31.221 14.6763L31.3093 14.7558L31.2505 14.8563C30.9294 15.3463 30.6696 15.8734 30.4768 16.426C31.6079 16.8112 32.8189 17.3093 33.4202 18.18C34.0467 17.2591 35.2198 16.8363 36.3636 16.426C36.168 15.8821 35.9127 15.3613 35.6025 14.873L35.5394 14.7726L35.6277 14.693C35.7749 14.5633 35.922 14.4251 36.0482 14.2744L36.1659 14.1488L36.2668 14.2912C36.6524 14.8659 36.9619 15.4878 37.1877 16.1414C37.6082 16.0033 38.0749 15.8107 38.3146 15.7228C37.8924 15.0339 37.6349 14.2577 37.5619 13.454C37.5619 12.6167 38.2473 11.6623 39.164 11.6623C40.0806 11.6623 40.9426 12.6795 40.9426 13.8809C40.9426 14.7935 40.5222 15.4884 39.5845 16.066C39.9697 16.627 40.3911 17.1626 40.8459 17.6693C40.9006 17.6693 41.7332 17.4181 41.7332 17.4181L41.2286 17.8367C40.8776 18.0595 40.6113 18.3924 40.4717 18.7828H40.3834C40.0365 18.8442 39.7929 19.1573 39.8199 19.507C39.8257 19.5515 39.837 19.5951 39.8536 19.6367V19.6953L39.8284 19.7456C39.6421 20.1277 39.5471 20.5474 39.5508 20.9721C39.5508 21.1353 39.5887 22.5795 40.8375 23.1991L40.9048 23.2326L40.9553 23.5758C41.0267 23.6428 41.2538 23.8312 41.2538 23.8312L41.4178 24.1702L41.5986 24.3419L41.2075 24.3084C37.5241 23.9986 35.7076 23.0233 35.3208 22.7595C34.9423 23.0233 33.8112 23.7935 33.4412 23.7935C33.0712 23.7935 31.9148 23.0233 31.5364 22.7595C31.036 23.0316 28.265 24.4088 23.9929 24.4088C23.2949 24.4088 22.4581 24.4088 21.8358 24.3753C21.6087 24.3753 21.5625 23.513 21.8358 23.5381C22.1091 23.5633 23.5682 23.5381 24.2956 23.5381H24.5017C26.5452 23.5381 27.2769 22.2237 27.2769 20.9888C27.2947 20.2808 27.0249 19.5956 26.5284 19.0884C26.074 18.6262 25.4616 18.3513 24.8128 18.3181C23.813 18.3055 22.8525 18.7055 22.1596 19.4233C22.0775 19.5267 21.9513 19.5856 21.819 19.5823C21.5921 19.5699 21.411 19.3895 21.3985 19.1637C21.3903 19.0475 21.4264 18.9324 21.4994 18.8414C22.3582 17.9182 23.57 17.4009 24.8338 17.4181C25.2282 17.4249 25.6177 17.5059 25.9818 17.6567C26.4339 17.1507 26.8551 16.6181 27.2432 16.0619C26.4374 15.617 25.9238 14.7851 25.8893 13.8684C25.8893 12.667 26.705 11.6498 27.6679 11.6498L27.6763 11.6623ZM19.2582 25.6312C19.2753 25.7631 19.2059 25.8911 19.0858 25.9493C18.9643 26.0045 18.8207 25.9739 18.7326 25.874C18.4929 25.6119 18.1793 25.428 17.8328 25.3465C18.3223 25.0044 18.867 24.7482 19.4432 24.5888C19.2778 24.9099 19.2133 25.2731 19.2582 25.6312ZM19.2919 26.5102C17.9433 27.139 16.6383 27.8564 15.3855 28.6577C15.8943 28.0633 16.3148 27.5191 16.647 27.0879C16.9377 26.69 17.2537 26.3111 17.5931 25.9535C17.8286 25.8614 18.1944 26.1837 18.2743 26.2716C18.5305 26.5515 18.9337 26.6448 19.2876 26.506L19.2919 26.5102ZM19.8595 25.6688C19.8595 25.6228 19.8595 25.4553 19.8595 25.3926C19.8595 25.2042 19.8974 24.907 20.0613 24.8107C20.5542 24.7799 21.0486 24.7799 21.5415 24.8107C22.0881 24.8107 22.7735 24.8526 23.5345 24.8526C22.1219 25.2898 20.7409 25.8227 19.4012 26.4474C19.6915 26.2886 19.8732 25.9861 19.8763 25.6563L19.8595 25.6688ZM21.1378 20.34V20.294H23.2781C23.2743 20.2494 23.2743 20.2046 23.2781 20.16C23.2802 19.4401 23.8585 18.8531 24.5816 18.8372C25.1399 18.8375 25.6365 19.1906 25.8178 19.7163C26.341 19.9013 26.6905 20.3942 26.6905 20.947C26.6905 21.4997 26.341 21.9926 25.8178 22.1777C25.6375 22.7042 25.1403 23.0578 24.5816 23.0567C23.8592 23.0571 23.2671 22.4862 23.2444 21.7674C23.2403 21.7229 23.2403 21.678 23.2444 21.6335H21.4994L21.4742 21.6C21.4585 21.5685 21.4354 21.5412 21.4069 21.5205C21.0577 21.2518 20.9321 20.784 21.0999 20.3777L21.1378 20.34ZM21.0158 18.8288L20.8182 17.9916L21.9619 16.6353L22.8534 17.3847C21.8274 17.8033 21.1083 18.5107 21.0158 18.8288ZM23.2612 23.0651C22.7398 23.0651 22.2647 23.0442 21.8526 23.0316C21.819 22.7972 21.8064 22.6423 21.7433 22.2865H22.7903C22.88 22.5787 23.0403 22.8446 23.257 23.0609L23.2612 23.0651ZM25.4982 14.7767C25.7211 15.3362 26.106 15.817 26.6041 16.1581C26.3098 16.5767 26.0322 16.8991 25.8346 17.1293C25.5146 17.0214 25.18 16.9621 24.8423 16.9535C24.4036 16.955 23.9669 17.0127 23.543 17.1251L25.4982 14.7767ZM22.9753 12.6837L23.8667 13.433L23.6397 13.7009L24.2115 14.174L24.4344 13.9102L25.0525 14.4209L24.1737 15.4633L23.5472 14.9484L23.77 14.6805L23.2024 14.2033L22.538 14.9902L23.1267 15.4884L23.3495 15.2247L23.9676 15.7144L23.072 16.7442L22.4581 16.2419L22.681 15.9781L22.1133 15.4884L20.6038 17.2926C20.6038 17.2926 20.6038 17.2633 20.5659 17.2465C20.1972 16.992 20.0089 16.5486 20.0824 16.1079L22.9753 12.6837ZM12.4632 17.9414L12.6188 17.8326C12.9383 17.6149 13.4177 17.2842 13.3588 16.9409C13.194 16.3014 13.5099 15.6356 14.1107 15.356C14.7115 15.0764 15.4272 15.2621 15.8144 15.7981C15.9238 15.9102 16.0789 15.9659 16.2349 15.9488C16.7521 15.9488 17.5426 15.5721 18.5266 15.5721C19.1363 15.5721 19.5652 15.7521 19.7039 16.133C20.4986 18.4102 21.3396 23.5967 21.3396 23.6051C20.3095 23.6885 19.302 23.9506 18.3626 24.3795C17.4399 24.8468 16.5901 25.4446 15.8397 26.1544C15.8397 26.1544 12.3791 22.1526 11.1302 20.093C10.7896 19.5363 11.3026 18.7744 12.4674 17.9288L12.4632 17.9414ZM13.876 26.4098L14.5488 25.6102C14.7885 25.8907 14.8894 26.0288 15.045 26.1921C14.78 26.527 14.4899 26.8912 14.1619 27.2847C14.1354 26.975 14.0376 26.6756 13.876 26.4098ZM13.1612 26.4098C13.4444 26.6292 13.6165 26.9613 13.6321 27.3181C13.6647 27.6702 13.5539 28.0205 13.3246 28.2904C13.0954 28.5604 12.7668 28.7274 12.4127 28.754C12.2234 28.7414 12.036 28.7091 11.8535 28.6577C11.654 28.7666 11.433 28.8309 11.2059 28.846C10.4836 28.8464 9.8915 28.2755 9.86878 27.5567C9.87964 27.3945 9.91072 27.2342 9.96129 27.0795C9.86986 26.9117 9.80464 26.7311 9.76787 26.5437C9.74378 26.1928 9.86018 25.8467 10.0916 25.5809C10.3169 25.3123 10.6411 25.1449 10.9915 25.1163H11.105C11.42 25.1152 11.7253 25.2249 11.967 25.426C11.9986 25.4546 12.0281 25.4854 12.0553 25.5181L13.363 23.9526C13.5989 23.9925 13.8157 24.107 13.9811 24.2791C14.1218 24.4791 14.2047 24.7136 14.2208 24.9572L13.0603 26.3553C13.0986 26.3776 13.1352 26.4027 13.1696 26.4307L13.1612 26.4098ZM12.4001 22.9186C12.2714 22.8471 12.127 22.8082 11.9796 22.8056C11.3003 22.8429 10.636 23.0196 10.0286 23.3247V22.1442H11.8072L12.3833 22.9102L12.4001 22.9186ZM8.0607 23.086V22.2865H8.4097V21.5456H7.39212V22.2865H7.74113V23.086H6.37455V22.2865H6.72776V21.5456H6.37876V20.3819H10.8359C11.4372 20.8005 11.5171 21.0558 11.5255 21.5456H9.09509V22.2865H9.43989V23.086H8.0607ZM4.86921 35.4726C4.86921 34.7526 5.2897 34.1247 6.13067 33.6056C6.39519 33.4366 6.67712 33.2963 6.97164 33.187L8.2331 32.6344L8.76291 32.3581H8.45175C6.45024 32.3581 5.50835 31.86 5.50835 30.7926C5.4919 30.6245 5.57267 30.4617 5.71672 30.3726C5.86078 30.2835 6.04315 30.2835 6.1872 30.3726C6.33126 30.4617 6.41203 30.6245 6.39557 30.7926C6.38919 30.909 6.43186 31.0227 6.51331 31.1065C6.87913 31.4749 8.04808 31.4749 8.43493 31.4749C9.46989 31.4443 10.4777 31.1379 11.3531 30.5874C10.6178 30.5151 9.92162 30.2233 9.35579 29.7502C7.86393 28.5662 7.60361 26.409 8.77132 24.907C9.57596 23.9399 10.7496 23.3512 12.0091 23.2828C12.2465 23.2803 12.4435 23.4652 12.4548 23.7014C12.4525 23.9455 12.2543 24.1428 12.0091 24.1451C11.0128 24.2157 10.089 24.6891 9.4525 25.4553C8.59721 26.5804 8.80893 28.1808 9.92765 29.047C10.3996 29.4463 10.991 29.6788 11.6096 29.7084C12.3805 29.6737 13.0931 29.2897 13.5438 28.666L13.6574 28.574C14.3301 27.8498 15.2131 26.7614 15.4402 26.4809C15.6673 26.2005 16.3947 26.6819 16.092 27.067C15.2088 28.224 14.2404 29.3139 13.1948 30.3279C13.1384 30.3892 13.0765 30.4452 13.0098 30.4953C12.16 31.2943 11.2333 32.0079 10.243 32.626L8.61574 33.4633L7.30803 34.0367C7.06541 34.1265 6.83173 34.2386 6.61002 34.3716C6.00452 34.7442 5.73962 35.1251 5.76905 35.5688C5.76905 35.9288 6.0718 36.2219 6.29045 36.2219C6.71094 36.2219 6.77401 35.8619 6.77401 35.6442C6.77548 35.526 6.82385 35.4131 6.90857 35.3302C6.99027 35.2472 7.10299 35.2017 7.21973 35.2047C7.45636 35.2043 7.65205 35.3881 7.66544 35.6233C7.69325 36.0105 7.55411 36.3911 7.28283 36.67C7.01156 36.9488 6.63383 37.0995 6.2442 37.0842C5.43463 36.9826 4.83857 36.28 4.87342 35.4684L4.86921 35.4726ZM8.97315 34.0116C8.48118 34.5181 8.51061 34.5265 8.05229 35.0623C8.02352 35.0113 7.9912 34.9623 7.95557 34.9158C7.82053 34.7558 7.62298 34.6613 7.41315 34.6563C7.287 34.6563 7.48884 34.56 7.68646 34.4805C7.88409 34.4009 8.97315 34.0116 8.97315 34.0116ZM33.6388 89.1377C21.3436 89.2212 10.0465 82.4126 4.42088 71.5284C-1.2047 60.6442 -0.202194 47.5351 7.01369 37.6242C7.25565 37.5361 7.47835 37.4025 7.66964 37.2307C8.01267 36.8944 8.22938 36.4511 8.28355 35.9749C14.4748 28.4975 23.699 24.1664 33.4328 24.1664C43.1665 24.1664 52.3908 28.4975 58.582 35.9749C58.6425 36.7219 59.1356 37.365 59.8434 37.62C67.0173 47.47 68.0563 60.4865 62.5352 71.3409C57.0141 82.1952 45.8599 89.0649 33.6388 89.1377Z" fill="#261F1F"/>
<path d="M58.2162 56.6749C58.2162 43.0833 47.1485 32.0651 33.4959 32.0651C19.8432 32.0651 8.77553 43.0833 8.77553 56.6749C8.77553 70.2665 19.8432 81.2847 33.4959 81.2847C47.1418 81.2685 58.2 70.2598 58.2162 56.6749ZM33.1048 80.4767C20.188 80.2523 9.78025 69.8651 9.58706 57.0056H33.1048V80.4767ZM33.1048 56.1977H9.59127C9.86272 43.3977 20.2464 33.0993 33.1048 32.8772V56.1977ZM33.9121 32.873C46.7621 33.1106 57.1315 43.4058 57.4046 56.1977H33.9121V32.873ZM33.9121 80.4726V57.0056H57.4046C57.2118 69.8555 46.8191 80.2389 33.9121 80.4767V80.4726Z" fill="#261F1F"/>
<path fill-rule="evenodd" clip-rule="evenodd" d="M13.7541 74.5116C13.6658 74.407 13.4555 74.1391 13.2242 73.8712C13.178 73.8209 13.1149 73.8 13.0771 73.8335C13.0392 73.867 13.0771 73.9214 13.0771 73.9633C13.3588 74.2898 13.3588 74.3567 12.7449 74.8884L10.7434 76.6298C10.6929 76.6758 10.6635 76.6926 10.5205 76.5251C10.1673 76.1065 10.2514 75.6879 10.7097 75.2693C11.0024 74.9597 11.4918 74.9447 11.803 75.2358C11.8913 75.3405 11.946 75.3405 11.9838 75.3112C12.0217 75.2819 11.9418 75.1479 11.9081 75.1102C11.6931 74.8262 11.3671 74.6462 11.0111 74.6151C10.6552 74.584 10.3027 74.7046 10.0412 74.947C9.545 75.3656 9.7174 76.027 10.1673 76.546C10.3355 76.7302 10.55 76.9646 10.6929 77.1237C10.8359 77.2828 11.0041 77.4963 11.1891 77.7098C11.2606 77.7893 11.3068 77.7977 11.3363 77.7684C11.3657 77.7391 11.3741 77.6888 11.3363 77.6302C11.1176 77.3791 11.1008 77.2744 11.3783 77.0316L13.321 75.3572C13.8297 74.9135 13.9265 74.9386 14.1115 75.1312C14.1535 75.1772 14.1956 75.2065 14.2334 75.173C14.2713 75.1395 14.2713 75.0851 14.204 75.0181C14.0736 74.8549 13.834 74.5995 13.7499 74.5242" fill="#261F1F"/>
<path d="M10.7854 70.4135C10.5033 69.8903 10.0136 69.5091 9.43558 69.3626C8.85756 69.2162 8.24433 69.318 7.74533 69.6433C6.69833 70.2754 6.48388 71.393 7.17347 72.54C7.43395 73.0581 7.90077 73.4436 8.46031 73.6027C9.01985 73.7619 9.62079 73.6801 10.1169 73.3772C10.6111 73.09 10.9628 72.6107 11.0873 72.0546C11.2118 71.4985 11.0978 70.9159 10.7728 70.447M7.49304 72.54C7.04733 71.8074 7.31644 70.8656 8.33401 70.2461C9.62911 69.4633 10.2178 70.0995 10.407 70.4093C10.9284 71.2465 10.5079 72.226 9.56603 72.7912C8.45595 73.4693 7.80841 73.0465 7.49725 72.54" fill="#261F1F"/>
<path fill-rule="evenodd" clip-rule="evenodd" d="M8.97314 67.7093C8.99837 67.7805 9.03201 67.8056 9.07406 67.793C9.11611 67.7805 9.13713 67.7177 9.09929 67.634C9.00258 67.3744 8.90166 67.14 8.88905 67.0981C8.87643 67.0563 8.79233 66.7926 8.6788 66.466C8.64517 66.3781 8.59891 66.3363 8.54845 66.3572C8.498 66.3781 8.50641 66.4074 8.54845 66.4828C8.65778 66.7884 8.62414 66.9433 8.12797 67.1316L6.09703 67.8935L7.82522 64.2726C7.8667 64.2049 7.88307 64.1249 7.87147 64.0465C7.85045 63.9921 7.78317 63.9712 7.66123 64.0172L4.49077 65.093C4.1712 65.2019 4.07029 65.1893 3.96517 64.9381C3.93573 64.8544 3.90209 64.8251 3.86004 64.8377C3.818 64.8502 3.80959 64.9256 3.83902 65.0051C3.92732 65.2521 4.01562 65.4237 4.03665 65.4907C4.05767 65.5577 4.14177 65.8423 4.23428 66.106C4.27632 66.2023 4.31837 66.2526 4.36463 66.2358C4.41088 66.2191 4.41508 66.1688 4.39406 66.106C4.27212 65.767 4.32258 65.6874 4.70101 65.5326L6.88333 64.6954L5.10048 68.266C5.04735 68.3602 5.02528 68.4685 5.0374 68.5758C5.06263 68.6344 5.14673 68.6344 5.25605 68.5967L8.33401 67.5419C8.83859 67.3702 8.88484 67.454 8.97735 67.7135" fill="#261F1F"/>
<path fill-rule="evenodd" clip-rule="evenodd" d="M4.20485 63.6279C4.25951 63.6279 4.31838 63.5986 4.30576 63.5316C4.29533 63.4857 4.25181 63.455 4.20485 63.4605C4.01142 63.4605 3.87687 63.3516 3.78436 62.9414L3.62878 62.1963L6.23579 61.7442C7.07676 61.6019 7.13983 61.6395 7.19029 61.9326C7.19029 61.9954 7.22393 62.0414 7.27859 62.0247C7.33326 62.0079 7.35008 61.9744 7.33326 61.8865C7.29962 61.6772 7.22393 61.3423 7.20291 61.2251C7.18188 61.1079 7.13563 60.7437 7.07676 60.3879C7.07676 60.3126 7.0221 60.2623 6.97584 60.2749C6.92959 60.2874 6.91277 60.3377 6.92538 60.3921C6.99687 60.8107 6.95902 60.8735 6.08441 61.0284L3.51105 61.4721L3.41433 60.8316C3.34285 60.367 3.41433 60.2288 3.6414 60.1786C3.73811 60.1535 3.75913 60.12 3.75072 60.074C3.74231 60.0279 3.70867 60.0153 3.62878 60.0195L3.02328 60.1033C2.91816 60.1242 2.88873 60.1493 2.89293 60.1995C2.9698 60.3579 3.02631 60.5253 3.06113 60.6977L3.48161 63.0544C3.50479 63.2169 3.50479 63.3817 3.48161 63.5442C3.48161 63.5944 3.51946 63.6028 3.61617 63.6153C3.81185 63.6334 4.00857 63.6376 4.20485 63.6279Z" fill="#261F1F"/>
<path fill-rule="evenodd" clip-rule="evenodd" d="M3.02749 58.9437C3.02749 58.6465 3.09476 58.6088 3.29239 58.5837C3.49002 58.5586 3.61196 58.5837 4.41509 58.5167L5.34436 58.4707C5.85735 58.4456 6.27784 58.4246 6.48808 58.4414C6.69832 58.4581 6.76981 58.5293 6.77401 58.747C6.77401 58.8098 6.79503 58.86 6.84549 58.86C6.89595 58.86 6.92959 58.8098 6.92538 58.7177C6.92538 58.5084 6.87493 58.1693 6.87072 58.0479C6.86652 57.9265 6.87072 57.5665 6.87072 57.2107C6.87072 57.1186 6.82447 57.0767 6.77401 57.0809C6.72355 57.0851 6.70673 57.1395 6.71094 57.1981C6.71094 57.4953 6.71094 57.646 6.48388 57.6712C6.25681 57.6963 5.84053 57.7214 5.32754 57.7465L4.39827 57.7926C3.59514 57.8344 3.44377 57.847 3.27978 57.8386C3.04431 57.8386 2.98544 57.7633 2.97282 57.5205C2.97282 57.4702 2.97282 57.4074 2.88452 57.4116C2.79622 57.4158 2.82145 57.466 2.82565 57.5581C2.82565 57.7633 2.8677 58.073 2.87191 58.207C2.87611 58.3409 2.87191 58.6967 2.87191 58.9019C2.87191 59.0065 2.90975 59.0567 2.9518 59.0526C2.99385 59.0484 3.02328 58.9856 3.02328 58.9353" fill="#261F1F"/>
<path fill-rule="evenodd" clip-rule="evenodd" d="M2.87191 55.8251C2.91396 55.8251 2.93919 55.7874 2.94339 55.7121C2.96862 55.3353 3.0359 55.2935 3.57412 55.327L5.94986 55.4944C6.68571 55.5447 6.71094 55.6242 6.68992 55.913C6.68992 55.9758 6.68992 56.0219 6.75719 56.0219C6.82447 56.0219 6.83709 55.9884 6.84129 55.8963C6.84129 55.6912 6.86652 55.3479 6.87493 55.214C6.88334 55.08 6.92118 54.7451 6.94641 54.406C6.94641 54.3056 6.92118 54.2637 6.87913 54.2595C6.83709 54.2554 6.80345 54.3014 6.79924 54.3684C6.76981 54.7619 6.7614 54.8456 5.99191 54.787L5.15094 54.7284C5.12992 54.7284 5.12571 54.7284 5.12992 54.6823C5.13412 54.6363 5.17196 54.0628 5.19299 53.9288C5.20531 53.8484 5.24979 53.7763 5.31631 53.729C5.38284 53.6817 5.46575 53.6632 5.5462 53.6777C5.59665 53.6777 5.65132 53.6777 5.65552 53.6149C5.65973 53.5521 5.59245 53.5312 5.52938 53.527C5.29042 53.5037 5.05311 53.4659 4.81876 53.414C4.78091 53.414 4.74727 53.414 4.74307 53.4642C4.73886 53.5144 4.89444 53.5521 4.87762 53.7991L4.82296 54.6698C4.82296 54.6698 4.82296 54.7033 4.79773 54.7033L3.25876 54.5944C3.24835 54.5958 3.23789 54.5923 3.23046 54.5849C3.22304 54.5775 3.21951 54.5671 3.22091 54.5567L3.2924 53.753C3.2924 53.5563 3.38911 53.4642 3.45638 53.4391C3.51977 53.4224 3.58642 53.4224 3.64981 53.4391C3.7255 53.4391 3.76334 53.4391 3.76754 53.3679C3.77175 53.2967 3.7297 53.2967 3.67504 53.2842C3.62037 53.2716 3.30081 53.2381 3.25455 53.2256C3.18634 53.2128 3.11895 53.196 3.05272 53.1754H3.01908C2.97283 53.1754 2.93919 53.1754 2.93498 53.234C2.92887 53.253 2.92887 53.2735 2.93498 53.2926V53.3135C2.94769 53.3883 2.94769 53.4647 2.93498 53.5395C2.93498 53.6609 2.8593 54.7409 2.84668 54.946C2.83407 55.1512 2.79622 55.4316 2.7794 55.7079C2.7794 55.8126 2.7794 55.8628 2.84668 55.867" fill="#261F1F"/>
<path fill-rule="evenodd" clip-rule="evenodd" d="M3.36387 51.7353C3.42274 51.4423 3.51104 51.4256 3.70867 51.4465C3.9063 51.4674 4.02824 51.5009 4.81875 51.6433L5.7312 51.8149C6.23579 51.9112 6.64786 51.9907 6.8539 52.0577C7.05994 52.1246 7.09778 52.2042 7.05994 52.4219C7.05994 52.4846 7.05994 52.5349 7.09778 52.5433C7.13563 52.5516 7.19029 52.5181 7.20711 52.426C7.24075 52.2167 7.2912 51.8819 7.31223 51.7605C7.33325 51.6391 7.42576 51.2916 7.49304 50.9526C7.49304 50.8646 7.49304 50.8144 7.43417 50.806C7.3753 50.7977 7.35007 50.8479 7.34166 50.9023C7.287 51.1953 7.22393 51.3209 7.00948 51.3209C6.79503 51.3209 6.37034 51.2205 5.86576 51.1284L4.9491 50.9526C4.16279 50.8019 4.01142 50.7809 3.85584 50.7391C3.62878 50.6721 3.58673 50.5926 3.63298 50.354C3.63298 50.3079 3.63298 50.2409 3.56991 50.2284C3.50684 50.2158 3.49843 50.266 3.48161 50.354C3.43956 50.5591 3.39751 50.8646 3.36808 50.9986C3.33864 51.1326 3.26716 51.4758 3.22511 51.6767C3.22511 51.7814 3.22511 51.8358 3.26716 51.8442C3.30921 51.8526 3.35546 51.7981 3.36387 51.7479" fill="#261F1F"/>
<path fill-rule="evenodd" clip-rule="evenodd" d="M5.67655 49.1651C7.102 49.6758 8.11957 48.7465 8.55267 47.4907C8.67163 47.1852 8.74255 46.8633 8.76291 46.5363C8.76305 46.4541 8.71998 46.3779 8.64938 46.3354C8.44519 46.2041 8.23156 46.088 8.01024 45.9879C7.95558 45.9879 7.90933 45.9879 7.89251 46.0256C7.87569 46.0633 7.89251 46.0967 7.9766 46.1554C8.35084 46.4191 8.43914 46.7121 8.19105 47.4112C7.8883 48.2944 7.06415 48.7674 5.88679 48.3698C4.95752 48.014 4.46555 47.3902 4.79353 46.4316C4.99536 45.8414 5.43267 45.3181 5.96248 45.5023C6.05078 45.5274 6.10545 45.5023 6.12647 45.4647C6.14749 45.427 6.10545 45.3726 6.01714 45.3391C5.92884 45.3056 5.64712 45.1967 5.47892 45.134C5.31073 45.0712 5.25186 45.0251 5.21402 45.0126C5.17617 45 5.12992 45.0126 5.09628 45.0837C4.88021 45.4653 4.69056 45.8611 4.52863 46.2684C4.10814 47.4614 4.44873 48.7256 5.67655 49.14" fill="#261F1F"/>
<path fill-rule="evenodd" clip-rule="evenodd" d="M5.92043 43.5684C6.05078 43.3047 6.14749 43.313 6.34092 43.3884C6.53434 43.4637 6.63105 43.5265 7.35008 43.8823L8.19105 44.3009C8.64517 44.5353 9.03202 44.7195 9.19601 44.8451C9.36 44.9707 9.39364 45.0586 9.29272 45.2637C9.26329 45.3223 9.25067 45.3726 9.29272 45.3935C9.33477 45.4144 9.38943 45.3935 9.43148 45.314C9.51978 45.1214 9.66275 44.8116 9.71741 44.7028C9.77207 44.594 9.95709 44.2842 10.1127 43.9744C10.1547 43.8949 10.1421 43.8405 10.1127 43.8195C10.0832 43.7986 10.0244 43.8195 9.99914 43.8865C9.86038 44.1502 9.76366 44.2674 9.57865 44.1837C9.39364 44.1 8.99418 43.9116 8.53585 43.6772L7.69488 43.2586C6.98005 42.8944 6.85391 42.84 6.70253 42.7479C6.55116 42.6558 6.48388 42.5344 6.59321 42.3293C6.61423 42.2874 6.63105 42.2247 6.56798 42.1954C6.5049 42.166 6.48808 42.1954 6.45024 42.2916C6.35353 42.4716 6.22318 42.7563 6.16431 42.8777C6.10544 42.9991 5.92884 43.2963 5.83633 43.4888C5.78587 43.5851 5.79008 43.6395 5.83633 43.6605C5.88259 43.6814 5.93725 43.6605 5.96248 43.5935" fill="#261F1F"/>
<path d="M10.2094 42.4758C10.428 42.8107 10.4406 42.9656 10.2514 43.2335C10.2262 43.267 10.2136 43.313 10.2514 43.3423C10.2893 43.3716 10.3355 43.3423 10.3902 43.2837C10.5458 43.0535 10.7013 42.8107 10.7392 42.7563C10.8275 42.6223 10.9789 42.4381 11.0756 42.3C11.1134 42.2414 11.126 42.1995 11.0756 42.1619C11.0251 42.1242 10.9957 42.1619 10.92 42.2581C10.8443 42.3544 10.756 42.4005 10.6887 42.3544C10.6071 42.2814 10.5351 42.1984 10.4743 42.1074L10.1547 41.6219C10.1442 41.6037 10.1442 41.5814 10.1547 41.5633L10.9326 40.5126C10.9326 40.4874 10.962 40.4791 10.9789 40.4833L11.9208 40.7051C11.9712 40.7051 11.8409 40.9605 11.8282 40.9856C11.8156 41.0107 11.7946 41.0735 11.8282 41.1028C11.8619 41.1321 11.9334 41.1028 12.0133 40.9814C12.0932 40.86 12.2445 40.6172 12.337 40.4874C12.4295 40.3577 12.5683 40.1944 12.644 40.0688C12.7743 39.8847 12.7743 39.8219 12.7407 39.8009C12.7071 39.78 12.6608 39.8009 12.623 39.8386C12.4758 40.0479 12.152 40.0061 11.8451 39.9391C11.0041 39.7674 8.72927 39.24 8.41391 39.1814C8.26253 39.1521 8.20787 39.1563 8.17003 39.1814C8.13218 39.2065 8.17003 39.307 8.26253 39.4619L10.2094 42.4758ZM10.6299 40.3828L9.97811 41.3037L9.06145 39.9851H9.08248L10.6299 40.3828Z" fill="#261F1F"/>
<path fill-rule="evenodd" clip-rule="evenodd" d="M12.2992 34.6647C12.5767 34.4302 12.6608 34.4386 13.014 34.8614L14.0274 36.0628C14.8221 37.0088 15.6084 37.0842 16.4746 36.3558C17.4123 35.573 17.2441 34.6814 16.4746 33.7772L15.6 32.7349C15.2552 32.3163 15.2047 32.2577 15.4612 32.0442C15.5243 31.9898 15.5369 31.9437 15.5033 31.906C15.4697 31.8684 15.4276 31.8809 15.3477 31.9437C15.1921 32.0777 15.0366 32.2242 14.8978 32.3623C14.759 32.5005 14.6161 32.5674 14.41 32.7433C14.3301 32.806 14.3175 32.8563 14.3428 32.8898C14.368 32.9233 14.4268 32.9191 14.4857 32.8898C14.7927 32.6386 14.8557 32.7014 15.1963 33.1033L16.1298 34.2209C16.7984 35.0581 16.9708 35.573 16.3443 36.0712C15.6673 36.6405 15.1164 36.2512 14.574 35.6107L13.5817 34.3884C13.2453 33.9698 13.2369 33.8902 13.4555 33.7102C13.5144 33.66 13.5228 33.614 13.4934 33.5763C13.4639 33.5386 13.4093 33.5428 13.3336 33.6098C13.1864 33.7312 12.9972 33.9154 12.8374 34.0284C12.6776 34.1414 12.4464 34.3298 12.2277 34.5098C12.1478 34.5767 12.1352 34.6228 12.1688 34.6605C12.2025 34.6981 12.2403 34.694 12.2992 34.6605" fill="#261F1F"/>
<path fill-rule="evenodd" clip-rule="evenodd" d="M18.7789 33.6391C19.0311 34.1037 18.9555 34.1623 18.7116 34.2963C18.6443 34.334 18.6233 34.3674 18.6443 34.4051C18.6653 34.4428 18.7284 34.4554 18.8041 34.4051C19.048 34.2754 19.2666 34.1372 19.3045 34.1163C19.3423 34.0953 19.5904 33.9781 19.8973 33.8107C19.9772 33.7647 20.0109 33.7144 19.9856 33.6642C19.9604 33.614 19.9268 33.6307 19.8595 33.6642C19.5736 33.8191 19.4096 33.8107 19.1489 33.3628L18.0808 31.4916L21.9451 32.6219C22.0198 32.6487 22.1016 32.6487 22.1764 32.6219C22.2268 32.5926 22.2352 32.5256 22.1764 32.4126L20.6038 29.4823C20.4482 29.1893 20.4398 29.0637 20.6794 28.9381C20.7551 28.9005 20.7804 28.8586 20.7593 28.8209C20.7383 28.7833 20.6668 28.7833 20.5911 28.8209C20.3599 28.9465 20.1707 29.0679 20.137 29.093C20.1034 29.1181 19.8048 29.2521 19.561 29.386C19.4727 29.4447 19.4264 29.4907 19.4516 29.5326C19.4769 29.5744 19.5273 29.5744 19.582 29.5326C19.9015 29.3609 20.0025 29.3944 20.2043 29.7419L21.3817 31.7595L17.551 30.5581C17.4502 30.5237 17.3407 30.5237 17.2399 30.5581C17.181 30.5874 17.1936 30.667 17.2399 30.7758L18.7789 33.6391Z" fill="#261F1F"/>
<path fill-rule="evenodd" clip-rule="evenodd" d="M22.3067 28.3688C22.5843 28.2642 22.6515 28.3312 22.7272 28.5153C22.8029 28.6995 22.8408 28.8126 23.1267 29.5619L23.4421 30.4326C23.5824 30.7861 23.7045 31.1466 23.8079 31.5126C23.8667 31.7428 23.8079 31.8014 23.5976 31.8767C23.5388 31.8767 23.4967 31.927 23.5135 31.973C23.5304 32.0191 23.585 32.04 23.6691 32.0065L24.2956 31.7553C24.4302 31.7093 24.7624 31.613 25.0861 31.4958C25.1744 31.4623 25.2039 31.4163 25.1871 31.3702C25.1702 31.3242 25.1072 31.3242 25.0525 31.3409C24.7708 31.4414 24.632 31.4581 24.5353 31.2656C24.4386 31.073 24.2914 30.667 24.1148 30.1898L23.8037 29.3023C23.5304 28.553 23.4715 28.4149 23.4252 28.2558C23.3664 28.0298 23.4252 27.9544 23.6439 27.8707C23.6901 27.8707 23.7448 27.8205 23.7196 27.7535C23.6943 27.6865 23.6523 27.7074 23.564 27.7535L22.9543 27.9879C22.8071 28.0423 22.4876 28.1428 22.2941 28.214C22.1932 28.2474 22.1554 28.2935 22.1722 28.3312C22.189 28.3688 22.2605 28.3856 22.3067 28.3688Z" fill="#261F1F"/>
<path fill-rule="evenodd" clip-rule="evenodd" d="M24.8086 27.4102C25.0681 27.3293 25.3484 27.4459 25.473 27.6865L27.546 30.6502C27.6385 30.7842 27.71 30.847 27.7688 30.8344C27.8277 30.8219 27.874 30.7381 27.9202 30.5288L28.6392 27.1214C28.7275 26.7028 28.799 26.5605 29.0597 26.506C29.1354 26.506 29.1648 26.46 29.1564 26.414C29.148 26.3679 29.0892 26.347 29.0009 26.3679C28.9126 26.3888 28.7149 26.4474 28.5173 26.4893C28.3197 26.5312 28.223 26.5312 27.9581 26.5898C27.8403 26.6149 27.7857 26.6526 27.8067 26.707C27.8277 26.7614 27.8698 26.7572 27.9328 26.7447C28.0968 26.7112 28.1893 26.7446 28.2019 26.7907C28.2126 26.853 28.2126 26.9167 28.2019 26.9791L27.7268 29.7209L26.3392 27.6279C26.2544 27.5155 26.1864 27.3914 26.1374 27.2595C26.1121 27.1423 26.2551 27.1172 26.3434 27.0921C26.4317 27.067 26.4401 27.0502 26.4317 27C26.4233 26.9498 26.3476 26.9372 26.2677 26.9581C26.0028 27.0126 25.7589 27.0879 25.6244 27.113C25.4898 27.1381 25.1408 27.1967 24.8591 27.2553C24.7666 27.2553 24.6993 27.3181 24.7119 27.3684C24.7245 27.4186 24.7624 27.4312 24.817 27.4186" fill="#261F1F"/>
<path fill-rule="evenodd" clip-rule="evenodd" d="M30.2749 26.3972C30.5735 26.3763 30.6954 26.4391 30.6954 26.6609C30.6954 26.8828 30.6954 26.9707 30.7711 27.7702L30.83 28.7037C30.83 28.9758 30.8552 29.2395 30.8678 29.453C30.9057 30.0474 30.8678 30.106 30.5693 30.1228C30.5062 30.1228 30.4641 30.1521 30.4683 30.2023C30.4726 30.2526 30.5104 30.2777 30.5987 30.2735L31.2757 30.2149C31.8433 30.1814 32.3689 30.173 32.8903 30.1437C32.9855 30.144 33.0645 30.0708 33.0712 29.9763C33.0921 29.7803 33.1006 29.5831 33.0964 29.386C33.0964 29.3107 33.0964 29.2563 33.0207 29.2688C32.945 29.2814 32.9492 29.3065 32.9408 29.3735C32.9408 29.587 32.8651 29.6833 32.7432 29.7544C32.5254 29.816 32.3009 29.8512 32.0746 29.8591C31.6878 29.8842 31.6541 29.8591 31.6163 29.5116C31.6163 29.3567 31.5784 28.8921 31.5364 28.2977C31.5362 28.2807 31.5489 28.2663 31.5658 28.2642L32.2975 28.2349C32.5455 28.2349 32.6086 28.4191 32.6212 28.5823C32.62 28.6027 32.6276 28.6226 32.642 28.637C32.6565 28.6514 32.6765 28.6589 32.6969 28.6577C32.7642 28.6577 32.7684 28.5823 32.7642 28.5237C32.7642 28.2391 32.7852 27.854 32.7642 27.7828C32.7655 27.7647 32.7588 27.7469 32.7459 27.7341C32.733 27.7212 32.7151 27.7146 32.6969 27.7158C32.6633 27.7158 32.6381 27.7702 32.5708 27.8247C32.4338 27.911 32.2746 27.9561 32.1124 27.9544C31.8854 27.9544 31.6247 27.9544 31.5448 27.9837C31.4649 28.013 31.5027 27.9837 31.4985 27.9502L31.4102 26.5353V26.506C32.4446 26.4391 32.4867 26.4642 32.5498 26.8116C32.5498 26.8535 32.5498 26.9079 32.6254 26.9037C32.7011 26.8995 32.7053 26.866 32.7053 26.8158C32.6877 26.5859 32.6877 26.355 32.7053 26.1251C32.7053 26.0833 32.7053 26.0498 32.6423 26.0498C32.5415 26.0905 32.4352 26.1159 32.3269 26.1251L30.9897 26.2088C30.8426 26.2088 30.5062 26.2088 30.2161 26.2465C30.1151 26.2465 30.0731 26.28 30.0773 26.3302C30.0815 26.3805 30.1193 26.4014 30.2034 26.3972" fill="#261F1F"/>
<path d="M34.32 30.1395C34.5302 30.1647 34.8666 30.173 34.976 30.1814C35.0853 30.1898 35.4469 30.24 35.7581 30.2693C35.8506 30.2693 35.8884 30.2442 35.8926 30.2023C35.8968 30.1605 35.8548 30.1312 35.8127 30.127C35.3922 30.0851 35.3502 29.9763 35.3922 29.4195L35.4679 28.5823L35.9305 28.6367C35.9651 28.6386 35.9966 28.6574 36.0146 28.687C36.1912 28.9381 36.3215 29.2019 36.4645 29.4405C36.8345 30.0558 37.1204 30.3823 37.7259 30.4367L38.2347 30.4828C38.323 30.4828 38.3651 30.4828 38.3735 30.4158C38.3819 30.3488 38.3356 30.3405 38.2852 30.3363C37.8647 30.2986 37.5157 30.0181 36.578 28.4484C37.0145 28.2365 37.3136 27.819 37.3727 27.3391C37.44 26.594 36.7756 26.3093 36.086 26.2423C35.9262 26.2423 35.5184 26.213 35.3376 26.1963L34.6101 26.1126C34.505 26.1126 34.463 26.1126 34.463 26.1712C34.463 26.2298 34.4882 26.2507 34.5681 26.2591C34.9886 26.2967 34.9886 26.3847 34.9423 26.8577L34.7068 29.3693C34.6606 29.8842 34.6143 30.0098 34.3116 29.9805C34.2443 29.9805 34.1939 29.9805 34.1896 30.0391C34.1854 30.0977 34.2275 30.1228 34.3158 30.1312L34.32 30.1395ZM35.6529 26.5772C35.6529 26.5437 35.6529 26.5102 35.9641 26.5353C36.1948 26.5684 36.4013 26.6954 36.5344 26.8858C36.6675 27.0763 36.7153 27.3132 36.6663 27.54C36.6243 28.0172 36.4056 28.3772 35.9263 28.3312C35.6277 28.306 35.5058 28.2558 35.5058 28.1637L35.6529 26.5772Z" fill="#261F1F"/>
<path fill-rule="evenodd" clip-rule="evenodd" d="M39.6013 30.9223C39.9218 31.0303 40.2725 31.0056 40.5746 30.8537C40.8766 30.7018 41.1047 30.4354 41.2075 30.1144C41.5019 28.9088 39.9839 28.3521 40.1689 27.6028C40.2065 27.4543 40.3066 27.3292 40.4435 27.2595C40.5804 27.1897 40.7408 27.1821 40.8838 27.2386C41.2316 27.2965 41.47 27.6192 41.422 27.967C41.422 28.0214 41.422 28.0884 41.4767 28.1051C41.5313 28.1219 41.5734 28.0758 41.6028 27.946C41.7037 27.5274 41.75 27.3977 41.7668 27.3349C41.7755 27.2949 41.7567 27.254 41.7205 27.2344C41.5031 27.1108 41.2676 27.0218 41.0225 26.9707C40.2867 26.7949 39.6896 27.0837 39.5508 27.6781C39.2649 28.8419 40.766 29.3526 40.5432 30.2526C40.4982 30.4189 40.3853 30.5588 40.2318 30.6383C40.0784 30.7179 39.8985 30.7298 39.7358 30.6712C39.5266 30.6313 39.344 30.5055 39.2327 30.3246C39.1215 30.1437 39.0919 29.9246 39.1514 29.7209C39.1514 29.6665 39.1514 29.6079 39.1051 29.5912C39.0589 29.5744 39 29.633 38.979 29.7209L38.7771 30.4409C38.7309 30.5958 39.0757 30.8135 39.6181 30.9391" fill="#261F1F"/>
<path fill-rule="evenodd" clip-rule="evenodd" d="M42.1074 31.5628L42.7507 31.7763C42.8811 31.8265 43.1964 31.9647 43.5202 32.086C43.6085 32.1195 43.6632 32.086 43.68 32.0526C43.6968 32.0191 43.6506 31.9688 43.5959 31.9479C43.3184 31.8433 43.1754 31.7595 43.2511 31.5544C43.3268 31.3493 43.4571 30.9433 43.6379 30.466L43.9617 29.5953C44.2434 28.846 44.2897 28.7037 44.3822 28.5572C44.4831 28.3437 44.5714 28.3144 44.8027 28.4023C44.8531 28.4023 44.9162 28.4274 44.9414 28.3605C44.9667 28.2935 44.9162 28.2851 44.8279 28.2516C44.6345 28.1805 44.3401 28.0842 44.2098 28.0381C44.0794 27.9921 43.7557 27.8498 43.5623 27.7786C43.4613 27.7451 43.4067 27.7535 43.3899 27.7786C43.373 27.8037 43.4235 27.8749 43.4697 27.8916C43.7515 27.9963 43.7515 28.0884 43.6968 28.2767C43.6421 28.4651 43.5917 28.5823 43.3184 29.3316L42.9904 30.2023C42.8683 30.5622 42.7279 30.9157 42.5699 31.2614C42.4648 31.4749 42.3807 31.4791 42.1747 31.4037C42.1158 31.3786 42.0611 31.3786 42.0443 31.4037C42.0275 31.4288 42.0443 31.4958 42.141 31.5293" fill="#261F1F"/>
<path d="M44.6934 32.4042C44.6681 32.446 44.6934 32.4921 44.7733 32.5381C44.9583 32.6428 45.2568 32.7893 45.3704 32.8521C45.5974 32.9819 45.9885 33.2707 46.3291 33.4591C47.498 34.1205 48.7721 34.0284 49.4701 32.7935C50.1681 31.5586 49.4701 30.5456 48.0825 29.767C47.8008 29.6079 47.498 29.4572 47.355 29.3777C47.2121 29.2981 46.9346 29.1181 46.6949 28.9842C46.6024 28.9298 46.5519 28.9381 46.5267 28.9842C46.5015 29.0302 46.5267 29.0637 46.594 29.1014C46.8505 29.2437 46.9219 29.3651 46.8126 29.5577C46.7033 29.7502 46.6654 29.8381 46.2744 30.5372L45.8329 31.3409C45.1853 32.5005 45.1096 32.5423 44.9036 32.4293C44.7943 32.3707 44.7354 32.354 44.7102 32.4042M46.2323 32.1153L47.4391 29.9805C47.5232 29.834 47.5569 29.8047 47.8596 29.9805C48.8814 30.5456 49.2809 31.5251 48.7258 32.5423C48.1708 33.5595 47.4391 33.7354 46.4552 33.187C45.8539 32.8521 45.8749 32.7181 46.2155 32.1112" fill="#261F1F"/>
<path d="M48.9697 34.7944C48.9361 34.7693 48.8898 34.7484 48.8604 34.7944C48.8309 34.8405 48.8351 34.8781 48.9066 34.9367C49.1211 35.1126 49.3523 35.2884 49.4028 35.3302C49.5289 35.4349 49.6971 35.594 49.8233 35.7028C49.8779 35.7488 49.92 35.7656 49.962 35.7028C50.0041 35.64 49.962 35.6274 49.8822 35.5479C49.8023 35.4684 49.756 35.3679 49.8065 35.3051C49.8839 35.2292 49.9717 35.1644 50.0672 35.1126L50.5844 34.8405C50.5844 34.8405 50.6222 34.8405 50.6432 34.8405L51.6314 35.6777C51.6314 35.6777 51.6608 35.7112 51.6314 35.7237L51.3286 36.6405C51.3286 36.6907 51.0805 36.5358 51.0553 36.5233C51.0301 36.5107 50.9712 36.4814 50.9376 36.5233C50.9039 36.5651 50.9376 36.6363 51.0427 36.72C51.1478 36.8037 51.3875 36.9837 51.5094 37.08C51.6314 37.1763 51.7827 37.3395 51.8879 37.4274C52.0603 37.5698 52.1233 37.574 52.1528 37.5405C52.1822 37.507 52.1528 37.4651 52.1191 37.4233C51.9215 37.26 51.9972 36.9419 52.0897 36.6447C52.3378 35.8074 53.061 33.614 53.1451 33.2958C53.1872 33.1451 53.1872 33.0907 53.1451 33.0488C53.1031 33.007 53.0232 33.0488 52.8592 33.1158L49.6971 34.7902C49.3481 34.9744 49.1926 34.9744 48.9403 34.7651L48.9697 34.7944ZM52.3041 33.8484L51.7659 35.3595L50.8997 34.6354L52.3041 33.8484Z" fill="#261F1F"/>
<path d="M52.9223 38.1851C52.8424 38.0847 52.7961 38.0512 52.7499 38.0888C52.7036 38.1265 52.7204 38.1684 52.7793 38.2395C52.9139 38.4028 53.1367 38.6581 53.1998 38.7502C53.368 38.9512 53.6203 39.3614 53.8768 39.6628C54.7177 40.6967 55.9498 41.0735 57.0472 40.1693C58.1447 39.2651 57.8882 38.0763 56.8538 36.8498C56.6478 36.6028 56.4333 36.3516 56.3156 36.226C56.1978 36.1005 56.0212 35.8326 55.8446 35.6233C55.7774 35.5395 55.7269 35.5228 55.6891 35.5563C55.6512 35.5898 55.6554 35.6274 55.7143 35.6944C55.8993 35.9163 55.9203 36.0544 55.7479 36.1967C55.5755 36.3391 55.5082 36.4019 54.8859 36.9126L54.1669 37.5028C53.1409 38.34 53.0526 38.34 52.9054 38.1851M54.2594 38.3651L56.16 36.8121C56.2903 36.7033 56.3324 36.6865 56.5805 36.9712C57.3247 37.867 57.3416 38.926 56.4543 39.6753C55.5671 40.4247 54.8187 40.32 54.108 39.4577C53.6875 38.9302 53.7338 38.8088 54.272 38.3651" fill="#261F1F"/>
<path fill-rule="evenodd" clip-rule="evenodd" d="M58.5694 47.4279C58.6235 47.4901 58.7069 47.5188 58.788 47.5033C59.0288 47.4617 59.2663 47.4029 59.4986 47.3274C59.5491 47.3023 59.5785 47.2647 59.5575 47.2186C59.5365 47.1726 59.5113 47.1642 59.4061 47.1767C58.952 47.2395 58.6871 47.0846 58.3844 46.3898C58.0017 45.5526 58.2877 44.6274 59.4272 44.1293C60.3522 43.7609 61.1385 43.8907 61.5296 44.8158C61.7861 45.3893 61.8197 46.0716 61.3067 46.2935C61.2226 46.3312 61.189 46.3772 61.21 46.4274C61.231 46.4777 61.2899 46.4777 61.374 46.4274C61.4581 46.3772 61.744 46.2809 61.9122 46.2181C62.0804 46.1553 62.1519 46.1428 62.1898 46.1219C62.2276 46.1009 62.2486 46.0674 62.2276 45.9921C62.128 45.5651 61.9987 45.1455 61.8408 44.7363C61.332 43.5851 60.2261 42.8777 59.0403 43.3967C57.6443 43.9828 57.5182 45.3474 58.0564 46.5656C58.1788 46.8678 58.346 47.15 58.5526 47.4028" fill="#261F1F"/>
<path d="M58.9814 48.1646C58.9814 48.1228 58.9478 48.0767 58.8931 48.0977C58.8385 48.1186 58.8259 48.1521 58.8469 48.24C58.9142 48.5079 58.9983 48.7884 59.0151 48.847C59.0529 49.006 59.095 49.2363 59.137 49.3995C59.137 49.4707 59.1749 49.5084 59.2379 49.4916C59.301 49.4749 59.2968 49.4414 59.2674 49.3158C59.2379 49.1902 59.2674 49.0981 59.3473 49.0814C59.4573 49.0639 59.5694 49.0639 59.6795 49.0814L60.2555 49.1651C60.2555 49.1651 60.2892 49.1651 60.2934 49.207L60.5961 50.4628C60.5961 50.4879 60.5961 50.5046 60.5961 50.5172L59.7972 51.0698C59.7467 51.0949 59.6584 50.8395 59.6458 50.8144C59.6332 50.7893 59.5996 50.7307 59.5533 50.7433C59.5071 50.7558 59.486 50.8312 59.5197 50.9609C59.5533 51.0907 59.6458 51.3795 59.6837 51.526C59.7215 51.6726 59.7467 51.8944 59.7804 52.0242C59.835 52.246 59.8813 52.2837 59.9233 52.2753C59.9654 52.267 59.9822 52.2251 59.9696 52.1623C59.9065 51.9153 60.1546 51.7019 60.3901 51.5177C61.0839 50.9902 62.9719 49.6465 63.2241 49.454C63.3461 49.3577 63.3797 49.3158 63.3713 49.2572C63.3629 49.1986 63.2872 49.1693 63.1022 49.14L59.5617 48.6293C59.1665 48.5749 59.0403 48.4786 58.9604 48.1646H58.9814ZM62.2318 49.3953H62.2108L60.8778 50.2953L60.6129 49.2028L62.2318 49.3953Z" fill="#261F1F"/>
<path fill-rule="evenodd" clip-rule="evenodd" d="M63.262 52.2921C63.2031 52.2921 63.1485 52.2921 63.1527 52.38C63.1591 52.4252 63.1994 52.458 63.2452 52.4553C63.4386 52.4553 63.5647 52.5935 63.6152 53.0079L63.7035 53.7698L61.0671 53.9958C60.2261 54.067 60.1546 54.0209 60.1294 53.7279C60.1294 53.6609 60.1042 53.6149 60.0495 53.6274C59.9948 53.64 59.9738 53.6693 59.9822 53.7614C59.9822 53.9707 60.0453 54.3098 60.0537 54.4312C60.0621 54.5526 60.0831 54.9167 60.1126 55.2684C60.1126 55.3437 60.1504 55.4023 60.2009 55.3856C60.2513 55.3688 60.2639 55.3312 60.2639 55.2767C60.2261 54.8581 60.2639 54.7912 61.1596 54.7158L63.7582 54.494L63.8002 55.1386C63.8339 55.6116 63.7371 55.7414 63.5185 55.7707C63.4218 55.7916 63.3923 55.8209 63.3966 55.867C63.4008 55.913 63.4386 55.9298 63.5185 55.9298L64.1282 55.9005C64.2375 55.9005 64.2712 55.867 64.2627 55.8167C64.2116 55.6535 64.1792 55.485 64.166 55.3144L63.96 52.9284C63.9534 52.7636 63.9704 52.5986 64.0105 52.4386C64.0105 52.3884 63.9768 52.38 63.8801 52.3591C63.6763 52.3204 63.4695 52.2994 63.262 52.2963" fill="#261F1F"/>
<path d="M64.7968 60.1116C64.7715 60.074 64.3468 59.3205 64.1492 59.0191C64.0477 57.9621 63.1672 57.1482 62.1008 57.1258C61.0344 57.1033 60.1201 57.8794 59.9738 58.9312C59.8892 59.5201 60.0568 60.1174 60.4357 60.5774C60.8147 61.0374 61.3702 61.318 61.9669 61.3507C63.1695 61.4512 64.0062 60.706 64.145 59.4167C64.2585 59.8354 64.4057 60.3795 64.4015 60.3921C64.4114 60.4228 64.4345 60.4476 64.4645 60.4597C64.4946 60.4719 64.5285 60.4701 64.5571 60.4549C64.6316 60.4184 64.7033 60.3764 64.7715 60.3293C64.8178 60.3 64.8598 60.2247 64.7968 60.1116ZM63.8675 59.1656C63.7876 60.0028 63.0265 60.6349 61.8365 60.5344C60.3312 60.4047 60.2345 59.5465 60.2681 59.1865C60.3522 58.1819 61.2647 57.6502 62.3706 57.7507C63.6657 57.8595 63.9348 58.5879 63.8843 59.1656" fill="#261F1F"/>
<path fill-rule="evenodd" clip-rule="evenodd" d="M63.3629 63.2093C63.2662 63.5777 63.1863 63.5567 62.585 63.4019L60.5667 62.8828C59.7257 62.6693 59.6374 62.6233 59.7257 62.3009C59.7257 62.2381 59.7257 62.1879 59.6837 62.1795C59.6416 62.1712 59.5954 62.1795 59.5701 62.2926C59.5197 62.4977 59.4482 62.82 59.4188 62.9372C59.3094 63.3558 59.1875 63.6907 58.9983 64.44C58.9268 64.7037 58.9436 64.7623 59.0571 64.8293C59.2671 64.9273 59.4834 65.0112 59.7047 65.0805C59.7888 65.0805 59.8266 65.0805 59.8392 65.0428C59.8519 65.0051 59.7972 64.9549 59.7551 64.934C59.4146 64.7791 59.3052 64.6409 59.444 64.0967C59.6164 63.4437 59.6879 63.406 60.3943 63.586L62.4126 64.1051C63.0686 64.2767 63.077 64.3228 62.9887 64.6577C62.9676 64.7414 62.9887 64.7833 63.0349 64.7958C63.0812 64.8084 63.1106 64.7958 63.1358 64.6828C63.1905 64.4735 63.2746 64.0967 63.304 63.9795C63.3335 63.8623 63.447 63.5191 63.5059 63.2679C63.5353 63.1758 63.5059 63.1256 63.4722 63.113C63.4386 63.1005 63.3923 63.113 63.3713 63.2135" fill="#261F1F"/>
<path fill-rule="evenodd" clip-rule="evenodd" d="M62.0888 67.3953C61.9753 67.6674 61.8828 67.6716 61.6936 67.6088C61.5044 67.546 61.395 67.4958 60.6466 67.1902L59.8056 66.8428C59.449 66.7086 59.0995 66.5563 58.7586 66.3865C58.5484 66.2819 58.5441 66.1981 58.6282 65.993C58.6535 65.9344 58.6577 65.8842 58.6282 65.8633C58.5988 65.8423 58.5315 65.8632 58.4979 65.9553C58.4222 66.1563 58.3087 66.4744 58.2624 66.5874C58.2162 66.7005 58.0648 67.006 57.9302 67.3451C57.8966 67.4288 57.9302 67.4833 57.9597 67.5C57.9891 67.5167 58.048 67.5 58.0648 67.4246C58.1783 67.1484 58.2666 67.006 58.4853 67.094C58.7039 67.1819 59.0908 67.3158 59.5659 67.5126L60.4279 67.8642C61.1722 68.1656 61.3109 68.2116 61.4581 68.2828C61.6684 68.3916 61.6936 68.4795 61.6053 68.7014C61.6053 68.7474 61.5716 68.8102 61.6389 68.8395C61.7062 68.8688 61.7188 68.8395 61.7524 68.7307C61.8281 68.5381 61.9375 68.2493 61.9837 68.1237C62.03 67.9981 62.1813 67.6758 62.2612 67.4874C62.3033 67.387 62.2907 67.3284 62.2612 67.3158C62.2318 67.3032 62.1645 67.3451 62.1477 67.3912" fill="#261F1F"/>
<path fill-rule="evenodd" clip-rule="evenodd" d="M59.2884 69.4591C57.9891 68.6763 56.8033 69.3795 56.1306 70.5307C55.9563 70.8074 55.8232 71.1077 55.7353 71.4223C55.7179 71.5037 55.7451 71.5881 55.8068 71.6442C55.9796 71.8146 56.1667 71.9701 56.366 72.1088C56.4123 72.1381 56.4627 72.1423 56.488 72.1088C56.5132 72.0754 56.488 72.0335 56.4333 71.9623C56.1179 71.6274 56.0885 71.326 56.4712 70.6688C56.9463 69.8651 57.8503 69.5595 58.9226 70.1833C59.7636 70.7149 60.1252 71.4391 59.6164 72.2972C59.2968 72.8372 58.7754 73.2684 58.2792 72.9837C58.1993 72.9377 58.1405 72.9377 58.1153 72.9837C58.09 73.0298 58.1153 73.08 58.1909 73.1302C58.2666 73.1805 58.5315 73.3437 58.6829 73.44C58.8343 73.5363 58.8805 73.5865 58.9184 73.6074C58.9562 73.6284 59.0025 73.6074 59.0487 73.5614C59.3375 73.2312 59.6031 72.8815 59.8434 72.5149C60.4826 71.4223 60.4069 70.1163 59.2884 69.4674" fill="#261F1F"/>
<path d="M55.3779 72.9335C55.1929 72.5819 55.1929 72.427 55.4031 72.1758C55.4326 72.1465 55.4536 72.0963 55.4031 72.067C55.3527 72.0377 55.3232 72.0419 55.2602 72.113C55.0836 72.3265 54.907 72.5567 54.8649 72.6028C54.7598 72.7284 54.5958 72.8958 54.4865 73.0214C54.4402 73.0758 54.4234 73.1177 54.4865 73.1554C54.5495 73.193 54.5622 73.1763 54.6463 73.08C54.7303 72.9837 54.8271 72.9544 54.8859 73.0047C54.9637 73.0831 55.0302 73.1718 55.0836 73.2684L55.3527 73.7833C55.3527 73.7833 55.3527 73.8209 55.3527 73.8377L54.5117 74.8214C54.5022 74.8378 54.4844 74.8475 54.4654 74.8465L53.5446 74.5367C53.4983 74.5116 53.6497 74.2898 53.6665 74.2647C53.6833 74.2395 53.7086 74.1809 53.6665 74.1474C53.6245 74.114 53.553 74.1474 53.4689 74.2479C53.3848 74.3484 53.204 74.5953 53.1031 74.7126C53.0022 74.8298 52.8424 74.9847 52.7583 75.0893C52.6111 75.2651 52.6069 75.3237 52.6363 75.353C52.6658 75.3823 52.712 75.353 52.7541 75.3195C52.9223 75.127 53.2376 75.1981 53.5404 75.2944C54.3813 75.5456 56.5847 76.274 56.9043 76.3619C57.0514 76.4037 57.1061 76.4037 57.1481 76.3619C57.1902 76.32 57.1481 76.2405 57.0851 76.0772L55.3779 72.9335ZM56.324 75.5288L54.8018 74.9847L55.5377 74.1265L56.3282 75.5247H56.3492L56.324 75.5288Z" fill="#261F1F"/>
<path d="M19.4222 79.3298L18.7074 78.9112C18.577 78.8358 18.2869 78.6433 18.0598 78.4926C17.9673 78.4381 17.9169 78.4381 17.8916 78.4926C17.8664 78.547 17.8916 78.5721 17.9589 78.6181C18.207 78.7646 18.2785 78.886 18.165 79.0744L17.5973 80.0414L17.1222 80.8367C16.441 81.9712 16.3653 82.0172 16.1635 81.8958C16.0541 81.833 15.9953 81.8163 15.9658 81.8623C15.9364 81.9084 15.9658 81.9502 16.0457 82.0005C16.2265 82.1093 16.5209 82.2642 16.6302 82.3312C16.8573 82.4651 17.2399 82.7498 17.5763 82.9674C18.7284 83.654 20.0025 83.5953 20.7257 82.3772C21.4489 81.1591 20.8014 80.1377 19.4222 79.3172M19.9899 82.1177C19.3844 83.1349 18.6737 83.2688 17.7108 82.6995C17.118 82.3479 17.139 82.214 17.4964 81.6153L18.7578 79.5223C18.8461 79.3758 18.8798 79.3465 19.1783 79.5223C20.1749 80.1126 20.5533 81.1046 19.9688 82.1093" fill="#261F1F"/>
<path fill-rule="evenodd" clip-rule="evenodd" d="M25.0946 81.9963L23.8331 81.5358C23.6943 81.4856 23.3832 81.3558 23.1099 81.2553C23.0174 81.2219 22.9669 81.2344 22.9501 81.2805C22.9333 81.3265 22.9501 81.3558 23.0384 81.3893C23.3201 81.4898 23.4 81.5986 23.3243 81.8079C23.2486 82.0172 23.2234 82.1009 22.9459 82.8502L22.6263 83.7209C22.5338 83.9847 22.4329 84.2274 22.3614 84.4242C22.1554 84.9809 22.0965 85.0228 21.8148 84.9181C21.7559 84.8972 21.7096 84.9181 21.6886 84.9474C21.6676 84.9767 21.6886 85.0353 21.7853 85.0647C21.983 85.14 22.3067 85.2405 22.4245 85.2865C22.9585 85.4833 23.442 85.7051 23.9256 85.8684C24.014 85.9055 24.1163 85.8691 24.1611 85.7847C24.2594 85.614 24.3478 85.4379 24.426 85.2572C24.4512 85.1902 24.4596 85.1358 24.4008 85.1191C24.3419 85.1023 24.3209 85.1191 24.2872 85.1819C24.1779 85.3702 24.0938 85.4372 23.9508 85.454C23.7257 85.425 23.5052 85.3673 23.2949 85.2823C22.9333 85.1484 22.8954 85.1191 23.0174 84.78L23.4378 83.6372C23.4426 83.6318 23.4495 83.6287 23.4568 83.6287C23.464 83.6287 23.4709 83.6318 23.4757 83.6372C23.5135 83.6372 24.0644 83.8716 24.1569 83.9009C24.3881 83.9888 24.3629 84.1981 24.3082 84.3488C24.2986 84.3675 24.2977 84.3894 24.3058 84.4088C24.3139 84.4282 24.3302 84.443 24.3503 84.4493C24.4134 84.4744 24.447 84.4074 24.4638 84.3572C24.5647 84.0893 24.7582 83.7544 24.7834 83.6874C24.7916 83.671 24.7922 83.6517 24.7849 83.6348C24.7776 83.6179 24.7632 83.605 24.7455 83.5995C24.7119 83.5995 24.6699 83.6247 24.5858 83.6456C24.427 83.668 24.265 83.6448 24.119 83.5786C23.9046 83.5033 23.6607 83.4028 23.585 83.3777C23.5093 83.3526 23.5514 83.3777 23.5556 83.3316L24.0475 82.0005C24.0475 82.0005 24.0475 81.9753 24.0812 82.0005C25.0525 82.3605 25.0777 82.3981 24.9978 82.7372C24.9978 82.7791 24.9684 82.8335 25.0273 82.8544C25.0489 82.8639 25.0736 82.8638 25.0952 82.8542C25.1168 82.8447 25.1333 82.8265 25.1408 82.8042C25.2225 82.5896 25.3224 82.3824 25.4394 82.1847C25.4394 82.1428 25.4394 82.1051 25.4099 82.0926C25.3016 82.0846 25.1944 82.065 25.0903 82.034" fill="#261F1F"/>
<path fill-rule="evenodd" clip-rule="evenodd" d="M32.6044 83.4321C32.1846 83.3056 31.7559 83.2105 31.3219 83.1474C30.0605 83.0261 28.8957 83.6372 28.7738 84.9223C28.6056 86.4167 29.7367 87.1954 31.0654 87.3251C31.3901 87.3746 31.7205 87.3746 32.0452 87.3251C32.1264 87.308 32.1922 87.2489 32.2176 87.1702C32.3009 86.9431 32.3643 86.7092 32.4068 86.4712C32.4068 86.4167 32.4068 86.3707 32.3479 86.3665C32.2891 86.3623 32.2722 86.3665 32.2344 86.4753C32.0662 86.894 31.8139 87.053 31.0444 86.9777C30.1109 86.8898 29.455 86.1991 29.5769 84.9642C29.7115 83.9847 30.2034 83.3651 31.2168 83.4614C31.8391 83.52 32.453 83.8256 32.3984 84.3823C32.3984 84.4744 32.3984 84.5247 32.4699 84.5288C32.5413 84.533 32.554 84.487 32.5708 84.3949C32.5876 84.3028 32.6212 84.0056 32.6465 83.8298C32.6717 83.654 32.6969 83.5828 32.7011 83.5409C32.7053 83.4991 32.7011 83.4614 32.6044 83.4488" fill="#261F1F"/>
<path fill-rule="evenodd" clip-rule="evenodd" d="M39.1051 86.7726C38.7982 86.8061 38.6846 86.7726 38.6216 86.5465C38.5585 86.3205 38.5206 85.9019 38.466 85.4247L38.3651 84.5037C38.2642 83.7209 38.2642 83.566 38.2642 83.3944C38.2642 83.2228 38.3188 83.0972 38.5585 83.0679C38.6426 83.0679 38.6762 83.0302 38.672 82.9884C38.6678 82.9465 38.6216 82.913 38.5249 82.9256C38.3146 82.9465 37.9866 82.9967 37.8563 83.0135L37.0826 83.0805C36.9943 83.0805 36.9438 83.1181 36.9522 83.1684C36.9606 83.2186 37.0027 83.2395 37.0784 83.2354C37.3391 83.2061 37.4989 83.2144 37.5241 83.474C37.5493 83.6414 37.5704 83.7837 37.6587 84.5791L37.6839 84.8135C37.6895 84.8209 37.6895 84.8312 37.6839 84.8386L35.674 85.0479H35.6487L35.6235 84.8219C35.5352 84.0265 35.5226 83.8884 35.5184 83.7167C35.5142 83.5451 35.5688 83.4195 35.8001 83.3902C35.8926 83.3902 35.9263 83.3484 35.922 83.2981C35.9178 83.2479 35.8716 83.2312 35.7707 83.2395C35.5646 83.2605 35.2367 83.3191 35.1105 83.3316C34.9844 83.3442 34.6185 83.3651 34.3326 83.3944C34.2359 83.3944 34.1981 83.4405 34.2023 83.4865C34.2065 83.5326 34.2527 83.5619 34.3326 83.5535C34.6101 83.5242 34.7531 83.5744 34.7531 83.7879C34.7531 84.0014 34.7951 84.0977 34.8835 84.9014L34.9886 85.8223C35.0384 86.1917 35.0692 86.5633 35.0811 86.9358C35.0811 87.1702 35.0432 87.2288 34.7951 87.2581C34.7321 87.2581 34.6858 87.2874 34.69 87.3419C34.6942 87.3963 34.7405 87.413 34.833 87.4047L35.5058 87.3167C35.6529 87.3167 35.9893 87.2749 36.3467 87.2372C36.4308 87.2372 36.4771 87.1954 36.4729 87.1451C36.4687 87.0949 36.414 87.0823 36.3551 87.0865C36.0524 87.12 35.9347 87.1116 35.8674 86.8647C35.8001 86.6177 35.7749 86.2242 35.7244 85.747L35.6866 85.4288V85.4037L37.7007 85.186L37.7385 85.5126C37.789 85.9898 37.8353 86.4084 37.8311 86.6302C37.8268 86.8521 37.8058 86.9233 37.5451 86.9526C37.482 86.9526 37.4358 86.9777 37.44 87.0363C37.4442 87.0949 37.4905 87.1074 37.5914 87.0991C37.7974 87.074 38.1296 87.0237 38.2557 87.0028C38.3819 86.9819 38.7351 86.9693 39.0967 86.9316C39.1892 86.9316 39.2271 86.8814 39.2229 86.8395C39.2187 86.7977 39.164 86.7767 39.1093 86.7809" fill="#261F1F"/>
<path fill-rule="evenodd" clip-rule="evenodd" d="M42.9315 85.7344C42.6456 85.8181 42.511 85.8265 42.4185 85.6256C42.326 85.4246 42.2167 85.0144 42.0737 84.5247L41.8088 83.6372C41.5818 82.8712 41.5355 82.7288 41.4977 82.5698C41.4556 82.3395 41.4977 82.2684 41.7373 82.1972C41.7836 82.1972 41.8425 82.1553 41.8214 82.0842C41.8004 82.013 41.7584 82.0381 41.6701 82.0633C41.4682 82.1219 41.1739 82.2223 41.0435 82.26C40.9132 82.2977 40.5684 82.3856 40.375 82.4442C40.2699 82.4735 40.232 82.5154 40.2446 82.553C40.2572 82.5907 40.3287 82.6116 40.375 82.5991C40.6609 82.5153 40.7198 82.5991 40.7955 82.7707C40.8711 82.9423 40.8922 83.0721 41.1276 83.8381L41.3926 84.7256C41.5093 85.0874 41.6076 85.4548 41.6869 85.8265C41.7331 86.0567 41.6869 86.1112 41.4598 86.174C41.3968 86.174 41.3505 86.22 41.3673 86.2702C41.3841 86.3205 41.4304 86.3372 41.5229 86.3121L42.162 86.1028C42.2966 86.0609 42.633 85.9856 42.9652 85.8851C43.0535 85.86 43.0829 85.8181 43.0703 85.7679C43.0577 85.7177 42.9946 85.7177 42.9399 85.7344" fill="#261F1F"/>
<path fill-rule="evenodd" clip-rule="evenodd" d="M47.3424 83.1977C47.3088 83.1223 47.2751 83.0972 47.2289 83.1181C47.1826 83.1391 47.1868 83.2102 47.1953 83.2479C47.292 83.6121 47.2541 83.7837 46.7369 84.0223C46.123 84.2986 46.0473 84.2735 45.7446 83.6037L44.8742 81.7158C44.5967 81.1046 44.6261 81.067 44.9457 80.9246C45.0213 80.8912 45.0424 80.8493 45.0213 80.8032C45.0003 80.7572 44.9583 80.7572 44.87 80.8032C44.6765 80.8912 44.3275 81.067 44.214 81.1172C44.1005 81.1674 43.7683 81.2972 43.537 81.4102C43.4445 81.4437 43.4151 81.4898 43.4361 81.5316C43.4571 81.5735 43.4992 81.5819 43.5749 81.5316C43.9239 81.3726 43.9617 81.4521 44.2182 82.0088L45.0844 83.8967C45.4418 84.6753 45.4671 84.78 45.1601 84.9181C45.1012 84.9432 45.0634 84.9809 45.0928 85.027C45.1223 85.073 45.1559 85.0814 45.2484 85.027C45.4418 84.9433 45.7404 84.7926 45.8497 84.7381C46.245 84.5623 46.5855 84.4451 47.2878 84.1228C47.5401 84.0098 47.5737 83.9637 47.5527 83.834C47.4986 83.6088 47.4283 83.3877 47.3424 83.1726" fill="#261F1F"/>
<path fill-rule="evenodd" clip-rule="evenodd" d="M51.2067 80.9037C51.1688 80.8451 51.131 80.7991 51.0805 80.8409C51.0301 80.8828 51.0427 80.9079 51.0805 80.9707C51.1556 81.1002 51.1556 81.2598 51.0805 81.3893C50.9227 81.5492 50.7463 81.6897 50.5549 81.8079C50.2354 82.0172 50.1849 82.0298 49.9831 81.7326C49.899 81.5986 49.6383 81.2135 49.3103 80.7153C49.3032 80.7107 49.299 80.7028 49.299 80.6944C49.299 80.686 49.3032 80.6781 49.3103 80.6735L49.9284 80.2842C50.1344 80.1502 50.29 80.2842 50.3825 80.4307C50.3922 80.4478 50.4084 80.4602 50.4275 80.4649C50.4466 80.4697 50.4669 80.4664 50.4834 80.4558C50.5423 80.4181 50.5087 80.3553 50.4834 80.3051C50.3237 80.0707 50.1681 79.7149 50.126 79.6563C50.1182 79.6397 50.1034 79.6273 50.0856 79.6225C50.0678 79.6177 50.0488 79.6208 50.0335 79.6312C50.0083 79.6312 50.0083 79.7065 49.9747 79.7902C49.9009 79.9316 49.7868 80.0481 49.6467 80.1251L49.1673 80.4349C49.1421 80.4349 49.1295 80.4349 49.1127 80.4349L48.3558 79.2628C48.3558 79.2628 48.3558 79.2335 48.3558 79.2251C49.222 78.6558 49.2682 78.66 49.4953 78.9279C49.5247 78.9572 49.5542 79.0074 49.6088 78.9698C49.629 78.9586 49.6434 78.9393 49.6482 78.9169C49.6531 78.8944 49.6479 78.871 49.6341 78.8526C49.5099 78.6585 49.4003 78.4557 49.3061 78.2456C49.2809 78.2079 49.2514 78.187 49.2136 78.2121C49.1463 78.2955 49.0686 78.3701 48.9823 78.434L47.8638 79.1665C47.7419 79.2502 47.4433 79.4219 47.2121 79.5851C47.128 79.6395 47.1069 79.6856 47.1364 79.7274C47.1658 79.7693 47.2037 79.7693 47.2751 79.7274C47.5232 79.5642 47.6578 79.5642 47.7797 79.7274C47.9017 79.8907 47.9563 79.9828 48.402 80.6526L48.9192 81.4312C49.0706 81.6614 49.2136 81.8833 49.3397 82.0633C49.6719 82.5572 49.6635 82.6284 49.4196 82.7916C49.365 82.8251 49.3397 82.867 49.365 82.9088C49.3902 82.9507 49.4406 82.9549 49.5163 82.9088C49.6971 82.7916 49.9747 82.5907 50.0714 82.5237C50.5465 82.214 51.0048 81.9502 51.4337 81.6865C51.5177 81.6389 51.5507 81.5349 51.5094 81.4479C51.4292 81.2681 51.3379 81.0933 51.2361 80.9247" fill="#261F1F"/>
</svg>
