<svg width="67" height="90" viewBox="0 0 67 90" fill="none" xmlns="http://www.w3.org/2000/svg">
<path d="M60.7818 37.6839C61.8046 37.4405 62.5269 36.53 62.529 35.4816C62.529 34.8055 62.2544 33.8226 60.9482 33.018C60.7804 32.9153 60.6068 32.8225 60.4282 32.7401C61.3025 32.5025 61.9027 31.7024 61.8842 30.7991C61.8969 30.2034 61.4329 29.7053 60.8361 29.6739C60.2393 29.6425 59.7254 30.0892 59.6752 30.6829C59.2273 30.8063 58.7619 30.854 58.2982 30.824C57.9384 30.8202 57.5811 30.7643 57.2374 30.6581C57.6237 30.4185 57.9847 30.1406 58.3149 29.8286C58.5478 29.6046 59.1926 29.4138 59.4714 28.9535C60.0792 28.0111 60.5157 26.9694 60.761 25.876C60.8918 25.3578 60.9616 24.8261 60.969 24.2917C60.9656 23.9258 60.9308 23.5609 60.865 23.2009L60.8026 22.7074C60.7651 22.2926 60.6736 21.2806 59.7667 20.9737C59.7667 20.9737 58.1859 18.6138 58.1402 18.535C58.0944 18.4562 58.0112 18.4396 57.953 18.506L57.2749 19.2899C57.0447 19.298 56.8179 19.3472 56.6051 19.435C56.5619 19.3753 56.5116 19.321 56.4554 19.2733C56.4076 19.2294 56.3545 19.1918 56.2973 19.1613L56.0186 17.3613L55.8147 17.3945L54.8538 17.5562C54.663 17.5259 54.4779 17.4672 54.3046 17.382C54.1948 17.315 54.0941 17.2342 54.0051 17.1415C54.0112 17.0531 54.0112 16.9644 54.0051 16.876C54.0306 16.052 53.5492 15.2959 52.7904 14.9682C51.9642 14.5571 50.964 14.7511 50.3526 15.441C50.2207 15.4197 50.0901 15.3906 49.9616 15.3539C49.8051 15.3031 49.6626 15.2164 49.5456 15.1009L48.9299 14.0475L47.4739 14.9184C46.6045 14.2051 46.2259 13.9645 45.6602 14.176C45.4366 14.2791 45.2412 14.4341 45.0902 14.6281C45.1503 14.5154 45.1844 14.3907 45.1901 14.2631C45.1945 13.9849 45.0871 13.7165 44.8917 13.5178C44.6963 13.319 44.4292 13.2066 44.1501 13.2055C44.0789 13.1601 44.0053 13.1185 43.9296 13.0811C43.8048 12.7825 43.4554 11.9488 43.4262 11.87C43.4027 11.8316 43.3637 11.805 43.3191 11.797C43.2746 11.7891 43.2288 11.8006 43.1933 11.8286L41.4752 13.1931C41.2948 12.2093 40.5578 11.4194 39.5866 11.1691V9.53917H38.7546V9.4977C38.7546 7.24147 37.2195 5.60323 35.1062 5.60323C34.9919 5.60966 34.8781 5.62212 34.7651 5.64055V4.14747H36.375V1.62995H34.761V0H32.1526V1.62995H30.5469V4.14747H32.1526V5.64055C31.9882 5.60719 31.8212 5.58777 31.6534 5.58249C29.5027 5.58249 28.0051 7.18341 28.0051 9.51843H27.04V11.1774C26.0123 11.5229 25.2937 12.4504 25.2179 13.529L24.4525 12.8903L22.9923 11.671L22.8384 11.5382L19.8307 15.1092C19.4178 14.8599 18.9403 14.7373 18.4579 14.7567C17.7243 14.8134 16.9974 14.937 16.2864 15.1258C15.6684 14.4082 14.6417 14.1983 13.7904 14.6157C12.9119 14.9946 12.3995 15.9158 12.5424 16.8594C12.4243 16.9632 12.2992 17.0588 12.168 17.1456L11.9933 17.27C10.9242 18.0456 10.3293 18.8088 10.2502 19.5636H5.55776V23.8728H8.79424C7.85593 24.6457 7.32284 25.8034 7.34656 27.0166C7.34656 29.3724 9.2976 30.5212 9.52224 30.6539C9.16893 30.7622 8.8019 30.8194 8.43232 30.824C7.97468 30.8521 7.51548 30.8073 7.072 30.6912C7.00143 30.1157 6.49601 29.6928 5.91524 29.7234C5.33446 29.754 4.87655 30.2276 4.8672 30.8074C4.86364 31.699 5.43893 32.4906 6.28992 32.765C6.13184 32.8396 4.20992 33.6774 4.20992 35.4899C4.19084 36.5518 4.92516 37.4799 5.96544 37.7088C-2.23388 49.4994 -1.92406 65.2034 6.73396 76.6634C15.392 88.1235 30.4459 92.7554 44.076 88.1532C57.7061 83.5509 66.839 70.7523 66.7306 56.4055C66.6973 49.7029 64.6228 43.1684 60.7818 37.6673V37.6839ZM8.02464 35.0378C7.99622 34.9863 7.96278 34.9376 7.9248 34.8926C7.79119 34.7341 7.59575 34.6405 7.38816 34.6355C7.2592 34.6355 7.45888 34.5359 7.65856 34.4571C7.85824 34.3783 8.93984 34.0092 8.93984 34.0092C8.45312 34.5152 8.47808 34.5235 8.02464 35.0585V35.0378ZM11.9725 22.8069C11.2947 22.8415 10.6316 23.0167 10.0256 23.3212V22.1309H11.8019L12.376 22.894C12.2481 22.825 12.1054 22.788 11.96 22.7862L11.9725 22.8069ZM23.192 23.0475C22.6678 23.0475 22.1978 23.0475 21.7901 23.0143C21.7526 22.782 21.7402 22.6244 21.6778 22.2719H22.7219C22.8103 22.5649 22.9704 22.8314 23.1878 23.0475H23.192ZM21.9149 16.5899L22.8093 17.3323C21.7818 17.7677 21.0662 18.4645 20.9706 18.7839L20.775 17.9544C21.3075 17.324 21.7194 16.8387 21.9149 16.6023V16.5899ZM14.144 27.2696C14.1141 26.963 14.016 26.6669 13.857 26.4028L14.5309 25.6065L15.0218 26.1871C14.7597 26.5189 14.4685 26.888 14.144 27.282V27.2696ZM15.3546 28.6507C15.8579 28.0576 16.2781 27.5143 16.6026 27.0829C16.8932 26.6873 17.2071 26.3092 17.5427 25.9507C17.7798 25.8636 18.1459 26.1829 18.225 26.27C18.4792 26.552 18.8834 26.6449 19.2358 26.5023C17.891 27.1304 16.5901 27.8481 15.3421 28.6507H15.3546ZM19.3315 26.4608C19.6217 26.3018 19.8031 25.9988 19.8058 25.6687C19.8058 25.6272 19.8058 25.4571 19.8058 25.3949C19.8058 25.2041 19.8432 24.9055 20.0096 24.8143C20.5 24.7833 20.9919 24.7833 21.4822 24.8143C22.0314 24.8143 22.7302 24.8599 23.4707 24.8599C22.062 25.2973 20.6847 25.8294 19.3482 26.4525L19.3315 26.4608ZM25.792 17.1207C25.4709 17.0144 25.1359 16.9557 24.7978 16.9465C24.3608 16.949 23.926 17.0076 23.504 17.1207L25.4509 14.7733C25.6773 15.3311 26.0636 15.8101 26.5616 16.1502C26.2621 16.565 25.9875 16.8926 25.792 17.1207ZM31.4038 15.3829C31.9723 15.8218 32.6618 16.0765 33.3798 16.1129C34.0905 16.079 34.7739 15.8302 35.3392 15.3995C35.4785 15.6338 35.6009 15.8778 35.7053 16.1295C34.8393 16.4039 34.0411 16.8576 33.3632 17.4608C32.6889 16.8568 31.8934 16.403 31.0294 16.1295C31.1349 15.8715 31.2601 15.6219 31.4038 15.3829ZM27.6224 12.9899C27.7597 12.9899 27.872 13.3217 27.872 13.4336C27.844 13.8432 27.7246 14.2414 27.5226 14.5991C27.3142 14.4083 27.1963 14.1387 27.1981 13.8567C27.1981 13.4129 27.4518 12.9899 27.6141 12.9899H27.6224ZM27.3728 18.0373C27.6099 17.7512 27.8803 17.4069 28.1549 17.0253C28.392 17.1166 28.6166 17.2078 28.8454 17.2866C28.7584 17.77 28.7111 18.2596 28.704 18.7507C28.704 18.9379 28.7165 19.125 28.7414 19.3106L28.3254 19.4309C28.133 18.8947 27.8082 18.4155 27.3811 18.0373H27.3728ZM28.288 22.5083C28.4457 22.0993 28.5383 21.6683 28.5626 21.2309L29.3155 21.0235C29.5102 21.3648 29.7387 21.6858 29.9978 21.9816C29.4427 22.2019 28.871 22.378 28.288 22.5083ZM29.2989 15.5364L29.0909 15.4576C29.3958 14.8955 29.5893 14.2802 29.6608 13.6452C29.7856 13.8111 29.9146 13.977 30.0518 14.1304C29.7617 14.5744 29.5151 15.0453 29.3155 15.5364H29.2989ZM30.759 18.7548L30.5386 18.8171C30.5386 18.7922 30.5386 18.7714 30.5386 18.7507C30.5396 18.4637 30.5577 18.177 30.5926 17.8922C31.1168 18.0622 31.6493 18.2779 31.6493 18.2779C31.2892 18.261 30.9495 18.4447 30.7674 18.7548H30.759ZM31.5994 21.0111C31.4492 20.855 31.3102 20.6887 31.1834 20.5134C32.344 20.2065 32.4688 19.4184 32.4688 19.4184C32.4688 19.4184 32.552 20.1816 31.6077 21.0111H31.5994ZM33.3715 22.3548L33.0346 22.1558C33.1547 22.0342 33.2673 21.9054 33.3715 21.77C33.48 21.903 33.5952 22.0304 33.7168 22.1516C33.5837 22.2346 33.4672 22.3009 33.3715 22.3548ZM35.1395 21.0111C34.191 20.1816 34.2742 19.4184 34.2742 19.4184C34.2742 19.4184 34.4032 20.2065 35.5638 20.5134C35.437 20.6887 35.298 20.855 35.1478 21.0111H35.1395ZM36.192 18.8171L35.9715 18.7548C35.79 18.444 35.4499 18.2601 35.0896 18.2779C35.0896 18.2779 35.6221 18.0622 36.1504 17.8922C36.1791 18.1774 36.193 18.464 36.192 18.7507C36.192 18.7507 36.192 18.7922 36.192 18.8171ZM37.0656 13.6866C37.1408 14.3082 37.3282 14.911 37.6189 15.4659L37.4067 15.5447C37.211 15.0614 36.97 14.5976 36.687 14.1594C36.816 14.006 36.945 13.8484 37.0656 13.6866ZM36.7286 21.9816C36.9815 21.6886 37.2031 21.3703 37.3901 21.0318L38.1514 21.2392C38.1742 21.6764 38.2654 22.1074 38.4218 22.5166C37.8444 22.3821 37.2783 22.2032 36.7286 21.9816ZM38.3926 19.4392L37.9517 19.3189C37.98 19.1336 37.9939 18.9464 37.9933 18.759C37.9882 18.2684 37.9451 17.7789 37.8643 17.2949C38.089 17.2161 38.3178 17.1249 38.5549 17.0336C38.8294 17.4152 39.0998 17.7594 39.337 18.0456C38.9099 18.4238 38.5851 18.903 38.3926 19.4392ZM39.208 14.5991C39.0079 14.2406 38.8886 13.8428 38.8586 13.4336C38.8586 13.3217 38.9709 12.9899 39.1082 12.9899C39.2454 12.9899 39.5242 13.4046 39.5242 13.8567C39.528 14.1391 39.4098 14.4096 39.1997 14.5991H39.208ZM44.0502 19.4931C44.5051 19.1297 44.9231 18.7227 45.2982 18.2779L45.3981 18.2447L45.577 18.2074V18.2779C45.577 18.3982 45.6227 18.5226 45.6352 18.6221V18.6636L45.6061 18.6885C44.9249 19.1567 44.4394 19.8576 44.2416 20.6585L44.1958 20.87L44.1043 20.671L44.0752 20.6088C44.0752 20.559 44.0752 20.2687 44.0752 20.2687C44.0752 20.2687 44.0752 20.1857 44.0752 20.1442C44.0738 19.9489 44.0515 19.7542 44.0086 19.5636V19.518L44.0502 19.4931ZM40.5558 22.5124C40.1504 22.0965 39.9275 21.537 39.936 20.9571C39.9416 20.7422 39.9752 20.5289 40.0358 20.3226C40.1925 20.4275 40.3755 20.4864 40.5642 20.4926C40.6224 20.5548 40.7805 20.7083 40.7888 20.7124C40.6727 20.9443 40.5333 21.1639 40.3728 21.3677L40.2646 21.8737C40.3899 22.0736 40.4931 22.2863 40.5725 22.5083L40.5558 22.5124ZM40.9594 17.1373C40.7638 16.9092 40.4851 16.5691 40.1898 16.1668C40.718 15.7966 41.1201 15.2742 41.3421 14.6696C41.5796 14.9111 41.8836 15.077 42.2157 15.1465C42.368 15.4749 42.5828 15.7706 42.848 16.0175V16.0424C42.5455 16.372 42.2173 16.6771 41.8662 16.9548C41.5484 16.9696 41.2337 17.0253 40.9302 17.1207L40.9594 17.1373ZM42.2947 22.8111C42.2656 22.5207 42.2365 22.2512 42.1907 21.9816C42.2075 21.8939 42.2075 21.8038 42.1907 21.7161L42.561 21.2641V21.5295C42.6067 21.5793 42.7898 21.8032 42.7898 21.8032L42.9645 21.8364C43.0258 21.8622 43.0844 21.8941 43.1392 21.9318L43.7923 22.5166L44.3331 22.6078L44.3581 22.6327C44.4249 22.7631 44.4999 22.8892 44.5827 23.0101C43.9629 23.0101 43.2266 23.0433 42.4445 23.0101L42.2614 22.7862L42.2947 22.8111ZM43.264 24.8558C44.017 24.8558 44.6992 24.8309 45.2442 24.8101C45.6602 24.8101 46.2342 24.7728 46.5421 24.8101C46.6588 24.8884 46.7713 24.9729 46.879 25.0631C46.9101 25.2676 46.9198 25.4747 46.9082 25.6811C46.9207 25.9965 47.0889 26.2853 47.3574 26.4525C46.0305 25.8349 44.6629 25.3083 43.264 24.8765V24.8558ZM47.5155 26.5355C47.8605 26.6111 48.2211 26.5204 48.489 26.2908C48.6148 26.1769 48.7546 26.0793 48.905 26.0005L49.321 26.1C49.5331 26.3281 49.8826 26.7719 50.153 27.1037C50.4982 27.5475 50.9226 28.0866 51.401 28.6673C50.1654 27.8705 48.877 27.1583 47.5446 26.5355H47.5155ZM53.1856 27.9664C52.7405 27.4604 52.3536 26.9751 51.9917 26.5313C52.1776 26.5619 52.3673 26.5619 52.5533 26.5313L52.6531 26.6972C52.6252 26.9753 52.7158 27.2522 52.9027 27.4604L53.4019 27.647C53.3392 27.753 53.2668 27.8529 53.1856 27.9456V27.9664ZM58.7725 35.0544C58.319 34.5235 58.1443 34.3369 57.6576 33.8309L59.047 34.424C59.3133 34.5235 59.4131 34.6313 59.3798 34.6355C59.1116 34.6592 58.8728 34.8148 58.7434 35.0502L58.7725 35.0544Z" fill="#2A7DE1"/>
<path fill-rule="evenodd" clip-rule="evenodd" d="M33.5587 89.0793C21.2907 89.1612 10.0195 82.356 4.40808 71.4791C-1.20329 60.6021 -0.200626 47.503 7.00128 37.6009C7.24375 37.5059 7.46553 37.3651 7.6544 37.1862C7.99683 36.8542 8.21423 36.4149 8.27008 35.9419C14.4457 28.4675 23.6501 24.1375 33.3632 24.1375C43.0763 24.1375 52.2807 28.4675 58.4563 35.9419C58.5155 36.6968 59.014 37.3465 59.7293 37.6009C66.8902 47.4468 67.9251 60.4591 62.4102 71.3071C56.8953 82.1551 45.7572 89.0161 33.5587 89.0793Z" fill="#FFD800"/>
<path fill-rule="evenodd" clip-rule="evenodd" d="M20.5213 17.2369C20.5348 17.2527 20.5473 17.2693 20.5587 17.2866L22.048 15.4908L22.6179 15.9677L22.3933 16.2332L23.009 16.7475L23.8826 15.7065L23.296 15.1922L23.0714 15.4618L22.5056 14.9806L23.167 14.1968L23.712 14.6737L23.504 14.9309L24.128 15.4493L25.0016 14.4083L24.3776 13.894L24.153 14.1636L23.583 13.6866L23.8077 13.4212L22.9174 12.6747L20.0387 16.0963C19.9649 16.5375 20.1528 16.9816 20.5213 17.2369Z" fill="#FFD800"/>
<path fill-rule="evenodd" clip-rule="evenodd" d="M7.72929 22.2719H7.37569V21.5295H8.40737V22.2719H8.05793V23.0682H9.42241V22.2719H9.07713V21.5295H11.4941C11.4941 21.0442 11.4109 20.7788 10.8118 20.3724H6.36481V21.5295H6.71009V22.2719H6.36481V23.0682H7.72513L7.72929 22.2719Z" fill="#FFD800"/>
<path d="M23.1962 21.7327C23.1973 22.0873 23.3401 22.4267 23.5932 22.6759C23.8462 22.925 24.1884 23.0632 24.544 23.0599C25.1061 23.064 25.6082 22.7103 25.792 22.1806C26.3126 21.9944 26.6599 21.5024 26.6599 20.9509C26.6599 20.3995 26.3126 19.9074 25.792 19.7212C25.6071 19.1924 25.1057 18.8391 24.544 18.8419C23.8081 18.8419 23.2109 19.4355 23.2086 20.1691C23.203 20.2132 23.203 20.2578 23.2086 20.3018H21.0746V20.3516C20.9072 20.7562 21.0335 21.2224 21.3824 21.488C21.4076 21.5131 21.4299 21.5409 21.449 21.571V21.6041H23.2128C23.2067 21.6482 23.2067 21.6928 23.2128 21.7369L23.1962 21.7327ZM24.1946 20.3599C24.1946 20.0654 24.3277 19.8705 24.5814 19.8705C24.9974 19.8705 24.935 20.3101 25.0806 20.4553C25.2262 20.6005 25.663 20.5507 25.663 20.953C25.663 21.3553 25.247 21.3055 25.0806 21.4548C24.9142 21.6041 24.9808 22.0396 24.5814 22.0396C24.3277 22.0396 24.1946 21.8323 24.1946 21.5461V20.3599Z" fill="#FFD800"/>
<path d="M13.9485 24.2544C13.7832 24.083 13.5676 23.9683 13.3328 23.9267L12.0349 25.4945L11.9434 25.4032C11.7035 25.2019 11.3999 25.0917 11.0864 25.0922H10.9741C10.6205 25.1192 10.2932 25.2884 10.0672 25.5608C9.83566 25.8336 9.72463 26.1881 9.75936 26.5438C9.79393 26.7312 9.85855 26.9119 9.95072 27.0788C9.89992 27.2332 9.86916 27.3935 9.8592 27.5558C9.87948 28.2741 10.4696 28.8459 11.1904 28.8456C11.4183 28.8314 11.6401 28.7662 11.8394 28.6548C12.0197 28.7074 12.2052 28.7408 12.3926 28.7544C12.7474 28.728 13.0766 28.5608 13.3066 28.2903C13.5365 28.0197 13.6479 27.6684 13.6157 27.3152C13.6006 26.9584 13.4267 26.627 13.1414 26.4111C13.1085 26.3819 13.0722 26.3569 13.0333 26.3364L14.1939 24.9387C14.176 24.6939 14.0911 24.4586 13.9485 24.2585M12.5258 27.618C12.2595 27.9415 11.96 27.618 11.7562 27.618C11.5523 27.618 11.311 27.9995 10.999 27.7465C10.687 27.4935 10.999 27.1908 10.999 26.9793C10.999 26.7677 10.6122 26.5272 10.8618 26.2244C11.0282 26.0253 11.2778 26.0544 11.4941 26.2244L12.4134 26.9793C12.6422 27.17 12.7088 27.394 12.5424 27.5972" fill="#FFD800"/>
<path d="M18.4787 15.5571C17.497 15.5571 16.7024 15.9346 16.1866 15.9346C16.0322 15.9514 15.8787 15.8963 15.7706 15.7853C15.3832 15.2525 14.6712 15.0687 14.0732 15.347C13.4752 15.6254 13.1593 16.2877 13.3203 16.9258C13.3744 17.27 12.9043 17.5977 12.584 17.8175L12.4259 17.9253C11.2653 18.7548 10.7619 19.5304 11.0906 20.0903C12.3552 22.1392 15.808 26.129 15.808 26.129C16.5503 25.421 17.3909 24.8232 18.304 24.3539C19.241 23.9244 20.2463 23.6619 21.2743 23.5783C21.2743 23.5783 20.4423 18.3857 19.6394 16.1129C19.5063 15.7313 19.0778 15.553 18.4704 15.553L18.4787 15.5571ZM12.2304 19.7005C12.4754 19.372 12.7785 19.0909 13.1248 18.871L13.2579 18.7756C13.6739 18.4977 14.5059 17.9212 14.5059 16.9922C14.5118 16.9093 14.5118 16.8262 14.5059 16.7433C14.5007 16.6771 14.5007 16.6105 14.5059 16.5442C14.5059 16.4571 14.5059 16.4571 14.6141 16.4032C14.6494 16.3851 14.6873 16.3725 14.7264 16.3659C14.7264 16.3659 14.7888 16.3659 14.9427 16.5525C15.2678 16.9134 15.7381 17.1097 16.224 17.0876C16.5825 17.0771 16.9379 17.0185 17.2807 16.9134L17.4429 16.8677C17.7772 16.7788 18.1205 16.7273 18.4663 16.7143C18.5328 16.7107 18.5994 16.7107 18.6659 16.7143C18.7075 16.8512 18.7741 17.0876 18.8781 17.5065C18.1106 17.6625 17.3577 17.8832 16.6275 18.1659C16.3232 17.8493 15.8565 17.7489 15.4483 17.9122C15.0401 18.0755 14.7725 18.4698 14.7722 18.9083C14.7678 18.9427 14.7678 18.9776 14.7722 19.012C14.05 19.4033 13.3638 19.8571 12.7213 20.3682C12.4634 20.0157 12.3053 19.8124 12.2471 19.6922L12.2304 19.7005ZM13.5907 21.5668C15.2146 20.2379 17.1495 19.3405 19.2151 18.9581C19.2151 18.9581 19.4106 19.8415 19.4397 19.9618C18.8413 20.0774 18.2529 20.2396 17.68 20.447C17.4753 20.2228 17.1854 20.0948 16.8813 20.0945C16.726 20.0939 16.5725 20.1279 16.432 20.194C16.0522 20.3731 15.8094 20.7539 15.808 21.1728C15.8013 21.2154 15.8013 21.2588 15.808 21.3014C15.248 21.6206 14.7164 21.9869 14.2189 22.3963L13.5907 21.5668ZM19.9264 22.3963C19.5284 22.4755 19.1364 22.5822 18.7533 22.7157C18.5448 22.4744 18.2407 22.3364 17.9213 22.3383C17.766 22.3377 17.6125 22.3717 17.472 22.4378C17.2101 22.5573 17.0076 22.7771 16.9104 23.0475C16.8682 23.1674 16.8471 23.2937 16.848 23.4207C16.8414 23.4717 16.8414 23.5233 16.848 23.5742C16.4632 23.7975 16.096 24.0499 15.7498 24.329L15.1008 23.5369C15.7633 22.9957 16.4898 22.5375 17.264 22.1724C18.0402 21.8189 18.8557 21.5585 19.6934 21.3968L19.9264 22.3963Z" fill="#FFD800"/>
<path fill-rule="evenodd" clip-rule="evenodd" d="M60.5987 33.5945C60.3347 33.4312 60.0562 33.2923 59.7667 33.1797L58.4854 32.6157L57.9696 32.3502H58.3024C59.176 32.3502 61.2144 32.3502 61.2144 30.7825C61.2121 30.5406 61.016 30.3451 60.7734 30.3429C60.6552 30.3426 60.5416 30.3888 60.4573 30.4714C60.3746 30.554 60.3282 30.6659 60.3283 30.7825C60.3283 31.1018 60.0953 31.4668 58.2982 31.4668C57.2724 31.4236 56.2769 31.1071 55.4153 30.5502C56.1518 30.4715 56.8475 30.1738 57.4121 29.6959C58.1511 29.1056 58.6192 28.2424 58.7101 27.3028C58.7101 27.1908 58.7101 27.0829 58.7101 26.971C58.7232 26.2136 58.4701 25.4755 57.9945 24.8848C57.8829 24.737 57.7135 24.6435 57.5286 24.6276C57.4162 24.6303 57.3097 24.6782 57.2333 24.7604C57.1703 24.8361 57.1364 24.9316 57.1376 25.03C57.145 25.1852 57.2085 25.3326 57.3165 25.4447C57.6617 25.8902 57.8411 26.4414 57.824 27.0041C57.828 27.0829 57.828 27.1618 57.824 27.2406C57.7546 27.945 57.4019 28.5914 56.8464 29.0323C56.3295 29.4217 55.705 29.6433 55.0576 29.6668H54.8704H54.7581L54.5459 29.6295C54.5459 29.6295 54.6665 30.1438 54.496 30.3636C54.3254 30.5834 53.7389 30.3636 53.7389 30.3636L53.6557 30.43L53.9926 30.6912C54.7791 31.4058 55.6284 32.0485 56.5302 32.6115H56.5635L58.111 33.4078L59.4381 34.0092C59.6775 34.1011 59.9086 34.2135 60.1286 34.3452C60.7069 34.7018 60.9606 35.0627 60.9606 35.4774C60.9866 35.8302 60.737 36.1439 60.3865 36.1991C60.2243 36.1991 59.9705 36.0747 59.9705 35.6184C59.9484 35.391 59.7567 35.2175 59.5275 35.2175C59.2983 35.2175 59.1066 35.391 59.0845 35.6184C59.0531 35.9942 59.1809 36.3659 59.437 36.6433C59.6932 36.9207 60.0541 37.0785 60.4323 37.0783C61.2648 37.0165 61.8989 36.3091 61.8675 35.4774C61.8675 34.7475 61.4515 34.1129 60.6195 33.5945" fill="#FFD800"/>
<path fill-rule="evenodd" clip-rule="evenodd" d="M17.7923 25.3286C18.1376 25.4108 18.4496 25.596 18.6867 25.8594C18.777 25.9597 18.9228 25.9884 19.0445 25.93C19.1646 25.874 19.2327 25.7451 19.2109 25.6147C19.1689 25.2569 19.234 24.8947 19.3981 24.5737C18.8242 24.7339 18.2814 24.9891 17.7923 25.3286Z" fill="#FFD800"/>
<path fill-rule="evenodd" clip-rule="evenodd" d="M15.392 26.4484C15.1674 26.7429 14.2854 27.8336 13.6157 28.5553L13.4992 28.6507C13.0506 29.2746 12.3383 29.6573 11.569 29.6876C10.9517 29.6594 10.361 29.4291 9.88832 29.0323C9.33105 28.5936 8.97545 27.9488 8.9024 27.2447C8.84014 26.6013 9.02443 25.9582 9.41824 25.4447C10.0521 24.6778 10.974 24.204 11.9683 24.1341C12.1964 24.112 12.3705 23.9209 12.3705 23.6924C12.3705 23.4639 12.1964 23.2728 11.9683 23.2507C10.7087 23.3193 9.53585 23.9122 8.736 24.8848C8.18998 25.5781 7.93231 26.4543 8.01632 27.3318C8.10623 28.2718 8.57454 29.1352 9.31424 29.7249C9.87791 30.2044 10.5741 30.5023 11.311 30.5793C10.4486 31.1343 9.45365 31.4507 8.42816 31.4959C8.04544 31.4959 6.88064 31.4959 6.51456 31.1309C6.43177 31.0459 6.38937 30.9297 6.39808 30.8115C6.39808 30.5664 6.19879 30.3677 5.95296 30.3677C5.70713 30.3677 5.50784 30.5664 5.50784 30.8115C5.50784 31.8816 6.43552 32.3793 8.41984 32.3793L8.736 32.3502L8.20352 32.624L6.95552 33.1797C6.6652 33.2904 6.38652 33.4293 6.12352 33.5945C5.29152 34.1129 4.87552 34.7433 4.87552 35.4608C4.87552 36.3857 5.5952 37.0783 6.24 37.0783C6.62916 37.0948 7.00683 36.9447 7.27785 36.6657C7.54887 36.3868 7.68741 36.0057 7.65856 35.6184C7.65424 35.4418 7.54611 35.2841 7.38254 35.216C7.21896 35.1479 7.03051 35.1821 6.90144 35.3032C6.81661 35.3863 6.76867 35.4999 6.76832 35.6184C6.76832 35.8341 6.70592 36.1949 6.28992 36.1949C6.06944 36.1949 5.79072 35.9046 5.76576 35.5438C5.73664 35.0959 6.00704 34.7143 6.59776 34.3452C6.8175 34.2103 7.05024 34.0978 7.29248 34.0092L8.59872 33.4369L10.2211 32.6074C11.2092 31.988 12.1343 31.274 12.9834 30.4756C13.0493 30.4259 13.1106 30.3704 13.1664 30.3097C14.2189 29.2985 15.1924 28.2087 16.0784 27.0498C16.3821 26.6682 15.6624 26.1664 15.4294 26.465" fill="#FFD800"/>
<path fill-rule="evenodd" clip-rule="evenodd" d="M45.1401 23.4912C44.6368 23.4912 42.7856 23.4912 42.7856 23.4912V23.6613V23.6862C42.8118 23.7609 42.8259 23.8393 42.8272 23.9184C42.8254 24.0085 42.8056 24.0974 42.7689 24.1797L42.6816 24.3747L45.3149 24.3207C45.7933 24.3207 45.6352 23.4912 45.1318 23.4912" fill="#FFD800"/>
<path fill-rule="evenodd" clip-rule="evenodd" d="M52.9942 28.4516L52.7904 28.2028C52.1747 27.5018 51.6131 26.7885 51.1264 26.1788C50.9725 25.9797 50.0282 26.2078 50.4234 26.718C50.8186 27.2281 51.3594 27.9166 51.9418 28.5885L52.0541 28.659L52.1581 28.6009C52.3145 28.5092 52.4891 28.4526 52.6698 28.435L52.9942 28.4516Z" fill="#FFD800"/>
<path d="M41.184 23.8147C41.184 23.8147 40.9594 23.624 40.8886 23.5576L40.8387 23.2258L40.768 23.1843C39.52 22.5664 39.4784 21.1106 39.4784 20.9571C39.475 20.5266 39.5703 20.1011 39.7571 19.7129L39.7862 19.659L39.7654 19.6051C39.7489 19.5624 39.7377 19.5178 39.7322 19.4724C39.7172 19.1094 39.9893 18.7981 40.352 18.7631H40.4435C40.5819 18.3811 40.842 18.0548 41.184 17.8341L41.6874 17.4194C41.6874 17.4194 40.8554 17.6516 40.8013 17.6723C40.3505 17.1666 39.9336 16.6318 39.5533 16.0714C40.4768 15.4949 40.9094 14.7982 40.9094 13.8816C40.9094 12.6829 40.0774 11.671 39.1331 11.671C38.1888 11.671 37.5315 12.6124 37.5315 13.4585C37.6056 14.2525 37.8588 15.0195 38.272 15.7023C38.0349 15.7977 37.5606 15.9885 37.1446 16.117C36.923 15.4641 36.6152 14.8435 36.2294 14.2714L36.1296 14.1263L36.009 14.2507C35.8675 14.4 35.7219 14.5369 35.593 14.6654L35.5014 14.7484L35.5638 14.8479C35.8731 15.3381 36.1297 15.8594 36.3293 16.4032C35.1894 16.818 34.0163 17.2327 33.3923 18.1535C32.7933 17.2825 31.5869 16.7889 30.4554 16.3991C30.6408 15.8517 30.8908 15.3283 31.2 14.8396L31.2624 14.7359L31.175 14.6571C31.0294 14.5286 30.8838 14.3876 30.759 14.2424L30.6176 14.1014L30.5178 14.2424C30.1283 14.8209 29.8177 15.4486 29.5942 16.1088C29.2074 15.976 28.833 15.835 28.4669 15.694C28.8916 15.0068 29.1481 14.2297 29.2157 13.4253C29.2157 12.5959 28.5334 11.6378 27.6182 11.6378C26.703 11.6378 25.8419 12.6498 25.8419 13.8484C25.8756 14.7655 26.3886 15.598 27.1939 16.0424C26.812 16.5989 26.3951 17.1309 25.9459 17.635C25.579 17.4909 25.188 17.4177 24.7936 17.4194C23.5318 17.3998 22.3214 17.9172 21.4656 18.8419C21.3905 18.9324 21.3532 19.0483 21.3616 19.1654C21.3728 19.2819 21.4296 19.3892 21.5197 19.4641C21.5988 19.5307 21.699 19.5674 21.8026 19.5677C21.9357 19.5714 22.0625 19.5112 22.1437 19.406C22.8357 18.6914 23.7932 18.2937 24.7894 18.3069C25.4394 18.338 26.0534 18.6137 26.5075 19.0783C27.0026 19.5871 27.271 20.2734 27.2522 20.982C27.2522 22.2263 26.5242 23.5286 24.4858 23.5286H24.2778C23.5539 23.5286 22.1187 23.5286 21.8234 23.5286C21.528 23.5286 21.5779 24.3581 21.8026 24.3829C22.4266 24.3829 23.2586 24.412 23.9533 24.412C28.2214 24.412 30.9837 23.035 31.4829 22.753C31.849 23.0101 32.9638 23.7899 33.359 23.7899C33.7542 23.7899 34.8566 23.0184 35.231 22.753C35.647 23.0018 37.4442 23.9972 41.1341 24.3L41.5501 24.3332L41.3712 24.1631L41.184 23.8147ZM39.104 12.5295C39.5616 12.5295 39.9942 13.1765 39.9942 13.8567C39.9465 14.4677 39.593 15.0135 39.0541 15.3083C38.6927 14.7421 38.4664 14.1007 38.3926 13.4336C38.3926 13.1143 38.663 12.5295 39.104 12.5295ZM38.7296 16.4613C39.1091 17.0302 39.526 17.5733 39.9776 18.0871C39.341 18.555 38.8856 19.2273 38.688 19.9908L37.44 19.6465C37.5077 19.3527 37.5412 19.0521 37.5398 18.7507C37.5447 18.1559 37.4861 17.5622 37.3651 16.9797C37.6106 16.8968 38.1971 16.6977 38.7296 16.4613ZM26.7322 13.8567C26.7322 13.1765 27.1482 12.5295 27.6182 12.5295C28.0883 12.5295 28.3296 13.1143 28.3296 13.4336C28.2558 14.1007 28.0295 14.7421 27.6682 15.3083C27.1303 15.0131 26.7783 14.4671 26.7322 13.8567ZM26.7322 18.0871C27.1838 17.5733 27.6007 17.0302 27.9802 16.4613C28.5293 16.6977 29.0992 16.8968 29.3446 16.9797C29.2237 17.5622 29.1651 18.1559 29.1699 18.7507C29.1685 19.0521 29.202 19.3527 29.2698 19.6465L28.0218 19.9908C27.8242 19.2273 27.3687 18.555 26.7322 18.0871ZM27.4186 23.176C27.9067 22.5076 28.1583 21.6965 28.1341 20.87C28.9328 20.6585 29.353 20.5507 29.5693 20.4553C29.8664 21.074 30.2705 21.6355 30.7632 22.1143C29.7067 22.6128 28.5871 22.9658 27.4352 23.1636L27.4186 23.176ZM31.5952 21.6332C31.1422 21.2364 30.7645 20.7616 30.4803 20.2313L31.3581 19.9783C31.8112 19.8468 32.0984 19.4032 32.032 18.9373C31.9785 18.7502 31.8109 18.6183 31.616 18.6097H31.5037C31.3136 18.6604 31.1788 18.8284 31.1709 19.0244C31.1709 19.0244 31.1709 19.0576 31.1709 19.0742C31.1248 19.0949 31.0776 19.1129 31.0294 19.1281L30.1434 19.3853C30.0938 19.1689 30.0687 18.9477 30.0685 18.7258C30.0674 18.2277 30.1134 17.7306 30.2058 17.241C31.616 17.7512 32.864 18.2903 32.864 19.4599C32.864 20.2894 32.448 21.0194 31.5661 21.6456L31.5952 21.6332ZM33.3715 22.8899C32.9968 22.6933 32.6342 22.4744 32.2858 22.2346C32.7235 21.8823 33.0917 21.452 33.3715 20.9654C33.6523 21.4525 34.022 21.8829 34.4614 22.2346C34.1155 22.4804 33.7511 22.6995 33.3715 22.8899ZM35.1728 21.6456C34.3158 21.0194 33.8749 20.2853 33.8749 19.4599C33.8749 18.2903 35.1229 17.7512 36.529 17.2659C36.6211 17.7555 36.6671 18.2526 36.6662 18.7507C36.666 18.9726 36.6409 19.1938 36.5914 19.4101L35.697 19.153L35.5597 19.0991C35.5617 19.0826 35.5617 19.0658 35.5597 19.0493C35.5523 18.8545 35.4195 18.6868 35.231 18.6346C35.1923 18.6303 35.1533 18.6303 35.1146 18.6346C34.9192 18.6419 34.7509 18.7744 34.6986 18.9622C34.627 19.443 34.9358 19.8985 35.4099 20.0115L36.296 20.2687C36.0118 20.7989 35.6342 21.2738 35.1811 21.6705L35.1728 21.6456ZM35.9798 22.1516C36.4725 21.6729 36.8767 21.1113 37.1738 20.4926C37.3901 20.5631 37.8102 20.6751 38.609 20.9074C38.5847 21.7338 38.8364 22.5449 39.3245 23.2134C38.1726 23.0156 37.053 22.6626 35.9965 22.1641L35.9798 22.1516Z" fill="#FFD800"/>
<path d="M53.8553 19.6714V19.63C53.5992 19.5691 53.3498 19.4829 53.1107 19.3728C52.7321 19.1986 51.7504 18.5433 51.7504 17.577C51.7445 17.5066 51.7445 17.4358 51.7504 17.3654C51.7705 17.302 51.7705 17.2339 51.7504 17.1705C51.7028 17.2055 51.6607 17.2475 51.6256 17.2949C51.323 17.6353 50.8834 17.8226 50.4275 17.8051C50.0769 17.7914 49.7298 17.73 49.3958 17.6226C49.0967 17.512 48.8162 17.3568 48.5638 17.1622H48.5389C48.5389 17.1622 48.7677 18.2364 48.2934 18.9207C47.6486 19.8498 46.9123 20.0862 46.5254 20.7456C46.1385 21.4051 46.6086 22.0438 46.9414 22.3134L47.5737 22.7696C47.9822 23.0355 48.3518 23.3565 48.672 23.7235H48.7011C49.1838 23.7508 49.6607 23.8415 50.1197 23.9931L50.8352 24.1797C50.9529 24.2042 51.0727 24.2167 51.1929 24.2171C51.6873 24.2215 52.141 23.9446 52.3619 23.5037C52.6157 23.035 52.2163 21.8447 52.7238 20.812C52.9469 20.3112 53.3424 19.9066 53.8387 19.6714H53.8553ZM50.6438 21.3304L50.4733 22.7364L49.7744 21.4922L48.3475 21.7618L49.3584 20.7373L48.672 19.5221L49.9533 20.1152L50.96 19.0783L50.7728 20.4802L52.0707 21.1023L50.6438 21.3304Z" fill="#FFD800"/>
<path d="M54.0093 29.9737L54.1466 29.9198C54.0688 29.6615 53.937 29.4226 53.7597 29.2189L54.3878 28.1198C54.4669 28.1073 54.5462 28.1412 54.5917 28.2069C54.704 28.3687 54.8122 28.5553 54.8122 28.5553L55.1658 27.7714L54.9411 28.9452C54.9827 28.97 55.2822 29.2147 55.2822 29.2189L55.6982 29.1401H55.7274C55.7274 29.1401 55.9936 27.8959 55.9853 27.7756C55.977 27.6553 55.9853 27.2406 55.9853 27.0829H56.2058C56.5178 27.0829 56.967 26.5438 57.1792 26.4277C57.08 26.6693 57.0074 26.921 56.9629 27.1783C56.9539 27.354 56.9316 27.5286 56.8963 27.7009C56.7868 27.9708 56.6965 28.248 56.6259 28.5304C56.6259 28.5553 56.6259 28.5968 56.6259 28.6382C57.0452 28.2851 57.3118 27.7846 57.3706 27.2406V27.0415C57.3752 26.592 57.2288 26.154 56.9546 25.7972C56.7698 25.5965 56.6648 25.3355 56.6592 25.0631C56.6487 24.8331 56.7346 24.6091 56.8964 24.4447C57.0581 24.2803 57.2811 24.1903 57.512 24.1963C57.8287 24.211 58.1233 24.3624 58.319 24.6111C58.8891 25.2899 59.1921 26.1522 59.1718 27.0373V27.4106C59.1488 27.645 59.1042 27.8769 59.0387 28.1032C59.4728 27.361 59.7899 26.5567 59.9789 25.7184C60.3366 24.2005 60.0704 23.6447 59.9789 22.8152C59.9373 22.3507 59.8874 21.7369 59.2342 21.7286C58.5811 21.7203 58.656 23.4207 57.6035 23.4664C57.4657 23.4456 57.3346 23.3931 57.2208 23.3129L57.279 22.8277C57.6036 22.7612 57.8376 22.4778 57.8406 22.1475C57.8352 22.0801 57.8183 22.0142 57.7907 21.9525C58.0999 21.7361 58.2733 21.3744 58.2483 20.9986L58.7808 20.8203L58.5021 20.6668L58.5686 20.4221L58.2816 20.3765L58.3232 20.0613H58.0653L57.9946 19.6756L57.616 20.1318C57.4811 20.0863 57.3349 20.0863 57.2 20.1318C57.1334 20.1318 56.8464 20.1069 56.7424 20.335L56.6426 20.5548C56.9712 20.4429 57.1251 20.6129 57.1334 20.7954C57.1657 20.9662 57.2384 21.1269 57.3456 21.2641L57.2333 21.4134C57.0228 21.3162 56.7952 21.2612 56.5635 21.2516C56.3069 21.3056 56.0715 21.4323 55.8854 21.6166C55.7371 21.5933 55.5858 21.634 55.4694 21.7286L55.3571 21.8281C55.2324 21.7268 55.1618 21.5737 55.1658 21.4134C55.1658 21.1977 55.7898 20.9986 55.8771 20.5507C55.5606 20.7268 55.2587 20.9279 54.9744 21.1521C54.5584 21.4258 54.5002 21.6373 54.5002 22.7654C54.5002 24.0097 54.3005 24.3664 54.3005 24.3664C54.3335 24.7124 54.3405 25.0603 54.3213 25.4074C54.041 25.7129 53.7317 25.9907 53.3978 26.2369L52.9818 25.4986C52.996 25.4384 53.0071 25.3775 53.015 25.3161C53.0442 25.2912 53.0816 25.2788 53.1107 25.2498C53.3905 25.0143 53.616 24.7214 53.7722 24.3912C53.9791 23.864 54.063 23.2967 54.0176 22.7323C54.0176 21.1106 54.0966 21.1189 55.6608 20.2728L55.3488 18.2903L54.9328 18.3608C54.5906 18.3588 54.2539 18.2748 53.951 18.1161C53.7056 18 53.119 17.5438 53.1773 17.2203C53.3307 16.6053 53.0252 15.9683 52.4488 15.7012C51.8724 15.4341 51.187 15.612 50.8144 16.1253C50.6881 16.2236 50.5287 16.2696 50.3693 16.2539C49.6403 16.223 48.9878 15.794 48.672 15.1382L47.3616 15.9221C47.184 15.6911 46.9722 15.4883 46.7334 15.3207C46.5379 15.2005 46.2384 14.8106 45.9805 14.906C45.8598 14.9516 45.5354 15.3664 45.4064 15.4783C45.2774 15.5903 45.0944 15.8309 45.0112 15.9304C44.7603 15.5923 44.4618 15.292 44.1251 15.0387C43.9587 14.9184 43.7632 14.794 43.759 14.7235C43.7549 14.653 44.4995 14.5078 44.3997 14.1636C44.3414 13.9604 43.9587 13.9355 43.863 13.9313C43.7108 13.8153 43.5346 13.7346 43.3472 13.6949L43.0726 13.0313L42.9603 13.4461L42.6774 13.1599L42.6358 13.6161L42.2656 13.4295L42.3904 13.7903L41.9245 13.7074L42.3197 14.0599L41.7082 14.1429C41.7955 14.4373 42.4445 14.5866 42.6691 14.6115C42.6691 14.6488 42.6941 14.7111 42.7149 14.7857C42.8598 15.1513 43.1031 15.4699 43.4179 15.7065L43.5136 16.1668C43.2834 16.5612 42.9714 16.902 42.5984 17.1664C42.4112 17.3032 42.2573 17.4401 42.1158 17.5811C41.932 17.7358 41.7596 17.9035 41.6 18.0829C41.3255 18.2538 41.0924 18.4833 40.9178 18.7548C40.796 18.9898 40.744 19.2546 40.768 19.518C40.6557 19.5512 40.4851 19.5968 40.4435 19.4931C40.4373 19.456 40.4373 19.4182 40.4435 19.3811C40.4726 19.1571 40.2979 19.1986 40.2438 19.3811C40.2126 19.4654 40.2126 19.5581 40.2438 19.6424C40.2946 19.7545 40.3882 19.8418 40.5039 19.8846C40.6196 19.9275 40.7476 19.9224 40.8595 19.8705C40.9417 20.0067 41.0457 20.1286 41.1674 20.2313C41.2718 20.315 41.3593 20.4178 41.4253 20.5341C41.5293 20.8161 41.1258 21.3926 40.9386 21.6373L40.9053 21.7825C40.9909 21.9327 41.0646 22.0894 41.1258 22.2512C41.2339 22.6107 41.305 22.9804 41.3379 23.3544L41.625 23.6281L41.6998 23.8687L41.8288 23.9516C41.9581 24.0568 42.1249 24.1048 42.2906 24.0843C42.3302 24.0716 42.3625 24.0425 42.3792 24.0044C42.3959 23.9663 42.3954 23.923 42.3779 23.8853C42.3405 23.7857 42.0326 23.4705 41.9619 23.3378C41.8969 23.2425 41.8246 23.1523 41.7456 23.0682C41.7152 22.6416 41.6554 22.2175 41.5667 21.7991C41.8206 21.5934 42.0459 21.3549 42.2365 21.0899C42.432 20.7995 42.6774 20.4677 42.7606 20.3558C42.8763 20.4173 42.9652 20.5192 43.0102 20.6419C43.0573 20.7978 43.0687 20.9622 43.0435 21.123L43.185 21.2972C43.5331 21.4597 43.8434 21.6927 44.096 21.9816L44.6534 22.0604L44.824 22.2429H44.8864C45.0704 22.7544 45.3947 23.2042 45.8224 23.541L45.8765 23.5825L46.7418 24.1963C46.9654 24.3455 47.1781 24.5105 47.3782 24.6899C47.5037 24.9796 47.5469 25.2981 47.503 25.6106C47.4893 25.7418 47.5568 25.8681 47.6736 25.93C47.7963 25.9706 47.9315 25.9421 48.0272 25.8553C48.2803 25.6499 48.5602 25.4797 48.8592 25.3493C49.1132 25.3968 49.3646 25.4577 49.6122 25.5318L50.6438 25.8014C51.0833 25.9011 51.5397 25.9011 51.9792 25.8014L52.0374 25.8968C52.2963 25.956 52.5674 25.9313 52.8112 25.8263L53.2272 26.5023C53.2272 26.6184 53.1939 27.0332 53.352 27.0249C53.5101 27.0166 54.1382 26.7885 54.2173 26.7843C54.2963 26.7802 54.2173 26.9005 54.2173 27.0332C54.2173 27.3816 53.9968 27.4189 54.0176 27.8917L53.4144 29.0654C53.1107 29.0654 52.9734 28.8788 52.6822 28.8954C52.5863 28.9256 52.4963 28.9719 52.416 29.0323V29.1442C52.416 29.1442 52.6198 29.1442 52.7238 29.1442C52.8278 29.1442 52.832 29.1899 52.8694 29.2396C52.6639 29.2911 52.475 29.3939 52.3203 29.5382L52.3661 29.6668C52.5278 29.5761 52.7035 29.5131 52.8861 29.4802C52.976 29.4774 53.0658 29.4886 53.1523 29.5134C53.0726 29.6421 53.0123 29.7818 52.9734 29.9281L53.0982 29.9945C53.1357 29.9364 53.4019 29.6461 53.5475 29.6419C53.793 29.6419 53.9968 29.9654 54.0259 30.0194M45.8182 16.0507C45.9139 15.7811 46.0678 15.6359 46.176 15.6359C46.4256 15.6359 46.9206 16.2581 46.9664 16.3244C47.0754 16.759 47.1381 17.2039 47.1536 17.6516C47.0967 17.9866 46.9228 18.2907 46.6627 18.5101C46.6744 18.0245 46.6437 17.5388 46.5712 17.0585C46.5046 16.8677 45.7392 16.8885 45.3773 16.8885V16.8097C45.5428 16.5729 45.6915 16.3248 45.8224 16.0673M44.7283 21.3097C44.7323 21.4348 44.7448 21.5595 44.7658 21.683C44.4817 21.6049 44.211 21.4847 43.9629 21.3263C43.7489 21.1138 43.6114 20.8367 43.5718 20.5382C43.6103 20.1302 43.5606 19.7187 43.4262 19.3313C44.0208 18.8672 44.5671 18.3448 45.057 17.7719L45.889 17.606C46.0762 17.5687 46.0512 17.6267 46.072 17.7594L46.2426 18.7175C46.2226 18.8015 46.1947 18.8834 46.1594 18.9622C46.1594 18.9622 44.7491 19.8539 44.7491 21.3097M52.416 24.3083C52.0836 24.5985 51.6556 24.7565 51.2138 24.7521C51.0571 24.7515 50.901 24.7348 50.7478 24.7023L50.0074 24.5115C49.5904 24.3713 49.1569 24.2862 48.7178 24.2585H48.4349L48.3392 24.1217C48.0305 23.7674 47.6667 23.465 47.2618 23.2258L46.6128 22.7571C45.923 22.2421 45.6785 21.3221 46.0221 20.5341C46.2256 20.1704 46.5103 19.8582 46.8541 19.6217C47.1812 19.3869 47.4739 19.1077 47.7235 18.7922C47.7645 18.7513 47.8034 18.7084 47.84 18.6636L47.9357 18.4853C48.0259 18.2802 48.0699 18.0579 48.0646 17.8341C48.0594 17.5981 48.0301 17.3633 47.9773 17.1332L47.9357 16.9258L48.1229 16.818L48.4182 16.6396L48.6138 16.5194L48.7843 16.6687C49.0183 16.8708 49.2877 17.0283 49.5789 17.1332C49.8566 17.2215 50.1447 17.2731 50.4358 17.2866C50.735 17.3048 51.0261 17.1856 51.2262 16.9631C51.3378 16.7937 51.5193 16.6827 51.7213 16.6604C51.8141 16.6642 51.905 16.6883 51.9875 16.7309C52.1964 16.8036 52.3332 17.0039 52.3245 17.2244C52.3313 17.3017 52.3313 17.3794 52.3245 17.4567C52.3207 17.5022 52.3207 17.548 52.3245 17.5935C52.3245 18.2779 53.1565 18.8005 53.3728 18.9041C53.6189 19.0199 53.879 19.1035 54.1466 19.153L54.367 19.1903L54.4752 19.9327L54.2963 20.082C53.8654 20.2681 53.5064 20.5882 53.273 20.9945L53.2022 21.177C53.2022 21.2433 53.1731 21.3055 53.1606 21.3677C53.0992 21.6624 53.0699 21.9627 53.0733 22.2636V22.7903C53.0904 23.1194 53.0336 23.4482 52.9069 23.7525C52.7836 23.9697 52.6165 24.159 52.416 24.3083Z" fill="#FFD800"/>
<path d="M38.9834 10.1198H27.6224V11.1198H38.9834V10.1198Z" fill="#FFD800"/>
<path fill-rule="evenodd" clip-rule="evenodd" d="M29.8771 9.53917C29.9104 8.52304 30.4346 7.46544 31.8198 7.46544C32.4648 7.47413 33.0569 7.82294 33.3757 8.38203C33.7108 7.83318 34.3 7.48883 34.944 7.46544C36.2336 7.46544 36.841 8.51475 36.8826 9.53917H37.9392V9.49769C37.9392 7.68525 36.7786 6.42028 35.1104 6.42028C34.737 6.41775 34.3667 6.4882 34.0205 6.62765V3.39263H35.6304V2.3765H34.0122V0.75069H32.9056V2.3765H31.2998V3.39263H32.9056V6.66912C32.5147 6.48831 32.0885 6.39624 31.6576 6.39954C29.9645 6.39954 28.8246 7.64378 28.8246 9.47696C28.8246 9.47696 28.8246 9.50599 28.8246 9.51843L29.8771 9.53917Z" fill="#FFD800"/>
<path fill-rule="evenodd" clip-rule="evenodd" d="M29.4195 11.6129C30.3347 13.5581 32.0694 15.2793 33.3757 15.2793C34.6819 15.2793 36.4208 13.5581 37.336 11.6129H36.192C35.4557 13.0106 34.2867 14.2258 33.3882 14.2258C32.4896 14.2258 31.3082 13.0106 30.5843 11.6129H29.4195Z" fill="#FFD800"/>
<path fill-rule="evenodd" clip-rule="evenodd" d="M8.75681 56.6378C8.75512 66.5857 14.7644 75.555 23.9824 79.3631C33.2003 83.1711 43.8115 81.068 50.8676 74.0343C57.9237 67.0007 60.035 56.4218 56.217 47.231C52.399 38.0402 43.4036 32.0475 33.4256 32.0475C19.8087 32.0612 8.77286 43.0619 8.75681 56.6378Z" fill="#2A7DE1"/>
<path fill-rule="evenodd" clip-rule="evenodd" d="M35.2393 66.235C35.2393 67.2429 36.0588 68.0599 37.0697 68.0599C38.0806 68.0599 38.9002 67.2429 38.9002 66.235H35.2393Z" fill="white"/>
<path fill-rule="evenodd" clip-rule="evenodd" d="M41.521 66.6249C41.2108 66.5535 40.9105 66.4449 40.6266 66.3014C40.3354 66.7452 37.9933 70.4488 37.7146 70.9175C37.9656 71.0665 38.2357 71.1809 38.5174 71.2576C39.0777 71.3707 39.6534 71.3861 40.2189 71.3032C40.6773 71.2277 41.1458 71.239 41.6 71.3364C42.0381 71.5057 42.377 71.8618 42.5235 72.3069C42.6456 72.2021 42.7869 72.1218 42.9395 72.0705L42.5526 66.7161C42.2066 66.7369 41.8592 66.709 41.521 66.6332" fill="white"/>
<path fill-rule="evenodd" clip-rule="evenodd" d="M51.5549 61.706C51.8537 61.7127 52.127 61.5386 52.2465 61.2654C52.3659 60.9922 52.3079 60.6742 52.0995 60.4604C51.8912 60.2467 51.5739 60.1798 51.2966 60.2911C51.0193 60.4023 50.837 60.6697 50.8352 60.9677C50.8352 60.9677 50.8352 61.0009 50.8352 61.0175C49.504 61.1129 46.7875 61.1876 44.9197 59.8189C45.3062 59.401 45.2886 58.7522 44.88 58.3557C44.4714 57.9592 43.8204 57.9592 43.4118 58.3557C43.0032 58.7522 42.9856 59.401 43.3722 59.8189C41.5085 61.1876 38.7962 61.1171 37.4608 61.0217C37.463 61.0051 37.463 60.9884 37.4608 60.9719C37.4608 60.5665 37.1311 60.2378 36.7245 60.2378C36.3178 60.2378 35.9882 60.5665 35.9882 60.9719C35.9882 61.3773 36.3178 61.706 36.7245 61.706H42.9146L43.8755 75.1272C43.8755 75.2738 43.9947 75.3926 44.1418 75.3926C44.2888 75.3926 44.408 75.2738 44.408 75.1272L45.3606 61.706H51.5549Z" fill="white"/>
<path fill-rule="evenodd" clip-rule="evenodd" d="M46.9747 67.6037C46.6911 67.3794 46.366 67.2132 46.0179 67.1143C45.9195 67.0917 45.8193 67.0778 45.7184 67.0728L45.3024 72.7051C45.8598 72.9705 46.3382 73.3977 46.6544 73.4765C46.8784 73.5242 47.108 73.541 47.3366 73.5263C47.3366 73.5263 49.2544 69.2129 49.5373 68.4871C49.1348 68.4425 48.7359 68.3704 48.3434 68.2714C47.8475 68.1442 47.3831 67.9169 46.9789 67.6037" fill="white"/>
<path fill-rule="evenodd" clip-rule="evenodd" d="M51.2304 68.0599C51.7155 68.0599 52.1806 67.8675 52.5232 67.5252C52.8658 67.1828 53.0577 66.7186 53.0566 66.235H49.4C49.4 67.2429 50.2195 68.0599 51.2304 68.0599Z" fill="white"/>
<path d="M44.3123 41.4249C45.1056 41.4266 45.8216 40.9512 46.1259 40.2209C46.4302 39.4906 46.2629 38.6493 45.702 38.0901C45.141 37.5309 44.2973 37.364 43.5647 37.6675C42.8322 37.9709 42.3554 38.6847 42.3571 39.4756C42.356 39.9929 42.5617 40.4894 42.9286 40.8552C43.2955 41.221 43.7934 41.426 44.3123 41.4249ZM44.3123 38.7829C44.5937 38.7813 44.8483 38.949 44.9571 39.2076C45.066 39.4663 45.0076 39.7649 44.8092 39.9639C44.6108 40.1628 44.3117 40.2228 44.0516 40.1159C43.7915 40.0089 43.6218 39.7561 43.6218 39.4756C43.6207 39.2923 43.6929 39.1161 43.8225 38.9861C43.9522 38.8561 44.1285 38.7829 44.3123 38.7829Z" fill="white"/>
<path fill-rule="evenodd" clip-rule="evenodd" d="M39.1789 53.888H40.5392V50.541L39.1789 52.9134V53.888Z" fill="white"/>
<path fill-rule="evenodd" clip-rule="evenodd" d="M42.1907 47.6627L41.4045 49.0355V53.888H42.7648V48.8571C42.7648 48.6178 42.9594 48.4237 43.1995 48.4237C43.4396 48.4237 43.6342 48.6178 43.6342 48.8571V53.888H44.9904V48.8571C44.9904 48.6189 45.1841 48.4258 45.423 48.4258C45.662 48.4258 45.8557 48.6189 45.8557 48.8571V53.888H47.2202V49.0189L46.4422 47.6627H42.1907Z" fill="white"/>
<path fill-rule="evenodd" clip-rule="evenodd" d="M43.1766 41.9765C42.8289 41.8152 42.5175 41.5852 42.2614 41.3005C40.5974 45.5018 36.8784 54.9622 36.8867 54.9622L37.0822 55.0659L43.888 43.2166L43.1766 41.9765Z" fill="white"/>
<path fill-rule="evenodd" clip-rule="evenodd" d="M38.8045 47.3599C38.8045 46.5926 38.3885 46.1157 37.7312 46.1157C37.5616 46.0995 37.3929 46.1541 37.2652 46.2665C37.1375 46.3789 37.0622 46.539 37.0573 46.7088C37.0424 46.8348 37.0862 46.9607 37.1763 47.0505C37.2663 47.1402 37.3926 47.184 37.519 47.1691C37.7002 47.2182 37.8259 47.3822 37.8259 47.5694C37.8259 47.7565 37.7002 47.9205 37.519 47.9696C37.1849 47.9801 36.8613 47.8523 36.625 47.6167C36.3886 47.381 36.2605 47.0584 36.271 46.7253C36.2728 46.3425 36.4316 45.9769 36.7105 45.7137C36.9895 45.4505 37.3643 45.3125 37.7478 45.3318C38.4969 45.3036 39.1809 45.7538 39.4493 46.4516L40.2272 44.4774H37.9891C36.4333 44.4774 35.4681 45.3816 35.4681 46.8373C35.475 47.8992 36.3416 48.7558 37.4067 48.7535C37.7808 48.7675 38.144 48.6258 38.4091 48.3622C38.6742 48.0987 38.8174 47.7371 38.8045 47.3641" fill="white"/>
<path fill-rule="evenodd" clip-rule="evenodd" d="M45.9805 46.8581L44.6118 44.4733H44.0253L42.6525 46.8581H45.9805Z" fill="white"/>
<path fill-rule="evenodd" clip-rule="evenodd" d="M48.0813 53.888H49.4457V52.8968L48.0813 50.5203V53.888Z" fill="white"/>
<path fill-rule="evenodd" clip-rule="evenodd" d="M53.1565 46.8332C53.1565 45.3774 52.1914 44.4733 50.6355 44.4733H48.4182L49.192 46.4392C49.4636 45.7469 50.1442 45.3012 50.8893 45.3276C51.2732 45.3084 51.6484 45.4463 51.928 45.7094C52.2076 45.9725 52.3673 46.3379 52.3702 46.7212C52.3807 47.0543 52.2526 47.3769 52.0163 47.6125C51.7799 47.8482 51.4563 47.9759 51.1222 47.9654C50.9411 47.9164 50.8153 47.7524 50.8153 47.5652C50.8153 47.378 50.9411 47.2141 51.1222 47.165C51.2487 47.1798 51.375 47.1361 51.465 47.0463C51.555 46.9566 51.5989 46.8307 51.584 46.7046C51.5791 46.5341 51.5032 46.3732 51.3746 46.2607C51.246 46.1482 51.0762 46.0942 50.9059 46.1115C50.2362 46.1115 49.8368 46.576 49.8368 47.3558C49.8238 47.7288 49.9671 48.0904 50.2322 48.3539C50.4973 48.6175 50.8604 48.7592 51.2346 48.7452C52.2997 48.7475 53.1663 47.8909 53.1731 46.829" fill="white"/>
<path fill-rule="evenodd" clip-rule="evenodd" d="M44.3123 42.2253C44.2541 42.2253 44.2042 42.2253 44.1501 42.2253L51.5341 55.0825L51.7296 54.9788C51.7296 54.9788 48.0147 45.5267 46.3549 41.3212C45.8368 41.9043 45.0937 42.2393 44.3123 42.2419" fill="white"/>
<path fill-rule="evenodd" clip-rule="evenodd" d="M16.12 46.406C16.12 47.4968 16.952 48.0982 17.7091 48.6332C18.1958 48.9816 18.8157 49.2968 19.0736 49.6949L20.6419 49.2802C20.6419 49.2802 21.2784 48.8654 21.5821 48.6415C22.3267 48.1065 23.1712 47.5051 23.1712 46.4143V45.6221H16.0992L16.12 46.406Z" fill="white"/>
<path fill-rule="evenodd" clip-rule="evenodd" d="M18.5328 51.3041L20.9165 50.6406C21.0828 50.5467 21.1636 50.352 21.1124 50.1684C21.0612 49.9849 20.8912 49.8597 20.7002 49.865L18.304 50.5327C18.0937 50.5968 17.9697 50.8131 18.0211 51.0263C18.0872 51.2363 18.3063 51.3583 18.5203 51.3041" fill="white"/>
<path fill-rule="evenodd" clip-rule="evenodd" d="M20.7751 51.5115L18.3872 52.1751C18.1802 52.2426 18.0605 52.4579 18.1127 52.6687C18.1787 52.8767 18.3951 52.9982 18.6077 52.9465L20.9914 52.2829C21.1664 52.2812 21.3216 52.1705 21.3797 52.006C21.4378 51.8414 21.3864 51.6582 21.2511 51.5476C21.1158 51.4369 20.9256 51.4225 20.7751 51.5115Z" fill="white"/>
<path fill-rule="evenodd" clip-rule="evenodd" d="M27.7971 35.6018H25.5923V40.0521H21.7194V42.2502H25.5923V54.9207H27.7971V42.2502H31.6701V40.0521H27.7971V35.6018Z" fill="white"/>
<path d="M18.72 43.5069C18.1923 43.376 17.6495 43.316 17.1059 43.3286C16.3204 43.3587 15.5795 43.7002 15.0476 44.2772C14.5158 44.8542 14.2369 45.619 14.2729 46.4018C14.2729 48.6995 16.0742 49.7406 17.6009 50.317C17.7323 50.1411 17.9179 50.0129 18.1293 49.9521L18.2416 49.9189C18.0003 49.7198 17.4096 49.4585 16.5776 48.824C15.8371 48.2765 15.1091 47.6502 15.1091 46.4018C15.0523 45.2477 15.9366 44.2625 17.0934 44.1912C17.5933 44.1874 18.0909 44.2572 18.5702 44.3986C18.9862 44.5272 19.4688 44.9129 20.0595 44.9129C21.0579 44.9129 21.399 44.4982 21.399 44.4982L21.4656 44.1166C21.4656 44.1166 20.7334 43.3908 20.0179 43.3908C19.5801 43.3985 19.1435 43.4387 18.7117 43.5111M20.3757 44.0253C20.3757 44.1376 20.2844 44.2286 20.1718 44.2286C20.0592 44.2286 19.968 44.1376 19.968 44.0253C19.968 43.9131 20.0592 43.8221 20.1718 43.8221C20.2844 43.8221 20.3757 43.9131 20.3757 44.0253Z" fill="white"/>
<path fill-rule="evenodd" clip-rule="evenodd" d="M20.1053 53.1539L19.007 53.4608C18.591 53.8756 17.5718 54.3982 17.5718 54.8171V54.9166H21.7318V54.8171C21.7318 54.2945 20.1469 53.6309 20.1178 53.1581" fill="white"/>
<path fill-rule="evenodd" clip-rule="evenodd" d="M13.5782 74.306C13.4909 74.2065 13.287 73.9327 13.0541 73.6673C13.0083 73.6134 12.9459 73.5926 12.9085 73.6258C12.871 73.659 12.9085 73.7129 12.9085 73.7585C13.1872 74.082 13.1872 74.1484 12.5674 74.6793L10.5581 76.4005C10.4998 76.4461 10.4749 76.4585 10.3334 76.2926C9.98399 75.8779 10.0714 75.4383 10.5331 75.0484C10.6754 74.901 10.8707 74.816 11.0758 74.8121C11.281 74.8082 11.4794 74.8858 11.6272 75.0277C11.7146 75.1313 11.7645 75.1313 11.8019 75.1023C11.8394 75.0733 11.7645 74.9364 11.7312 74.8991C11.5163 74.6166 11.1926 74.4366 10.8386 74.4027C10.4845 74.3688 10.1324 74.4841 9.86751 74.7207C9.36831 75.1355 9.53471 75.7991 9.98399 76.3217C10.1462 76.5083 10.3584 76.7364 10.504 76.9023C10.6496 77.0682 10.8077 77.2756 10.9907 77.4912C11.0614 77.57 11.103 77.5825 11.1363 77.5535C11.1696 77.5244 11.1738 77.4747 11.1363 77.4166C10.9158 77.1636 10.8992 77.0558 11.1821 76.8194L13.1373 75.1604C13.6448 74.7207 13.7405 74.7207 13.9277 74.9364C13.9693 74.9862 14.0109 75.0152 14.0483 74.982C14.0858 74.9488 14.0858 74.8949 14.0234 74.8286C13.8902 74.6627 13.6531 74.4138 13.5699 74.3267" fill="#2A7DE1"/>
<path d="M10.6579 70.1959C10.3799 69.6711 9.89363 69.2869 9.3177 69.1371C8.74177 68.9872 8.12918 69.0855 7.62944 69.4078C6.58112 70.03 6.34816 71.1456 7.03872 72.3111C7.30151 72.8271 7.76862 73.2101 8.32716 73.3676C8.88571 73.5252 9.48486 73.4428 9.97984 73.1406C10.483 72.8589 10.8435 72.3786 10.9727 71.8178C11.1018 71.2571 10.9875 70.6681 10.6579 70.1959ZM7.37568 72.2696C6.93472 71.5313 7.20512 70.5816 8.20768 69.9802C9.5056 69.2088 10.088 69.8516 10.2877 70.1627C10.8077 71.0253 10.3792 71.9793 9.45568 72.535C8.34496 73.2028 7.70016 72.7797 7.39648 72.2696" fill="#2A7DE1"/>
<path fill-rule="evenodd" clip-rule="evenodd" d="M8.8816 67.4959C8.90656 67.5664 8.93984 67.5954 8.97728 67.5829C9.01472 67.5705 9.04384 67.5083 9.0064 67.4212C8.91488 67.1599 8.81504 66.9277 8.80256 66.8862C8.79008 66.8447 8.71104 66.5793 8.59456 66.2516C8.56544 66.1645 8.51968 66.123 8.4656 66.1396C8.41152 66.1562 8.424 66.1935 8.4656 66.2641C8.57376 66.5751 8.53632 66.7286 8.0496 66.9152L6.01952 67.6618L7.76672 64.0576C7.81089 63.9903 7.82866 63.9091 7.81664 63.8295C7.79584 63.7756 7.72928 63.7548 7.60864 63.7963L4.43872 64.8539C4.1184 64.9535 4.00192 64.9452 3.91456 64.688C3.88544 64.6092 3.85216 64.576 3.81056 64.5885C3.76896 64.6009 3.76064 64.6756 3.78976 64.7585C3.87296 65.0032 3.96032 65.1733 3.98112 65.2438C4.00192 65.3143 4.08096 65.5963 4.17248 65.8576C4.21408 65.9571 4.25568 66.0111 4.3056 65.9945C4.35552 65.9779 4.35552 65.924 4.33472 65.8617C4.21408 65.5217 4.264 65.447 4.64256 65.2894L6.83072 64.4599L5.0128 68.0184C4.95711 68.1106 4.9337 68.2185 4.94624 68.3253C4.94624 68.3876 5.05024 68.3876 5.16256 68.3461L8.24096 67.3175C8.74432 67.1475 8.79008 67.2304 8.8816 67.4917" fill="#2A7DE1"/>
<path fill-rule="evenodd" clip-rule="evenodd" d="M4.16 63.3816C4.21408 63.3816 4.27232 63.3525 4.25984 63.2862C4.25138 63.2395 4.20699 63.2081 4.16 63.2157C3.96864 63.2157 3.83552 63.1037 3.744 62.6931L3.5984 61.9424L6.20256 61.5276C7.03456 61.3949 7.10528 61.4281 7.1552 61.7226C7.1552 61.7848 7.18432 61.8304 7.24256 61.818C7.3008 61.8055 7.31328 61.7682 7.29664 61.677C7.26336 61.4696 7.19264 61.1336 7.17184 61.0175C7.15104 60.9014 7.10528 60.5323 7.0512 60.188C7.0512 60.1134 7.00128 60.0636 6.95136 60.076C6.90144 60.0885 6.89312 60.1382 6.89728 60.1922C6.968 60.6069 6.93056 60.6774 6.06528 60.8226L3.49856 61.2373L3.40288 60.6028C3.33632 60.1341 3.40288 59.9972 3.63168 59.9475C3.73152 59.9226 3.75232 59.8894 3.74816 59.8396C3.744 59.7899 3.7024 59.7857 3.62336 59.7899L3.016 59.8687C2.912 59.8687 2.88288 59.9143 2.88704 59.9641C2.95589 60.1216 3.00345 60.2876 3.02848 60.4576L3.41952 62.8134C3.44235 62.9771 3.44235 63.1432 3.41952 63.3069C3.41952 63.3525 3.45696 63.365 3.55264 63.3774C3.75895 63.3931 3.96616 63.3931 4.17248 63.3774" fill="#2A7DE1"/>
<path fill-rule="evenodd" clip-rule="evenodd" d="M3.01183 58.7323C3.01183 58.4378 3.08255 58.3963 3.27807 58.3756C3.47359 58.3548 3.59839 58.3548 4.40127 58.3134L5.32895 58.2719C5.83647 58.2512 6.25663 58.2346 6.46879 58.2512C6.68095 58.2677 6.74335 58.3424 6.75583 58.5581C6.75583 58.6244 6.75583 58.6742 6.82239 58.67C6.88895 58.6659 6.90559 58.6244 6.90143 58.5332C6.90143 58.3217 6.85567 57.9816 6.85151 57.8613C6.84735 57.741 6.85151 57.3802 6.85151 57.0318C6.85151 56.9406 6.80991 56.8991 6.75999 56.8991C6.71007 56.8991 6.69343 56.9571 6.69343 57.0152C6.69343 57.3138 6.69343 57.4631 6.46463 57.4839C6.23583 57.5046 5.81983 57.5336 5.30815 57.5544L4.38047 57.5959C3.58175 57.629 3.43199 57.6415 3.26975 57.6332C3.03263 57.6332 2.97439 57.5544 2.96191 57.318C2.96191 57.2682 2.96191 57.206 2.87455 57.206C2.78719 57.206 2.81215 57.2599 2.81631 57.3512C2.81631 57.5544 2.84959 57.8654 2.85791 57.9982C2.86623 58.1309 2.85791 58.4876 2.85791 58.6949C2.85791 58.7986 2.89119 58.8484 2.93279 58.8442C2.97439 58.8401 3.00767 58.7779 3.00767 58.7281" fill="#2A7DE1"/>
<path fill-rule="evenodd" clip-rule="evenodd" d="M2.87039 55.6217C2.91199 55.6217 2.93695 55.5843 2.94111 55.5097C2.97023 55.1323 3.03679 55.0949 3.57343 55.1281L5.94463 55.3023C6.68095 55.3604 6.70175 55.4392 6.68511 55.7171C6.68511 55.7834 6.68511 55.8249 6.74751 55.829C6.80991 55.8332 6.82655 55.7917 6.83487 55.7005C6.83487 55.4972 6.85983 55.1571 6.86815 55.0244C6.87647 54.8917 6.92223 54.5516 6.94719 54.2157C6.94719 54.1161 6.92223 54.0705 6.87647 54.0664C6.83071 54.0622 6.80575 54.112 6.79743 54.1742C6.77247 54.5682 6.75583 54.6553 5.99039 54.5889L5.15839 54.5267C5.13759 54.5267 5.12927 54.5267 5.13343 54.4811C5.13759 54.4355 5.17919 53.859 5.20415 53.7263C5.21626 53.6457 5.26087 53.5735 5.32764 53.5265C5.39441 53.4796 5.47754 53.4618 5.55775 53.4774C5.60351 53.4774 5.65759 53.4567 5.66175 53.4152C5.66591 53.3737 5.60351 53.3323 5.54111 53.3281C5.30174 53.3046 5.06414 53.2658 4.82975 53.212C4.81308 53.2069 4.79502 53.2096 4.78052 53.2192C4.76602 53.2289 4.75661 53.2445 4.75487 53.2618C4.75487 53.3406 4.90463 53.353 4.88799 53.5977L4.82975 54.4645C4.82975 54.4645 4.82975 54.5018 4.80479 54.4977L3.26975 54.3857C3.24063 54.3857 3.22815 54.3857 3.22815 54.3484L3.30303 53.5438C3.30303 53.3447 3.40287 53.2535 3.46943 53.2286C3.53173 53.205 3.59908 53.1978 3.66495 53.2078C3.73983 53.2078 3.77727 53.2078 3.78143 53.1415C3.78559 53.0751 3.74399 53.0668 3.68991 53.0544C3.63583 53.0419 3.31551 53.0046 3.27391 52.9963C3.23231 52.988 3.14079 52.9631 3.07423 52.9465C3.06205 52.9427 3.04898 52.9427 3.03679 52.9465C3.01846 52.94 2.99813 52.9424 2.98181 52.953C2.96549 52.9635 2.95506 52.9811 2.95359 53.0005C2.95615 53.0211 2.96325 53.0409 2.97439 53.0585V53.0876C2.98498 53.1618 2.98498 53.2372 2.97439 53.3115C2.97439 53.4318 2.89119 54.5101 2.87455 54.7175C2.85791 54.9249 2.82463 55.2028 2.80383 55.4765C2.80383 55.5843 2.80383 55.6341 2.87039 55.6382" fill="#2A7DE1"/>
<path fill-rule="evenodd" clip-rule="evenodd" d="M3.36128 51.5613C3.41952 51.271 3.51104 51.2502 3.70656 51.2751C3.90208 51.3 4.02272 51.329 4.81312 51.4742L5.72416 51.6525C6.22336 51.7521 6.6352 51.8309 6.83904 51.8972C7.04288 51.9636 7.08448 52.0465 7.04288 52.2622C7.04288 52.3244 7.04288 52.3783 7.08448 52.3866C7.12608 52.3949 7.176 52.3618 7.19264 52.2705C7.22592 52.0631 7.28 51.723 7.3008 51.6069C7.3216 51.4908 7.41728 51.1383 7.47968 50.7774C7.50048 50.6862 7.47968 50.6364 7.4256 50.6281C7.37152 50.6198 7.3424 50.6696 7.33408 50.7277C7.27584 51.018 7.21344 51.1424 7.00128 51.1424C6.78912 51.1424 6.36064 51.0429 5.86144 50.9433L4.9504 50.765C4.16 50.6157 4.0144 50.5908 3.85632 50.5452C3.62752 50.483 3.59008 50.4 3.63584 50.1636C3.63584 50.118 3.63584 50.0516 3.57344 50.0392C3.51104 50.0267 3.50272 50.0724 3.48192 50.1636C3.44448 50.3668 3.39872 50.6737 3.3696 50.8065C3.34048 50.9392 3.2656 51.2834 3.224 51.4866C3.224 51.5862 3.224 51.6401 3.2656 51.6484C3.3072 51.6567 3.35296 51.6028 3.36128 51.553" fill="#2A7DE1"/>
<path fill-rule="evenodd" clip-rule="evenodd" d="M5.69505 49.0147C7.11777 49.529 8.14113 48.6 8.57793 47.3558C8.69881 47.051 8.77042 46.729 8.79009 46.4018C8.79345 46.3196 8.75211 46.2419 8.68193 46.1986C8.47944 46.0657 8.2666 45.9492 8.04545 45.8502C7.99137 45.8502 7.94561 45.8502 7.92897 45.8834C7.91233 45.9166 7.92897 45.9581 8.00801 46.0161C8.38241 46.2816 8.46977 46.5719 8.22017 47.2894C7.91233 48.1728 7.08449 48.6415 5.91137 48.235C4.98785 47.8783 4.49697 47.2521 4.82977 46.294C5.03361 45.7051 5.47457 45.1825 6.00289 45.365C6.09025 45.3982 6.14849 45.365 6.16513 45.3318C6.18177 45.2986 6.14433 45.2406 6.06113 45.2074C5.97793 45.1742 5.68673 45.0622 5.52449 44.9959C5.36225 44.9295 5.29985 44.888 5.25825 44.8756C5.21665 44.8631 5.17505 44.8756 5.14177 44.9502C4.92501 45.3316 4.73594 45.7281 4.57601 46.1364C4.16001 47.3267 4.48865 48.5917 5.70753 49.0147" fill="#2A7DE1"/>
<path fill-rule="evenodd" clip-rule="evenodd" d="M5.96128 43.4323C6.09856 43.171 6.19008 43.1793 6.37728 43.2539C6.56448 43.3286 6.66432 43.3949 7.37984 43.7558L8.21184 44.1705C8.55677 44.3354 8.8928 44.5181 9.21856 44.718C9.41408 44.8424 9.40992 44.9295 9.31008 45.1327C9.28096 45.1866 9.27264 45.2364 9.31008 45.2613C9.34752 45.2862 9.40576 45.2613 9.44736 45.1783C9.53888 44.9876 9.68032 44.6806 9.73856 44.5728C9.7968 44.465 9.97568 44.1581 10.1546 43.847C10.1962 43.7641 10.1837 43.7101 10.1546 43.6894C10.1254 43.6687 10.0672 43.6894 10.0422 43.7558C9.90496 44.0212 9.80512 44.1373 9.62624 44.0502C9.44736 43.9631 9.03968 43.7765 8.58624 43.5442L7.75424 43.1295C7.03872 42.7604 6.92224 42.7147 6.76416 42.6111C6.60608 42.5074 6.54784 42.3995 6.66016 42.1963C6.66016 42.1548 6.6976 42.0885 6.6352 42.0553C6.5728 42.0221 6.55616 42.0553 6.51456 42.1548C6.41888 42.3373 6.28992 42.6194 6.22752 42.7396C6.16512 42.8599 5.9904 43.1544 5.89472 43.3493C5.8448 43.4447 5.84896 43.5028 5.89472 43.5194C5.94048 43.5359 5.99456 43.5194 6.01952 43.453" fill="#2A7DE1"/>
<path d="M10.2294 42.3788C10.4499 42.7147 10.4624 42.8682 10.271 43.1336C10.2502 43.171 10.2294 43.2166 10.271 43.2456C10.3126 43.2747 10.3542 43.2456 10.4083 43.1834C10.5664 42.9594 10.7203 42.7147 10.7578 42.6608C10.8534 42.5281 10.999 42.3456 11.0947 42.2046C11.1363 42.1465 11.1488 42.1051 11.0947 42.0677C11.0406 42.0304 11.0157 42.0677 10.9408 42.159C10.8659 42.2502 10.7702 42.3041 10.7078 42.2585C10.6247 42.1858 10.5519 42.1021 10.4915 42.0097L10.1754 41.5244C10.1629 41.5071 10.1629 41.4837 10.1754 41.4664L10.92 40.4129C10.92 40.4129 10.9533 40.3839 10.9699 40.388L11.9101 40.612C11.96 40.612 11.8269 40.865 11.8186 40.894C11.8102 40.923 11.7811 40.9811 11.8186 41.0101C11.856 41.0392 11.9267 41.0101 12.0058 40.8899C12.0848 40.7696 12.2387 40.5249 12.3261 40.3963C12.4134 40.2677 12.559 40.1018 12.6381 39.9816C12.767 39.7949 12.767 39.7327 12.7338 39.7078C12.7005 39.6829 12.6547 39.7078 12.6173 39.7493C12.4717 39.9567 12.1472 39.9152 11.8394 39.8447C10.9824 39.6705 8.72769 39.1396 8.41569 39.0774C8.26593 39.0484 8.20769 39.0525 8.17025 39.0774C8.13281 39.1023 8.17025 39.2018 8.25761 39.3553L10.2294 42.3788ZM9.06049 39.8903L10.6205 40.3051L9.98401 41.2134L9.07713 39.8945H9.05217L9.06049 39.8903Z" fill="#2A7DE1"/>
<path fill-rule="evenodd" clip-rule="evenodd" d="M16.4819 33.7189L15.6208 32.6779C15.2797 32.2631 15.2298 32.2009 15.4877 31.9853C15.5501 31.9313 15.5584 31.8899 15.5293 31.8484C15.5002 31.8069 15.4502 31.8235 15.3754 31.8857C15.2173 32.0184 15.0634 32.1636 14.9178 32.3005C14.7722 32.4373 14.639 32.5037 14.431 32.6779C14.3562 32.7401 14.3437 32.7899 14.3686 32.823C14.3936 32.8562 14.4518 32.8521 14.5101 32.823C14.8179 32.5659 14.8803 32.6323 15.2173 33.0346L16.145 34.1544C16.8106 34.9839 16.977 35.5023 16.3613 36C15.679 36.5682 15.1133 36.1783 14.5933 35.5396L13.6074 34.3576C13.2704 33.9429 13.2621 33.8599 13.4826 33.6774C13.5408 33.6276 13.5491 33.582 13.52 33.5447C13.4909 33.5074 13.4368 33.5115 13.3578 33.5779C13.2122 33.6982 13.025 33.8848 12.8669 34.0175C12.6464 34.1959 12.4717 34.3161 12.2512 34.4986C12.1763 34.5608 12.1597 34.6106 12.1971 34.6479C12.2346 34.6853 12.2678 34.6811 12.3261 34.6479C12.6048 34.4157 12.6838 34.424 13.0416 34.847L14.0442 36.0456C14.8346 36.9912 15.6208 37.07 16.4861 36.3484C17.4221 35.5687 17.2557 34.6894 16.4861 33.7687" fill="#2A7DE1"/>
<path fill-rule="evenodd" clip-rule="evenodd" d="M18.7741 33.5945C19.0237 34.0631 18.9488 34.1212 18.7075 34.2539C18.6368 34.2912 18.6202 34.3244 18.6368 34.3618C18.6534 34.3991 18.7242 34.4115 18.799 34.3618C19.0445 34.229 19.2608 34.0963 19.2982 34.0756C19.3357 34.0548 19.5853 33.9346 19.889 33.7687C19.968 33.723 20.0054 33.6733 19.9805 33.6235C19.9555 33.5737 19.9222 33.5903 19.8515 33.6235C19.5645 33.7811 19.4064 33.7687 19.1443 33.3249L18.0752 31.4502L21.9232 32.5783C21.9978 32.6088 22.0815 32.6088 22.1562 32.5783C22.2061 32.5535 22.2144 32.4829 22.1562 32.371L20.5962 29.447C20.4422 29.1484 20.4339 29.0323 20.671 28.9037C20.7418 28.8622 20.7709 28.8249 20.7501 28.7876C20.7293 28.7502 20.6544 28.7502 20.5837 28.7876C20.3507 28.912 20.1677 29.0281 20.1302 29.0571C20.0928 29.0862 19.7974 29.2147 19.5562 29.3475C19.4646 29.4055 19.4189 29.4512 19.4438 29.4968C19.4688 29.5424 19.5187 29.5341 19.577 29.4968C19.8931 29.3226 19.993 29.3558 20.1926 29.7083L21.3658 31.7198L17.5552 30.5336C17.4527 30.4986 17.3415 30.4986 17.239 30.5336C17.185 30.5627 17.1974 30.6456 17.239 30.7535L18.7741 33.5945Z" fill="#2A7DE1"/>
<path fill-rule="evenodd" clip-rule="evenodd" d="M22.3018 28.3355C22.5805 28.2318 22.6429 28.2982 22.7178 28.4806C22.7926 28.6631 22.8301 28.7793 23.113 29.5258L23.4291 30.3968C23.5678 30.7513 23.6886 31.1126 23.791 31.4793C23.8534 31.7032 23.791 31.7654 23.583 31.8401C23.5248 31.8401 23.4832 31.8899 23.4998 31.9396C23.5165 31.9894 23.5664 32.0018 23.6538 31.9728C23.8534 31.894 24.1654 31.7654 24.2819 31.724C24.3984 31.6825 24.7395 31.5788 25.0682 31.4627C25.1555 31.4295 25.1846 31.3839 25.1638 31.3341C25.143 31.2843 25.089 31.2885 25.0349 31.3092C24.7562 31.4088 24.6189 31.4253 24.5149 31.2304C24.4109 31.0355 24.2778 30.6332 24.0989 30.1562L23.7952 29.2811C23.5206 28.5304 23.4624 28.3935 23.4208 28.2359C23.3626 28.0078 23.4208 27.9332 23.6371 27.8502C23.6829 27.8502 23.737 27.8005 23.712 27.7341C23.687 27.6677 23.6454 27.6885 23.5581 27.7341C23.3667 27.8046 23.0755 27.9249 22.9507 27.9664C22.8259 28.0078 22.4848 28.1198 22.2893 28.1945C22.1894 28.2276 22.152 28.2691 22.1686 28.3106C22.1853 28.3521 22.256 28.3645 22.3018 28.3479" fill="#2A7DE1"/>
<path fill-rule="evenodd" clip-rule="evenodd" d="M29.016 26.4899C29.0909 26.4899 29.12 26.4484 29.1117 26.3986C29.1034 26.3488 29.0451 26.3323 28.9536 26.353C28.8621 26.3737 28.6666 26.4359 28.4752 26.4774C28.2839 26.5189 28.1799 26.5189 27.9136 26.5728C27.7971 26.5977 27.7472 26.6392 27.768 26.6889C27.7888 26.7387 27.8304 26.7429 27.8928 26.7304C28.0592 26.6931 28.1466 26.7304 28.1632 26.7719C28.1735 26.8351 28.1735 26.8995 28.1632 26.9627L27.6931 29.7083L26.312 27.6014C26.2296 27.4869 26.1611 27.3629 26.1082 27.2323C26.0832 27.112 26.2247 27.0912 26.312 27.0664C26.3994 27.0415 26.4119 27.0249 26.4035 26.9751C26.3952 26.9253 26.3162 26.9129 26.2413 26.9295C25.9751 26.9834 25.7296 27.0581 25.6007 27.0871C25.4717 27.1161 25.1181 27.17 24.8394 27.2281C24.7437 27.2281 24.6771 27.2903 24.6896 27.3401C24.7021 27.3899 24.7395 27.4023 24.7936 27.3899C25.0525 27.3098 25.3317 27.4271 25.4551 27.6677L27.5351 30.629C27.6266 30.7618 27.7015 30.824 27.7555 30.8115C27.8096 30.7991 27.8679 30.7161 27.9053 30.5046L28.6291 27.1037C28.7207 26.6889 28.7872 26.5438 29.0451 26.4899" fill="#2A7DE1"/>
<path fill-rule="evenodd" clip-rule="evenodd" d="M32.9763 29.2438C32.9181 29.2438 32.9056 29.2853 32.8973 29.3516C32.8723 29.5631 32.8224 29.6585 32.6976 29.7332C32.4807 29.7942 32.2572 29.8291 32.032 29.8369C31.6493 29.8618 31.616 29.8369 31.5744 29.4926C31.5744 29.335 31.5328 28.8705 31.4954 28.2774C31.4939 28.2694 31.4964 28.2611 31.5023 28.2553C31.5081 28.2494 31.5164 28.2469 31.5245 28.2484L32.2525 28.2028C32.5021 28.2028 32.5645 28.3894 32.5728 28.5512C32.5739 28.571 32.5828 28.5895 32.5976 28.6028C32.6125 28.616 32.632 28.6228 32.6518 28.6217C32.7226 28.6217 32.7226 28.547 32.7184 28.4931C32.7184 28.2069 32.7434 27.8212 32.7184 27.7507C32.7184 27.714 32.6886 27.6843 32.6518 27.6843C32.6144 27.6843 32.5894 27.7382 32.5229 27.7922C32.388 27.8793 32.2301 27.9241 32.0694 27.9207C31.8448 27.9207 31.5786 27.9456 31.5037 27.9498C31.4288 27.9539 31.4579 27.9498 31.4579 27.9166L31.3664 26.5064V26.4774C32.4022 26.4111 32.4397 26.4359 32.5062 26.7802C32.5062 26.8217 32.5062 26.8797 32.5811 26.8756C32.6044 26.8759 32.6267 26.8659 32.6419 26.8483C32.6572 26.8307 32.6638 26.8073 32.6602 26.7843C32.645 26.5551 32.645 26.3251 32.6602 26.0959C32.6602 26.0544 32.6602 26.0171 32.5978 26.0212C32.4981 26.0616 32.3929 26.0868 32.2858 26.0959L30.9546 26.1829C30.8048 26.1829 30.472 26.1829 30.1808 26.2203C30.081 26.2203 30.0394 26.2576 30.0435 26.3032C30.0477 26.3488 30.0851 26.3737 30.1683 26.3696C30.4678 26.3696 30.5843 26.4111 30.5843 26.6309C30.5843 26.8507 30.6134 26.9419 30.6634 27.7382L30.784 28.6839C30.784 28.9576 30.809 29.2189 30.8214 29.4304C30.863 30.0235 30.8214 30.0857 30.5261 30.1023C30.4595 30.1023 30.4221 30.1313 30.4221 30.1811C30.4221 30.2309 30.4637 30.2558 30.5552 30.2516L31.2291 30.1935C31.7949 30.1562 32.319 30.1521 32.839 30.1189C32.9514 30.1189 32.9888 30.065 33.0179 29.9488C33.0368 29.7531 33.0451 29.5565 33.0429 29.3599C33.0429 29.2894 33.0429 29.2355 32.968 29.2438" fill="#2A7DE1"/>
<path d="M34.241 30.1065C34.4531 30.1313 34.7859 30.1438 34.8899 30.1521C34.9939 30.1604 35.3642 30.206 35.6762 30.235C35.7677 30.235 35.8051 30.2143 35.8093 30.1687C35.8134 30.123 35.776 30.0982 35.7302 30.094C35.3142 30.0525 35.2685 29.9447 35.3142 29.3889L35.3891 28.5594L35.855 28.6175C35.8878 28.6207 35.9171 28.6392 35.9341 28.6673C36.113 28.9203 36.2419 29.1774 36.3875 29.4221C36.7578 30.0359 37.0406 30.3636 37.6355 30.4134L38.143 30.4631C38.2304 30.4631 38.272 30.4631 38.2803 30.3968C38.2886 30.3304 38.2429 30.3221 38.193 30.318C37.777 30.2806 37.4234 29.9986 36.4874 28.4267C36.9226 28.2157 37.2204 27.7985 37.2778 27.3194C37.3485 26.5728 36.6829 26.2825 35.9965 26.2203C35.8342 26.2203 35.4307 26.1912 35.2477 26.1747C35.1354 26.1747 34.8026 26.1207 34.5197 26.0959C34.4157 26.0959 34.3782 26.0959 34.3741 26.1498C34.3699 26.2037 34.399 26.2327 34.4781 26.2369C34.8941 26.2783 34.8941 26.3613 34.8525 26.8341L34.6195 29.3475C34.5696 29.8659 34.5238 29.9862 34.2035 29.9613C34.1411 29.9613 34.0912 29.9613 34.0829 30.0194C34.0746 30.0774 34.1203 30.1023 34.2118 30.1106L34.241 30.1065ZM35.5722 26.5438C35.5722 26.5065 35.5722 26.4733 35.8842 26.4982C36.1222 26.5228 36.3381 26.6484 36.4767 26.8429C36.6153 27.0375 36.6631 27.2821 36.608 27.5143C36.5664 27.9954 36.3459 28.3438 35.8675 28.3065C35.5722 28.2774 35.4515 28.2318 35.4515 28.1406L35.5722 26.5438Z" fill="#2A7DE1"/>
<path fill-rule="evenodd" clip-rule="evenodd" d="M41.105 30.0857C41.3962 28.8829 39.8819 28.3313 40.065 27.5682C40.1014 27.4214 40.1993 27.2973 40.3338 27.2275C40.4684 27.1576 40.6265 27.1488 40.768 27.2032C41.1148 27.2606 41.3539 27.5814 41.3088 27.929C41.3088 27.9829 41.3088 28.0535 41.3587 28.0659C41.4086 28.0783 41.4544 28.0369 41.4877 27.9083C41.5834 27.4935 41.6374 27.365 41.6499 27.3028C41.6558 27.2613 41.6361 27.2204 41.6 27.1991C41.385 27.084 41.1535 27.0029 40.9136 26.9585C40.1814 26.7802 39.5866 27.0747 39.4493 27.6677C39.1664 28.829 40.664 29.3267 40.4435 30.235C40.3971 30.4004 40.2837 30.539 40.1306 30.6177C39.9775 30.6964 39.7985 30.708 39.6365 30.6498C39.4296 30.6109 39.2484 30.4875 39.137 30.3094C39.0255 30.1313 38.9939 29.9148 39.0499 29.7124C39.0499 29.6585 39.0499 29.6005 39 29.588C38.9501 29.5756 38.896 29.6253 38.871 29.7166L38.688 30.4009C38.6422 30.5544 38.9834 30.77 39.52 30.8945C40.2106 31.0645 40.9552 30.7991 41.1299 30.0857" fill="#2A7DE1"/>
<path fill-rule="evenodd" clip-rule="evenodd" d="M43.5469 32.0184C43.5469 31.9728 43.5177 31.9313 43.4678 31.9147C43.1891 31.8111 43.0518 31.724 43.1184 31.5C43.185 31.276 43.3264 30.8903 43.5053 30.4092L43.8256 29.5424C44.1043 28.7917 44.1501 28.6507 44.2416 28.5014C44.3331 28.3521 44.4288 28.2608 44.6576 28.3479C44.7034 28.3479 44.7658 28.3728 44.7907 28.3065C44.8157 28.2401 44.7658 28.2276 44.6826 28.1945L44.0627 27.983C43.9171 27.929 43.6093 27.8005 43.4138 27.73C43.3139 27.6926 43.2598 27.7009 43.2432 27.73C43.2265 27.759 43.2765 27.8253 43.3264 27.8419C43.6051 27.9456 43.6093 28.0369 43.551 28.2277C43.4928 28.4184 43.447 28.5304 43.1766 29.2811L42.848 30.1811C42.6691 30.6622 42.5235 31.0521 42.432 31.2429C42.3405 31.4336 42.2448 31.4585 42.016 31.3839C41.9578 31.3839 41.9078 31.3548 41.8912 31.3839C41.8746 31.4129 41.8912 31.4793 41.9869 31.5083L42.6234 31.724C42.7565 31.7696 43.0685 31.9106 43.3971 32.0309C43.4845 32.0641 43.5344 32.0309 43.551 31.9977" fill="#2A7DE1"/>
<path d="M44.5411 32.3502C44.5411 32.3917 44.5411 32.4373 44.6243 32.4829C44.8073 32.5866 45.1069 32.7359 45.2192 32.7982C45.448 32.9267 45.839 33.2129 46.1801 33.4037C47.3449 34.0631 48.6179 33.9677 49.3085 32.7318C49.999 31.4959 49.3085 30.488 47.9232 29.7124C47.6445 29.5548 47.3408 29.4014 47.1993 29.3226C47.0579 29.2438 46.7834 29.0654 46.5379 28.9327C46.4464 28.8788 46.3923 28.8829 46.3715 28.9327C46.3507 28.9825 46.3715 29.0115 46.4422 29.053C46.696 29.194 46.7667 29.3143 46.6586 29.5051C46.5504 29.6959 46.5088 29.7871 46.1177 30.4839L45.6643 31.2926C45.0195 32.4498 44.9446 32.4954 44.7408 32.3834C44.6285 32.3171 44.5702 32.3046 44.5411 32.3544M46.0637 32.0641L47.2659 29.9323C47.3491 29.7829 47.3782 29.7539 47.6819 29.9323C48.6969 30.4963 49.1005 31.4751 48.5472 32.4954C47.9939 33.5157 47.2617 33.6857 46.2841 33.1382C45.6851 32.8065 45.7017 32.6696 46.0429 32.0641" fill="#2A7DE1"/>
<path d="M51.9542 36.5848C52.1997 35.7553 52.911 33.5488 52.9984 33.2668C53.04 33.1175 53.04 33.0636 52.9984 33.0221C52.9568 32.9806 52.8736 33.0221 52.7113 33.0885L49.5622 34.7724C49.2128 34.9631 49.0547 34.9631 48.8051 34.7724C48.7718 34.7433 48.7261 34.7226 48.6928 34.7724C48.6595 34.8221 48.6928 34.8553 48.7427 34.9134C48.9549 35.0876 49.1878 35.2618 49.2377 35.3032C49.3625 35.4069 49.5331 35.5645 49.6537 35.6765C49.7078 35.7221 49.7494 35.7387 49.791 35.6765C49.8326 35.6143 49.791 35.5977 49.712 35.5147C49.6329 35.4318 49.583 35.3406 49.6329 35.2783C49.71 35.2006 49.7984 35.1349 49.895 35.0834L50.4109 34.8097C50.427 34.7979 50.4488 34.7979 50.4649 34.8097L51.455 35.6392C51.455 35.6392 51.4841 35.6724 51.48 35.6889L51.1763 36.6055C51.1763 36.6512 50.9309 36.5018 50.9059 36.4894C50.8809 36.477 50.8185 36.4479 50.7894 36.4894C50.7603 36.5309 50.7894 36.5972 50.8934 36.6843C50.9974 36.7714 51.2387 36.9456 51.3552 37.0452C51.4717 37.1447 51.6339 37.2982 51.7379 37.3853C51.9126 37.5304 51.9709 37.5346 52 37.5014C52.0291 37.4682 52 37.4267 51.9667 37.3853C51.7753 37.2194 51.8419 36.9041 51.9376 36.6055L51.9542 36.5848ZM51.6006 35.3613L50.752 34.6065L52.1456 33.8101V33.7853L51.6006 35.3613Z" fill="#2A7DE1"/>
<path d="M53.7306 39.5751C54.5834 40.612 55.8106 40.977 56.8963 40.0728C57.9821 39.1687 57.7283 37.9991 56.6925 36.7548C56.4886 36.5101 56.2765 36.2571 56.1558 36.1327C56.0352 36.0083 55.8563 35.747 55.6816 35.5313C55.6109 35.4525 55.5651 35.4359 55.5277 35.465C55.4902 35.494 55.4902 35.5396 55.5485 35.606C55.7357 35.83 55.7565 35.9668 55.5859 36.1078C55.4154 36.2488 55.3446 36.3152 54.729 36.8295L54.0134 37.4226C52.9942 38.2521 52.9069 38.2853 52.7654 38.1028C52.6822 38.0074 52.6365 37.9742 52.5907 38.0074C52.545 38.0406 52.5616 38.0903 52.6198 38.1608C52.753 38.3267 52.9776 38.5756 53.0608 38.671C53.2272 38.87 53.4768 39.2806 53.7389 39.5793M54.1133 38.2853L56.0061 36.7217C56.1392 36.6138 56.1808 36.5972 56.4221 36.8793C57.1667 37.7751 57.1917 38.8327 56.3014 39.5834C55.4112 40.3341 54.6749 40.2346 53.9594 39.376C53.5184 38.8452 53.585 38.729 54.1174 38.2853" fill="#2A7DE1"/>
<path fill-rule="evenodd" clip-rule="evenodd" d="M58.4147 47.3018C58.4696 47.3642 58.5536 47.3926 58.6352 47.3765C58.8738 47.3331 59.1088 47.2721 59.3382 47.194C59.3882 47.1733 59.4173 47.1359 59.3965 47.0903C59.3757 47.0447 59.3507 47.0323 59.2467 47.0488C58.7933 47.1111 58.5312 46.9576 58.2234 46.265C57.8406 45.4106 58.1194 44.5065 59.255 44.0005C60.1786 43.6313 60.9606 43.7558 61.3766 44.6765C61.6304 45.2447 61.6678 45.9207 61.1562 46.153C61.073 46.1903 61.0397 46.2359 61.0605 46.2899C61.0813 46.3438 61.1395 46.3396 61.2269 46.2899C61.3142 46.2401 61.5971 46.1406 61.7594 46.0742C61.9216 46.0078 62.0006 45.9995 62.0381 45.9829C62.0755 45.9664 62.0963 45.9249 62.0714 45.8502C61.9728 45.4267 61.8435 45.0108 61.6845 44.606C61.1686 43.4571 60.0621 42.7562 58.8848 43.2788C57.4954 43.8719 57.3747 45.2364 57.9155 46.4516C58.0381 46.7521 58.2064 47.0319 58.4147 47.2811" fill="#2A7DE1"/>
<path d="M58.8266 48.0235C58.8266 47.982 58.7891 47.9364 58.735 47.9613C58.681 47.9862 58.6685 48.0111 58.6893 48.1023C58.76 48.3677 58.8432 48.6498 58.8557 48.7078C58.8973 48.8654 58.9389 49.0977 58.9805 49.2636C59.0013 49.33 59.0221 49.3673 59.0845 49.3548C59.1469 49.3424 59.1469 49.3009 59.1136 49.1765C59.0803 49.0521 59.1136 48.9567 59.1926 48.9401C59.3016 48.9245 59.4123 48.9245 59.5213 48.9401L60.0995 49.023C60.1203 49.023 60.1328 49.023 60.1411 49.0645L60.449 50.3088C60.4578 50.3256 60.4578 50.3458 60.449 50.3627L59.6627 50.9226C59.617 50.9475 59.5254 50.6945 59.5088 50.6696C59.4922 50.6447 59.4672 50.5866 59.4173 50.5949C59.3674 50.6032 59.3507 50.6862 59.3882 50.8147C59.4256 50.9433 59.513 51.2295 59.5504 51.3829C59.5878 51.5364 59.6211 51.7521 59.6544 51.8806C59.7085 52.1005 59.7542 52.1419 59.7958 52.1295C59.8374 52.1171 59.8582 52.0797 59.8416 52.0175C59.7792 51.7687 60.0246 51.553 60.2784 51.3664C60.9731 50.8355 62.8493 49.4834 63.103 49.2926C63.2237 49.1972 63.257 49.1516 63.2486 49.0977C63.2403 49.0438 63.1613 49.0106 62.9782 48.9816L59.4381 48.488C59.0429 48.4341 58.9181 48.3429 58.839 48.0235H58.8266ZM62.0797 49.2429H62.1005H62.0797L60.7485 50.1512L60.4822 49.0562L62.0797 49.2429Z" fill="#2A7DE1"/>
<path fill-rule="evenodd" clip-rule="evenodd" d="M63.1072 52.1212C63.0489 52.1212 62.9949 52.1212 63.0032 52.2083C63.0053 52.2303 63.0161 52.2506 63.0333 52.2647C63.0505 52.2787 63.0726 52.2853 63.0947 52.2829C63.2861 52.2829 63.4109 52.4198 63.4649 52.8346L63.5523 53.5935L60.9232 53.83C60.0912 53.9046 60.0163 53.859 59.9872 53.5645C59.9872 53.5023 59.9622 53.4525 59.9081 53.465C59.8541 53.4774 59.8333 53.5065 59.8416 53.5977C59.8624 53.8092 59.9081 54.1493 59.9165 54.2654C59.9248 54.3816 59.9456 54.7548 59.9789 55.0949C59.9789 55.1737 60.0205 55.2276 60.0662 55.2152C60.112 55.2028 60.1328 55.1613 60.1286 55.1032C60.0912 54.6885 60.1286 54.618 61.0189 54.5392L63.6105 54.3069L63.6563 54.9498C63.6896 55.4226 63.5939 55.5512 63.3776 55.5843C63.2777 55.5843 63.2528 55.6341 63.2569 55.6797C63.2611 55.7253 63.2985 55.7419 63.3776 55.7419C63.4566 55.7419 63.8809 55.7419 63.9891 55.7088C64.0973 55.6756 64.1264 55.6756 64.1222 55.6258C64.0665 55.4636 64.0316 55.2949 64.0182 55.124L63.8061 52.7433C63.797 52.5786 63.8139 52.4135 63.856 52.2539C63.856 52.2041 63.8185 52.1959 63.727 52.1751C63.5224 52.1388 63.315 52.1194 63.1072 52.1171" fill="#2A7DE1"/>
<path d="M64.6838 59.8853C64.6547 59.8479 64.2221 59.0931 64.0265 58.7945C64.0426 57.6492 63.1244 56.7077 61.9757 56.6917C60.8269 56.6757 59.8826 57.5911 59.8665 58.7364C59.7879 59.3242 59.9594 59.918 60.3394 60.3741C60.7195 60.8302 61.2735 61.1071 61.8675 61.1378C63.0697 61.2332 63.8976 60.4825 64.0307 59.1926C64.1472 59.6074 64.2928 60.1507 64.2928 60.1673C64.3011 60.1978 64.3234 60.2226 64.353 60.234C64.3825 60.2455 64.4158 60.2423 64.4425 60.2253C64.5179 60.1898 64.5903 60.1482 64.6589 60.1009C64.7046 60.0719 64.7462 59.9972 64.688 59.8853M63.7478 58.9438C63.6729 59.7982 62.9158 60.4203 61.7302 60.3249C60.2326 60.2046 60.1286 59.3461 60.1577 58.9853C60.2368 57.9857 61.1437 57.4465 62.2377 57.5378C63.5315 57.6415 63.8019 58.3673 63.752 58.9438" fill="#2A7DE1"/>
<path fill-rule="evenodd" clip-rule="evenodd" d="M63.2736 62.9461C63.1779 63.3152 63.0947 63.2945 62.4957 63.1452L60.4822 62.6267C59.6502 62.4194 59.5504 62.3737 59.6502 62.0502C59.6502 61.988 59.6502 61.9382 59.6086 61.93C59.567 61.9217 59.5254 61.93 59.5005 62.0419C59.4464 62.2452 59.3798 62.5728 59.3507 62.6889C59.2426 63.1037 59.1219 63.4396 58.9347 64.1903C58.8682 64.4558 58.8806 64.5138 58.9971 64.576C59.207 64.6725 59.4223 64.757 59.6419 64.829C59.7251 64.829 59.7667 64.829 59.7792 64.7876C59.7917 64.7461 59.7376 64.6963 59.696 64.6797C59.3549 64.5263 59.2426 64.3894 59.3798 63.8502C59.5462 63.1991 59.6128 63.1576 60.3242 63.3359L62.3376 63.8419C62.9907 64.0037 63.0032 64.0535 62.92 64.3894C62.895 64.4724 62.92 64.5097 62.9616 64.5221C63.0032 64.5346 63.0406 64.5221 63.0656 64.4101C63.1155 64.2069 63.1987 63.8253 63.2278 63.7092C63.257 63.5931 63.3651 63.2488 63.4192 63C63.4525 62.9046 63.4192 62.8548 63.3859 62.8424C63.3526 62.83 63.311 62.8424 63.2902 62.9419" fill="#2A7DE1"/>
<path fill-rule="evenodd" clip-rule="evenodd" d="M62.0339 67.1641C61.9257 67.4419 61.8301 67.4419 61.6429 67.3839C61.4557 67.3258 61.3433 67.2719 60.5945 66.9691L59.7334 66.6249C59.3744 66.4955 59.023 66.346 58.6809 66.177C58.4688 66.0733 58.4646 65.9862 58.5478 65.7622C58.5728 65.7042 58.5769 65.6502 58.5478 65.6336C58.5187 65.6171 58.4521 65.6336 58.4189 65.729C58.344 65.9281 58.2317 66.2475 58.1901 66.3594C58.1485 66.4714 57.9904 66.7991 57.8614 67.1184C57.8281 67.2055 57.8614 67.2553 57.8905 67.276C57.9197 67.2968 57.9779 67.2512 57.9987 67.1972C58.111 66.9194 58.1942 66.7825 58.4147 66.8613C58.6352 66.9401 59.0221 67.0811 59.4963 67.276L60.3574 67.6203C61.1021 67.9147 61.2435 67.9645 61.3891 68.035C61.6013 68.1429 61.6262 68.2258 61.5389 68.4498C61.5181 68.4954 61.5097 68.5618 61.5763 68.5866C61.6429 68.6115 61.6512 68.5659 61.6886 68.4788C61.7635 68.288 61.8633 67.9936 61.9133 67.8691C61.9632 67.7447 62.1088 67.4212 62.1837 67.2304C62.2253 67.1309 62.2169 67.077 62.1837 67.0604C62.1504 67.0438 62.088 67.0894 62.0713 67.135" fill="#2A7DE1"/>
<path fill-rule="evenodd" clip-rule="evenodd" d="M59.2758 69.217C57.9738 68.4498 56.7798 69.1548 56.135 70.3078C55.9621 70.5871 55.8318 70.8904 55.7482 71.2078C55.7318 71.2884 55.7586 71.3716 55.8189 71.4277C55.9953 71.5938 56.1829 71.7476 56.3805 71.888C56.4304 71.917 56.4803 71.917 56.5053 71.888C56.5302 71.859 56.5053 71.8134 56.447 71.7429C56.1309 71.4152 56.1018 71.1083 56.4762 70.453C56.9421 69.6235 57.8406 69.3332 58.9181 69.947C59.7501 70.4737 60.1286 71.1912 59.6211 72.0539C59.3133 72.5972 58.7891 73.0286 58.2982 72.7507C58.2192 72.7051 58.161 72.7051 58.1318 72.7507C58.1027 72.7963 58.1318 72.8419 58.215 72.8917C58.2982 72.9415 58.552 73.1032 58.7018 73.1986C58.8515 73.294 58.9056 73.3438 58.9389 73.3645C58.9722 73.3853 59.0221 73.3645 59.0678 73.3147C59.3554 72.9842 59.6168 72.632 59.8499 72.2613C60.4822 71.1705 60.3949 69.8682 59.2758 69.2253" fill="#2A7DE1"/>
<path d="M55.3821 72.7217C55.1949 72.3733 55.1949 72.2198 55.4029 71.9668C55.432 71.9336 55.4528 71.888 55.4029 71.8548C55.3529 71.8217 55.3197 71.8341 55.2614 71.9046C55.0867 72.1161 54.912 72.3484 54.8704 72.3982C54.7664 72.5226 54.6041 72.6926 54.496 72.8129C54.4502 72.8668 54.4336 72.9083 54.496 72.9498C54.5584 72.9912 54.575 72.9498 54.6541 72.871C54.7331 72.7922 54.8329 72.7424 54.8953 72.7922C54.9712 72.8708 55.0369 72.9585 55.0909 73.0535L55.3654 73.5677C55.3787 73.5833 55.3787 73.6061 55.3654 73.6217L54.5334 74.6088C54.5334 74.6295 54.5001 74.6378 54.4835 74.6336L53.5641 74.3309C53.5184 74.3101 53.6681 74.0862 53.6806 74.0613C53.6931 74.0364 53.7222 73.9742 53.6806 73.9452C53.639 73.9161 53.5683 73.9452 53.4809 74.0489C53.3936 74.1525 53.223 74.3931 53.1232 74.5134C53.0233 74.6336 52.8653 74.7871 52.7821 74.8908C52.6365 75.065 52.6323 75.1272 52.6656 75.1521C52.6989 75.177 52.7405 75.1521 52.7821 75.123C52.9443 74.924 53.2646 74.9945 53.5641 75.0899C54.3961 75.3346 56.6051 76.0438 56.9129 76.1309C57.0627 76.1723 57.1168 76.1723 57.1584 76.1309C57.2 76.0894 57.1584 76.0065 57.0918 75.8447L55.3821 72.7217ZM54.808 74.7664L55.5318 73.9037L56.3305 75.2931L54.808 74.7664Z" fill="#2A7DE1"/>
<path d="M19.2525 79.1917L18.5411 78.777C18.4122 78.7023 18.1251 78.5074 17.8963 78.3622C17.8048 78.3083 17.7549 78.3124 17.7258 78.3622C17.6966 78.412 17.7258 78.441 17.7923 78.4825C18.0419 78.636 18.1085 78.7562 17.9962 78.9429C17.8838 79.1295 17.8381 79.2207 17.4221 79.9051L16.9437 80.7014C16.2573 81.8336 16.1782 81.8793 15.9786 81.759C15.8704 81.6926 15.8122 81.676 15.783 81.7217C15.7539 81.7673 15.783 81.8129 15.8579 81.8585C16.041 81.9705 16.3363 82.1281 16.4445 82.1945C16.6691 82.3313 17.0518 82.6341 17.3846 82.8332C18.5286 83.53 19.8058 83.4802 20.5379 82.265C21.2701 81.0498 20.6253 80.0212 19.2525 79.1959M19.8058 81.9995C19.1901 83.0157 18.4787 83.1442 17.5178 82.5677C16.9312 82.2152 16.9562 82.0783 17.3139 81.4853L18.5869 79.3908C18.6742 79.2456 18.7117 79.2166 19.0278 79.3908C20.0221 79.9922 20.3923 80.9793 19.8058 81.983" fill="#2A7DE1"/>
<path fill-rule="evenodd" clip-rule="evenodd" d="M24.935 81.9041L23.687 81.4396C23.5498 81.3899 23.2419 81.2571 22.9674 81.1576C22.8758 81.1244 22.8259 81.1327 22.8093 81.1825C22.7926 81.2323 22.8093 81.2613 22.8966 81.2903C23.1754 81.394 23.2586 81.4977 23.1795 81.7051C23.1005 81.9124 23.0797 81.9995 22.7968 82.7461L22.464 83.6212C22.3683 83.8825 22.2685 84.123 22.1936 84.3221C21.9856 84.8779 21.9274 84.9194 21.6486 84.8115C21.5862 84.7908 21.5405 84.8115 21.5238 84.8447C21.5072 84.8779 21.5238 84.9277 21.6154 84.9608C21.815 85.0355 22.1395 85.1392 22.2518 85.1807C22.7843 85.3797 23.2669 85.5954 23.7494 85.7696C23.8358 85.8092 23.9381 85.7746 23.9824 85.6908C24.0827 85.5198 24.1716 85.3425 24.2486 85.1599C24.2736 85.0977 24.2861 85.0396 24.2486 85.023C24.2112 85.0065 24.1696 85.023 24.1322 85.0853C24.024 85.2719 23.9408 85.3424 23.7994 85.3548C23.5739 85.3242 23.3531 85.2657 23.1421 85.1807C22.7843 85.0479 22.7261 85.0147 22.8675 84.6788L23.2835 83.5382C23.293 83.5298 23.3073 83.5298 23.3168 83.5382L23.999 83.8078C24.232 83.8908 24.207 84.1023 24.1488 84.2558C24.1392 84.2736 24.1384 84.2949 24.1465 84.3135C24.1546 84.3321 24.1707 84.3459 24.1904 84.3512C24.257 84.376 24.2861 84.3138 24.3069 84.2599C24.4067 83.9945 24.5981 83.6585 24.623 83.5922C24.6313 83.5764 24.6324 83.5578 24.6261 83.5411C24.6197 83.5245 24.6065 83.5113 24.5898 83.5051C24.5565 83.5051 24.5107 83.53 24.4275 83.5507C24.2686 83.5724 24.1068 83.548 23.9616 83.4802C23.7494 83.4055 23.504 83.306 23.4291 83.277C23.3542 83.2479 23.3958 83.2562 23.4042 83.2313L23.8992 81.9041C23.8992 81.9041 23.8992 81.8793 23.9283 81.9041C24.9018 82.265 24.9226 82.3189 24.8394 82.6424C24.8394 82.6839 24.8144 82.7378 24.8726 82.7585C24.8941 82.7679 24.9184 82.7678 24.9398 82.7583C24.9612 82.7489 24.9776 82.7309 24.985 82.7088C25.0692 82.4943 25.1693 82.2863 25.2845 82.0866C25.2845 82.0493 25.2845 82.012 25.2595 81.9954C25.1509 81.988 25.0435 81.9685 24.9392 81.9373" fill="#2A7DE1"/>
<path fill-rule="evenodd" clip-rule="evenodd" d="M32.4854 83.3641C32.0652 83.2412 31.6372 83.147 31.2041 83.082C29.9561 82.9535 28.7872 83.5631 28.6582 84.8447C28.4835 86.3419 29.615 87.1217 30.9379 87.2585C31.2617 87.3099 31.5917 87.3099 31.9155 87.2585C31.9968 87.2445 32.0639 87.1872 32.0902 87.1092C32.1715 86.8807 32.2354 86.6464 32.2816 86.4083C32.2816 86.3544 32.2816 86.3088 32.2233 86.3046C32.1651 86.3005 32.1485 86.3046 32.111 86.4124C31.9405 86.8272 31.695 86.9889 30.9213 86.9143C29.9853 86.8189 29.3363 86.1304 29.4611 84.8945C29.5942 83.9157 30.0934 83.2977 31.1001 83.3972C31.7241 83.4594 32.3481 83.7622 32.2774 84.318C32.2774 84.4092 32.2774 84.4631 32.3481 84.4673C32.4189 84.4714 32.4313 84.4258 32.448 84.3346C32.4646 84.2433 32.5021 83.9406 32.527 83.7664C32.552 83.5922 32.5769 83.5258 32.5853 83.4802C32.5936 83.4346 32.5853 83.4014 32.4854 83.3848" fill="#2A7DE1"/>
<path fill-rule="evenodd" clip-rule="evenodd" d="M39.0125 86.7152C38.7088 86.7525 38.5965 86.7152 38.5299 86.4954C38.4634 86.2756 38.4301 85.8484 38.3802 85.3714L38.272 84.4507C38.1846 83.6627 38.168 83.5134 38.1638 83.3433C38.1597 83.1733 38.2179 83.0447 38.455 83.0198C38.5424 83.0198 38.5715 82.9783 38.5674 82.9369C38.5632 82.8954 38.5174 82.8664 38.4259 82.8747C38.2138 82.8995 37.8851 82.9493 37.7562 82.9618L36.9866 83.0323C36.895 83.0323 36.8493 83.0696 36.8534 83.1194C36.8576 83.1691 36.9034 83.1899 36.9824 83.1816C37.2445 83.1525 37.3984 83.1816 37.4234 83.4263C37.4483 83.5963 37.4733 83.7332 37.5606 84.5295L37.5856 84.7617L35.5846 84.9774C35.5846 84.9774 35.5597 84.9774 35.5597 84.9567L35.5347 84.7327C35.4474 83.9364 35.4307 83.7995 35.4266 83.6295C35.4266 83.3931 35.4806 83.3309 35.7136 83.306C35.8051 83.306 35.8342 83.2604 35.8301 83.2147C35.8259 83.1691 35.7802 83.1484 35.6803 83.1525C35.4765 83.1733 35.1478 83.2313 35.0189 83.2438C34.8899 83.2562 34.5322 83.277 34.2493 83.3101C34.1494 83.3101 34.112 83.3516 34.1162 83.4014C34.1203 83.4512 34.1661 83.476 34.2451 83.4636C34.528 83.4346 34.6611 83.4843 34.6861 83.7C34.711 83.9157 34.7277 84.0111 34.815 84.8115L34.919 85.7323C34.969 86.2134 35.0189 86.624 35.0147 86.8396C35.0106 87.0553 34.9731 87.1341 34.7277 87.1631C34.6611 87.1631 34.6154 87.1922 34.6195 87.2461C34.6237 87.3 34.6736 87.3207 34.7651 87.3083C34.9773 87.2876 35.3059 87.2336 35.4349 87.2212C35.5638 87.2088 35.9133 87.1839 36.2669 87.1424C36.3542 87.1424 36.3958 87.1009 36.3917 87.0512C36.3875 87.0014 36.3376 86.9889 36.2794 86.9931C35.9757 87.0263 35.8634 87.018 35.7885 86.7691C35.7136 86.5203 35.7011 86.1346 35.647 85.6535L35.6096 85.3382C35.6096 85.3382 35.6096 85.3175 35.6096 85.3134L37.6106 85.0936L37.648 85.4171C37.6979 85.894 37.7437 86.3088 37.7437 86.5286C37.7437 86.7484 37.7146 86.8272 37.4566 86.8521C37.3901 86.8521 37.3443 86.8811 37.3526 86.935C37.361 86.9889 37.4026 87.0097 37.4982 86.9972C37.7062 86.9765 38.0349 86.9267 38.1597 86.906C38.2845 86.8853 38.6422 86.8728 38.9917 86.8355C39.0832 86.8355 39.1206 86.7857 39.1206 86.7442C39.1206 86.7028 39.0624 86.6779 39.0042 86.682" fill="#2A7DE1"/>
<path fill-rule="evenodd" clip-rule="evenodd" d="M42.8896 85.6618C42.6026 85.7447 42.4486 85.753 42.3738 85.5539C42.2989 85.3548 42.1699 84.9442 42.0243 84.4548L41.7622 83.5673C41.5334 82.8 41.4835 82.659 41.4502 82.5014C41.4045 82.2691 41.4502 82.1986 41.6874 82.1281C41.7331 82.1281 41.7914 82.0825 41.7706 82.0161C41.7498 81.9498 41.704 81.9664 41.6166 81.9954C41.4211 82.0535 41.1258 82.153 40.9968 82.1945C40.8678 82.2359 40.5226 82.3189 40.327 82.377C40.223 82.406 40.1814 82.4475 40.1981 82.4889C40.2147 82.5304 40.2771 82.547 40.327 82.5304C40.6141 82.4475 40.6723 82.5304 40.743 82.7046C40.8138 82.8788 40.8387 83.0074 41.0717 83.7705L41.3379 84.6581C41.4835 85.1475 41.6042 85.5456 41.6374 85.7571C41.6707 85.9687 41.6374 86.0433 41.4086 86.1055C41.3462 86.1055 41.3005 86.1512 41.3171 86.2009C41.3338 86.2507 41.3837 86.2714 41.471 86.2424L42.1117 86.0309C42.2448 85.9894 42.5776 85.9147 42.9104 85.8152C42.9978 85.7903 43.031 85.7447 43.0144 85.6949C42.9978 85.6452 42.9437 85.6452 42.8896 85.6618Z" fill="#2A7DE1"/>
<path fill-rule="evenodd" clip-rule="evenodd" d="M47.3075 83.1111C47.2742 83.0364 47.241 83.0115 47.1952 83.0323C47.1494 83.053 47.1494 83.1235 47.1619 83.165C47.2576 83.5258 47.2202 83.7 46.7043 83.9364C46.0886 84.2143 46.0138 84.1894 45.7101 83.5217L44.8406 81.6346C44.5619 81.0249 44.591 80.9876 44.9072 80.8424C44.9862 80.8092 45.007 80.7677 44.9862 80.7221C44.9654 80.6765 44.9238 80.6724 44.8323 80.7221C44.6368 80.8092 44.2915 80.9834 44.1792 81.0373C44.0669 81.0912 43.7341 81.2157 43.5053 81.3277C43.4096 81.365 43.3805 81.4064 43.4013 81.4521C43.4221 81.4977 43.4637 81.5018 43.5427 81.4521C43.8922 81.2903 43.9296 81.3691 44.1834 81.929L45.0528 83.812C45.4106 84.5917 45.4355 84.6954 45.1318 84.8364C45.0736 84.8613 45.032 84.8945 45.0653 84.9442C45.0986 84.994 45.1277 85.0023 45.2192 84.9442C45.4147 84.853 45.7101 84.7037 45.8224 84.6539C46.2134 84.4714 46.5504 84.3553 47.2534 84.0359C47.5072 83.9198 47.5405 83.8742 47.5197 83.7415C47.4624 83.5176 47.3916 83.2974 47.3075 83.082" fill="#2A7DE1"/>
<path fill-rule="evenodd" clip-rule="evenodd" d="M51.1888 80.7843C51.1514 80.7263 51.1139 80.6848 51.064 80.7263C51.0141 80.7677 51.0266 80.7926 51.064 80.8548C51.1383 80.9832 51.1383 81.1413 51.064 81.2696C50.9049 81.4281 50.7276 81.5674 50.5357 81.6843C50.2195 81.9 50.1696 81.9124 49.9699 81.6138L49.2918 80.6018C49.2863 80.5964 49.2831 80.5889 49.2831 80.5811C49.2831 80.5733 49.2863 80.5658 49.2918 80.5604L49.9075 80.1705C50.1155 80.0336 50.2694 80.1705 50.361 80.3115C50.3705 80.3285 50.3866 80.3407 50.4055 80.3454C50.4244 80.3502 50.4444 80.3469 50.4608 80.3364C50.519 80.2991 50.4858 80.2327 50.4608 80.1871C50.3027 79.9507 50.1446 79.5982 50.103 79.5401C50.0953 79.5236 50.0806 79.5114 50.063 79.5066C50.0454 79.5018 50.0266 79.505 50.0115 79.5152C49.9824 79.5152 49.9866 79.594 49.9533 79.6728C49.8803 79.8153 49.7657 79.9324 49.6246 80.0088C49.4374 80.1373 49.2086 80.2742 49.1504 80.3198C49.0922 80.3654 49.113 80.3198 49.0963 80.3198L48.3101 79.1419C48.3101 79.1419 48.3101 79.1171 48.3101 79.1088C49.1712 78.5364 49.217 78.5406 49.4458 78.806C49.4749 78.835 49.5082 78.8806 49.5581 78.8475C49.5792 78.8375 49.5945 78.8183 49.5994 78.7956C49.6043 78.7728 49.5983 78.749 49.583 78.7313C49.457 78.5374 49.3471 78.3335 49.2544 78.1217C49.2294 78.0885 49.2003 78.0677 49.1629 78.0885C49.0972 78.1746 49.0187 78.2502 48.9299 78.3124L47.84 79.0631L47.191 79.4779C47.1078 79.5359 47.087 79.5816 47.112 79.623C47.137 79.6645 47.1827 79.6604 47.2534 79.623C47.503 79.4571 47.6362 79.453 47.7568 79.623C47.8775 79.7931 47.9357 79.8802 48.3808 80.5438L48.9008 81.3194C49.0547 81.5516 49.192 81.7714 49.3168 81.9498C49.6454 82.4433 49.6413 82.5138 49.3958 82.6797C49.3418 82.7171 49.3168 82.7544 49.3459 82.8C49.375 82.8456 49.4167 82.8415 49.4957 82.8L50.049 82.4143C50.519 82.0991 50.9725 81.8336 51.4051 81.5475C51.4866 81.4989 51.5174 81.3962 51.4759 81.3111C51.3951 81.1315 51.3034 80.957 51.2013 80.7885" fill="#2A7DE1"/>
<path fill-rule="evenodd" clip-rule="evenodd" d="M18.3539 63.6014C17.9697 63.8635 17.6911 64.2529 17.5677 64.7005C18.0129 64.8104 18.4828 64.7605 18.8947 64.5594C19.2759 64.3025 19.5553 63.9212 19.6851 63.4811C19.2389 63.371 18.7682 63.4194 18.3539 63.618" fill="white"/>
<path fill-rule="evenodd" clip-rule="evenodd" d="M26.391 68.9889C26.6939 68.8703 26.9885 68.7318 27.2729 68.5742L27.3478 66.7078H26.0333L26.1289 69.076L26.391 68.9682" fill="white"/>
<path fill-rule="evenodd" clip-rule="evenodd" d="M15.9869 64.5429C16.4024 64.7418 16.8741 64.7916 17.3222 64.6839C17.1953 64.2424 16.9171 63.8593 16.536 63.6014C16.1202 63.4028 15.6482 63.3544 15.2006 63.4645C15.33 63.9037 15.6078 64.2847 15.9869 64.5429Z" fill="white"/>
<path fill-rule="evenodd" clip-rule="evenodd" d="M25.5757 63.2364V63.8212H25.0349V63.2364C25.0349 63.0073 24.8486 62.8217 24.6189 62.8217H22.2061V62.9212C22.209 63.1252 22.2412 63.3277 22.3018 63.5226H23.9242V63.788H22.3933C22.6166 64.2866 23.1187 64.6024 23.6662 64.5885H24.2902C24.2902 64.7129 24.2902 65.0032 24.2902 65.1318H23.6662H23.4125H22.9466V66.0774H30.6842V65.1152H30.4387H30.1725H29.536C29.536 64.9866 29.536 64.7005 29.536 64.5719H30.16C30.7075 64.5858 31.2097 64.27 31.433 63.7714H29.8938V63.506H31.5578C31.6236 63.3123 31.6573 63.1091 31.6576 62.9046V62.8051H29.2448C29.0151 62.8051 28.8288 62.9908 28.8288 63.2198V63.8046H28.2589V63.2198C28.2621 62.8593 28.4656 62.5303 28.7872 62.3654L28.9328 62.2908L28.7997 62.1954C27.6515 61.3459 26.0874 61.3226 24.9142 62.1373L24.752 62.2452L24.935 62.3115C25.3176 62.4516 25.5729 62.8135 25.5757 63.2198" fill="white"/>
<path fill-rule="evenodd" clip-rule="evenodd" d="M18.8698 63.0415C19.1985 62.7217 19.4058 62.298 19.4563 61.8429C18.9983 61.812 18.5438 61.941 18.1709 62.2078C17.8421 62.5276 17.6348 62.9513 17.5843 63.4065C18.0426 63.4398 18.4979 63.3105 18.8698 63.0415Z" fill="white"/>
<path fill-rule="evenodd" clip-rule="evenodd" d="M12.688 62.494C12.688 64.3936 13.8237 65.7373 15.8787 66.1604C16.7107 66.3263 16.9853 66.5253 17.031 66.8406H17.888V66.5502C17.888 66.2724 17.7133 65.7498 16.7523 65.5217C15.3464 65.2717 14.3298 64.0421 14.352 62.6184C14.352 60.9594 15.6707 59.5949 17.68 59.5949C18.4111 59.5924 19.1295 59.7858 19.76 60.1548L19.9098 59.9724C19.0376 59.189 17.9012 58.7625 16.7274 58.7779C14.327 58.7779 12.6797 60.4369 12.6797 62.5106" fill="white"/>
<path fill-rule="evenodd" clip-rule="evenodd" d="M16.873 60.777C16.5796 60.4756 16.1895 60.2863 15.7706 60.2419C15.7437 60.6602 15.8628 61.0749 16.1075 61.4157C16.4016 61.7162 16.7913 61.9053 17.2099 61.9507C17.2393 61.5321 17.12 61.1167 16.873 60.777Z" fill="white"/>
<path fill-rule="evenodd" clip-rule="evenodd" d="M19.136 60.2419C18.7174 60.2873 18.3276 60.4764 18.0336 60.777C17.7866 61.1167 17.6673 61.5321 17.6967 61.9507C18.1232 61.936 18.5234 61.7416 18.7979 61.4158C19.0723 61.0899 19.1952 60.6633 19.136 60.2419Z" fill="white"/>
<path fill-rule="evenodd" clip-rule="evenodd" d="M15.4294 61.8221C15.4728 62.2853 15.6808 62.7178 16.016 63.0415C16.3906 63.3085 16.846 63.4388 17.3056 63.4106C17.2546 62.9535 17.0458 62.5283 16.7149 62.2078C16.3419 61.941 15.8874 61.812 15.4294 61.8429" fill="white"/>
<path fill-rule="evenodd" clip-rule="evenodd" d="M16.8521 67.6037L16.4944 71.1332C16.5941 71.5884 16.9984 71.913 17.4657 71.913C17.9331 71.913 18.3374 71.5884 18.4371 71.1332L18.0793 67.6037H16.8521Z" fill="white"/>
<path d="M30.6758 66.5627C29.9936 66.5419 29.0742 66.9069 28.263 68.5244C28.1414 68.7477 27.9599 68.9329 27.7389 69.0594C27.386 69.2719 27.0124 69.4484 26.624 69.5862C26.1969 69.7487 25.7801 69.9371 25.376 70.1502C24.8736 70.4154 24.555 70.9315 24.544 71.4982C24.5735 71.9875 24.8468 72.4297 25.272 72.676C25.5053 72.5017 25.7515 72.345 26.0083 72.2074C25.6256 71.9959 25.3469 71.7926 25.3469 71.4982C25.3469 71.0834 25.7005 70.8512 26.1789 70.6272C26.4326 70.5069 26.703 70.3908 26.9693 70.2788C27.3726 70.1204 27.7657 69.9376 28.1466 69.7313C28.4988 69.5282 28.7871 69.2308 28.9786 68.8728C29.1721 68.4805 29.4184 68.1163 29.7107 67.7903C29.977 67.529 30.3222 67.8152 30.9213 67.8152C31.3295 67.8368 31.7281 67.6863 32.0195 67.4005L32.057 67.1931C31.6777 66.8356 31.1908 66.6126 30.6717 66.5585M30.967 67.388C30.8545 67.388 30.7632 67.297 30.7632 67.1848C30.7632 67.0726 30.8545 66.9816 30.967 66.9816C31.0796 66.9816 31.1709 67.0726 31.1709 67.1848C31.1709 67.297 31.0796 67.388 30.967 67.388Z" fill="white"/>
<path fill-rule="evenodd" clip-rule="evenodd" d="M27.04 71.4359C27.04 71.239 26.8798 71.0793 26.6822 71.0793C26.4846 71.0793 26.3245 71.239 26.3245 71.4359C26.3245 71.6329 26.4846 71.7926 26.6822 71.7926C26.8798 71.7926 27.04 71.6329 27.04 71.4359Z" fill="white"/>
<path fill-rule="evenodd" clip-rule="evenodd" d="M27.481 70.7723C27.8179 70.9631 28.0384 71.1871 28.0384 71.4982C28.0384 71.8092 27.6682 72.0456 27.2064 72.2862L26.7904 72.5018C26.3794 72.699 25.9844 72.9278 25.609 73.1862H25.584C25.2407 73.4289 25.0337 73.8201 25.0266 74.2396C24.9976 74.6601 25.2062 75.0616 25.5674 75.2806C25.7477 75.0822 25.947 74.9016 26.1622 74.7415C25.9615 74.6545 25.8311 74.4578 25.8294 74.2396C25.8506 74.0694 25.9466 73.9174 26.0915 73.8249L26.1206 73.8041L26.1914 73.7544C26.515 73.5364 26.8575 73.3477 27.2147 73.1903L27.535 73.0286C28.1798 72.6885 28.8371 72.2323 28.8371 71.5023C28.8375 71.0706 28.6417 70.6619 28.3046 70.3908C28.0426 70.5318 27.7597 70.6562 27.4726 70.7765" fill="white"/>
<path d="M25.0349 69.6152C25.3053 69.4635 25.5829 69.3251 25.8669 69.2005C25.5446 69.0648 25.2747 68.8292 25.0973 68.5286C24.2653 66.9111 23.3709 66.5461 22.6845 66.5668C22.1744 66.6226 21.696 66.8408 21.32 67.1889L21.3574 67.3963C21.647 67.6824 22.0445 67.833 22.4515 67.8111C23.0506 67.8111 23.4 67.5249 23.6662 67.7862C23.9585 68.1121 24.2049 68.4763 24.3984 68.8687C24.5487 69.1594 24.767 69.4098 25.0349 69.5986M22.3933 67.3714C22.2807 67.3714 22.1894 67.2804 22.1894 67.1682C22.1894 67.056 22.2807 66.965 22.3933 66.965C22.5059 66.965 22.5971 67.056 22.5971 67.1682C22.5971 67.2804 22.5059 67.3714 22.3933 67.3714Z" fill="white"/>
<path fill-rule="evenodd" clip-rule="evenodd" d="M27.5018 73.7668L27.3187 73.8581C27.4483 73.9467 27.5321 74.0878 27.5475 74.2438C27.5526 74.3866 27.4949 74.5244 27.3894 74.6212L27.352 74.6544L27.2771 74.7041C26.5616 75.1853 26.2038 75.4092 25.8794 75.9111C25.7873 76.067 25.7385 76.2444 25.7379 76.4253C25.7543 76.8367 26.0463 77.1857 26.4493 77.2756L26.4701 77.6903C26.469 77.7614 26.4965 77.83 26.5466 77.8807C26.5966 77.9314 26.665 77.9599 26.7363 77.9599C26.808 77.9599 26.8768 77.9315 26.9275 77.881C26.9782 77.8304 27.0067 77.7618 27.0067 77.6903V77.2756C27.4106 77.186 27.7039 76.8374 27.7222 76.4253C27.7219 76.3322 27.7064 76.2398 27.6765 76.1516C27.5265 76.2228 27.3866 76.3135 27.2605 76.4212C27.1266 76.507 26.9499 76.4818 26.8455 76.3621C26.7411 76.2424 26.7407 76.0645 26.8445 75.9442C27.038 75.7713 27.2586 75.6312 27.4976 75.5295C28.0057 75.2966 28.3377 74.7969 28.3546 74.2396C28.3525 73.9581 28.2509 73.6864 28.0675 73.4724C27.8845 73.5719 27.7014 73.6631 27.5018 73.7627" fill="white"/>
<path fill-rule="evenodd" clip-rule="evenodd" d="M10.2419 60.6028C10.1883 60.6992 10.2215 60.8206 10.3168 60.8765L11.9808 61.8304L12.064 61.4157L10.5248 60.5281C10.4281 60.4746 10.3063 60.5078 10.2502 60.6028" fill="white"/>
<path fill-rule="evenodd" clip-rule="evenodd" d="M12.792 59.8604L13.0458 59.5493L11.9725 58.6535C11.8886 58.5813 11.762 58.5906 11.6896 58.6742C11.6172 58.7578 11.6265 58.8841 11.7104 58.9562L12.792 59.8604Z" fill="white"/>
<path fill-rule="evenodd" clip-rule="evenodd" d="M14.1731 58.6452L14.56 58.4793L13.624 57.3677C13.5779 57.3129 13.506 57.2868 13.4353 57.2991C13.3647 57.3115 13.306 57.3605 13.2814 57.4277C13.2568 57.4949 13.2701 57.5701 13.3161 57.6249L14.1731 58.6452Z" fill="white"/>
<path fill-rule="evenodd" clip-rule="evenodd" d="M21.5904 57.6041C21.6584 57.5179 21.6455 57.3935 21.5613 57.3229C21.477 57.2524 21.3518 57.2612 21.2784 57.3429L19.9098 58.9728L20.2301 59.2175L21.5904 57.6041Z" fill="white"/>
<path fill-rule="evenodd" clip-rule="evenodd" d="M23.1878 58.6866C23.1133 58.6049 22.9883 58.5941 22.9008 58.6618L20.1011 61.0134V61.5277L23.1545 58.9687C23.2393 58.898 23.2522 58.773 23.1837 58.6866" fill="white"/>
<path fill-rule="evenodd" clip-rule="evenodd" d="M24.6438 60.6028C24.5878 60.5078 24.466 60.4746 24.3693 60.5281L20.384 62.8424V63.2945L24.5814 60.8765C24.6767 60.8206 24.71 60.6992 24.6563 60.6028" fill="white"/>
<path d="M9.56799 56.165H33.0304V32.8562C20.1982 33.0785 9.83655 43.3723 9.56799 56.165ZM18.8448 42.7189C19.2348 42.6481 19.6299 42.6093 20.0262 42.6028C20.3457 42.6288 20.6589 42.7058 20.9539 42.8309V39.2931H24.831V34.8387H28.575V39.2931H32.448V43.0258H28.5626V55.518H24.8186V43.0134H21.3616C21.6969 43.252 22.0127 43.5169 22.3059 43.8055C22.496 43.7503 22.6911 43.7142 22.8883 43.6977C23.2544 43.6977 23.504 44.0129 23.7203 44.0129C23.9366 44.0129 24.0282 44.0129 24.0282 44.1C24.0282 44.1871 23.9283 44.3074 23.6954 44.3074C23.4624 44.3074 23.1754 44.0959 22.9258 44.0959C22.6943 44.1207 22.4697 44.1897 22.2643 44.2991L22.1686 44.7926H23.9741V46.3935C23.9741 47.8949 22.8592 48.6912 22.0522 49.2719C21.919 49.3673 21.736 49.471 21.5571 49.5747C21.8512 49.8915 21.9035 50.3626 21.6861 50.7359C21.6168 50.8523 21.5265 50.955 21.4198 51.0387C21.7012 51.2238 21.8761 51.5324 21.8899 51.8682C21.8899 52.6604 20.9082 52.9009 20.9082 52.9009V52.9631C20.9747 53.0253 21.0787 53.1207 21.1578 53.1871C21.5738 53.5438 22.5264 54.0166 22.5264 54.9V55.4765H16.769V54.9C16.769 54.1327 17.4512 53.6558 17.9171 53.3447C17.7289 53.2138 17.5921 53.0217 17.5302 52.8014C17.4598 52.5448 17.4926 52.271 17.6218 52.0382C17.6889 51.919 17.7811 51.8157 17.8922 51.7355C17.6526 51.5912 17.4873 51.3508 17.4387 51.076C15.6208 50.4207 13.4701 49.1558 13.4701 46.3728C13.4319 45.3771 13.7947 44.4075 14.4776 43.6799C15.1605 42.9523 16.1068 42.5271 17.1059 42.4991C17.6892 42.5125 18.2705 42.5708 18.8448 42.6733" fill="#CCD8F4"/>
<path fill-rule="evenodd" clip-rule="evenodd" d="M49.3251 65.53L50.7146 62.4442H46.047L45.7642 66.4134C45.9039 66.4188 46.0431 66.4354 46.1802 66.4631C46.6096 66.5807 47.0112 66.7823 47.3616 67.0562C47.6998 67.3193 48.0874 67.5125 48.5014 67.6244C48.7193 67.6749 48.9402 67.7109 49.1629 67.7323C48.8447 67.2974 48.6728 66.7733 48.672 66.235V65.53H49.3251Z" fill="#CCD8F4"/>
<path fill-rule="evenodd" clip-rule="evenodd" d="M35.7926 65.5134H38.3469L37.0698 62.6765L35.7926 65.5134Z" fill="#CCD8F4"/>
<path fill-rule="evenodd" clip-rule="evenodd" d="M37.5898 62.4318L38.9792 65.53H39.6282V66.2516C39.6258 66.3978 39.6105 66.5436 39.5824 66.6871L40.2438 65.6876L40.4352 65.3972L40.7181 65.6005C41.2508 65.9376 41.8772 66.0974 42.5069 66.0567L42.2448 62.4442L37.5898 62.4318Z" fill="#CCD8F4"/>
<path fill-rule="evenodd" clip-rule="evenodd" d="M49.9491 65.5134H52.5117L51.2304 62.6765L49.9491 65.5134Z" fill="#CCD8F4"/>
<path d="M33.8416 56.9654V80.4235C46.7209 80.1834 57.0903 69.8067 57.2832 56.9654H33.8416ZM51.2304 68.7816C50.9157 68.7818 50.6037 68.7227 50.311 68.6074V68.9392L47.9565 74.7083L45.2358 73.8249L45.1443 75.123C45.1443 75.6705 44.6992 76.1143 44.1501 76.1143C43.601 76.1143 43.1558 75.6705 43.1558 75.123V75.1728L43.0227 73.3106C42.7816 73.4051 42.517 73.4225 42.2656 73.3604C41.9577 73.2816 41.5001 72.9788 41.5584 72.73L36.7661 71.7719L36.9491 70.6687V70.6396L38.4384 68.3917C37.6513 68.8834 36.6586 68.9103 35.8458 68.4621C35.0331 68.0138 34.5284 67.161 34.528 66.235V65.53H35.1769L36.5705 62.4359C35.8742 62.3553 35.3329 61.7939 35.2795 61.0971C35.2261 60.4002 35.6755 59.7634 36.3514 59.5781C37.0273 59.3929 37.7401 59.7112 38.0515 60.3373C39.8902 60.4078 41.3795 60.1548 42.4486 59.57C42.2807 58.908 42.5105 58.2088 43.0388 57.7742C43.567 57.3396 44.2992 57.2474 44.9193 57.5373C45.5394 57.8273 45.9363 58.4476 45.9389 59.1304C45.9371 59.279 45.9161 59.4268 45.8765 59.57C46.9539 60.1548 48.439 60.3995 50.2819 60.3373C50.5932 59.7131 51.3046 59.3965 51.9786 59.5823C52.6525 59.7681 53.0997 60.4041 53.0451 61.0991C52.9905 61.7941 52.4493 62.353 51.7545 62.4318L53.1523 65.53H53.7971V66.2516C53.7971 67.658 52.6535 68.7982 51.2429 68.7982L51.2304 68.7816Z" fill="#CCD8F4"/>
</svg>
